<?xml version="1.0" standalone="no"?>
<!DOCTYPE svg PUBLIC "-//W3C//DTD SVG 1.1//EN" "http://www.w3.org/Graphics/SVG/1.1/DTD/svg11.dtd" >
<svg xmlns="http://www.w3.org/2000/svg" xmlns:xlink="http://www.w3.org/1999/xlink" version="1.1">
<metadata>
Created by FontForge 20200427 at Sun Aug 21 16:42:08 2011
 By www
Copyright (c) 1994-6 Steve Mehallo. All Rights Reserved.
</metadata>
<defs>
<font id="AltaCaliforniaW00" horiz-adv-x="172" >
  <font-face 
    font-family="AltaCaliforniaW00"
    font-weight="400"
    font-stretch="normal"
    units-per-em="1000"
    panose-1="2 0 6 6 7 0 0 2 0 3"
    ascent="733"
    descent="-267"
    x-height="303"
    cap-height="656"
    bbox="-75.2222 -209 1149 932.471"
    underline-thickness="20"
    underline-position="-153"
    unicode-range="U+000D-FB02"
  />
<missing-glyph horiz-adv-x="1000" 
 />
    <glyph glyph-name=".notdef" horiz-adv-x="1000" 
 />
    <glyph glyph-name=".null" horiz-adv-x="0" 
 />
    <glyph glyph-name="uni000D" unicode="&#xd;" 
 />
    <glyph glyph-name="space" unicode=" " 
 />
    <glyph glyph-name="exclam" unicode="!" horiz-adv-x="151" 
d="M114 -38q-9 -2 -9.5 -1.5t-9.5 4.5q-14 -6 -19.5 -2t-5.5 19v27.5t-2 27.5l9 15q14 0 22.5 1t21.5 -6q2 -8 2 -13t-3 -12.5t2 -13.5q0 -11 1 -24.5t-9 -21.5zM88 391q3 -2 6 0t1 6zM124 494q0 -9 -0.5 -30t-1 -47.5t-2 -55t-3 -53.5t-3 -43t-3.5 -23q3 -9 4 -11t1 -5
t-1 -12t-1 -31v-15.5t-2 -19.5t-6 -17t-12 -7q-5 6 -8 24.5t-5.5 43.5t-3.5 54t-2 55.5t-2 48t-3 32.5q0 26 -3.5 50.5t-3.5 50.5q0 13 7 17.5t16.5 4.5t20 -3.5t17.5 -7.5z" />
    <glyph glyph-name="quotedbl" unicode="&#x22;" horiz-adv-x="170" 
d="M134 413q-2 6 -3.5 9t-2 6t-0.5 6.5v10.5q-1 5 -1.5 16t-0.5 22.5t1.5 22t4.5 15.5q5 1 5.5 1h8.5q4 0 6.5 -4t4 -9.5t1.5 -10.5v-8q0 -14 -0.5 -35.5t-0.5 -34.5zM99 446v-13t-1 -13l-11 -8q-5 6 -5.5 4.5t-8.5 -3.5q-4 11 -4 23q0 9 -0.5 20.5t-0.5 23.5t1.5 22.5
t5.5 17.5q3 -2 3.5 -2t10.5 3q6 0 8.5 -10.5t2.5 -23.5t-0.5 -25t-0.5 -16z" />
    <glyph glyph-name="numbersign" unicode="#" horiz-adv-x="540" 
d="M377 371q-8 -16 -15.5 -32t-16.5 -32q-4 0 -5.5 -0.5t-3 0t-4 1.5t-8.5 4q-1 3 -1 10q0 17 10 27.5t17 24.5l18 11zM77 355q2 6 1.5 7t-5.5 9q-2 -4 -3 -7.5t-2 -8.5h9zM73 395q-9 -11 -9.5 -11.5t-1.5 -0.5q9 -3 9.5 -2.5t0.5 14.5h1zM106 397q-6 -3 -8.5 -8.5
t-4.5 -10.5h-1v-10q2 3 6 4t7 3t3.5 7t-3.5 15h1zM194 284q11 5 11 6t-4 11zM91 401q8 3 8 4t-11 15zM119 438q5 9 5 9.5t-5 5.5q0 -3 -0.5 -5.5t-0.5 -5.5q-11 7 -16.5 8t-14.5 -9l11 -7q11 2 12.5 1.5t6.5 -5.5q-5 2 -5 -4t-5 -6l7 -10q0 8 0.5 9t6.5 7zM461 410
q0 8 -0.5 16.5t-1.5 16.5l-10 10t-9 11q-11 2 -20 5.5t-19 8.5q-17 -1 -36.5 -10t-34.5 -17q-20 -21 -34 -45.5t-30 -48.5q-3 26 -9.5 48t-6.5 49q-11 5 -20.5 10.5t-22.5 5.5q-5 0 -9 -0.5t-9 -0.5l-11 -7l2 -11l23 2q2 -3 3.5 -6.5t0.5 -6.5q-2 -9 -4.5 -13.5t-6 -8
t-7 -8.5t-5.5 -17q-9 -7 -15 -24t-13 -34.5t-17 -31t-28 -13.5l-15 17q1 7 6 11.5t6 11.5l1 1l-18 15l-12 -6l-6 -31l33 -29l16 -2q35 17 50 45.5t25 63.5q1 3 2.5 8t3.5 10t5 8.5t6 3.5q5 0 10 -16.5t9 -37.5t6 -41t2 -26q0 -2 1 -3t12 -9l14 8q4 20 6 39t13 36
q9 14 20.5 29.5t25 29t29 23.5t32.5 14l13 -6q12 6 18.5 2t10 -13t4 -19.5t0.5 -18.5q0 -16 -11 -27l-22 -22q2 -5 11 -1t18.5 12.5t17 19.5t7.5 20zM393 369q0 18 -14 26q-32 0 -51 -23t-19 -54v-1q4 -7 11.5 -16.5t15.5 -9.5q8 1 18 9.5t18.5 20.5t14.5 25t6 23zM414 295
q-1 3 -4 10t-8 7t-9 -5.5t-6 -10.5q4 -12 12.5 -11.5t14.5 10.5zM526 374q0 -27 -18 -54t-44.5 -48t-57 -32.5t-56.5 -8.5q-6 -6 -16 -8.5t-18 -3.5q-17 8 -37.5 4.5t-37.5 -3.5q-7 0 -12 1.5t-9 2.5t-8 -0.5t-9 -7.5q-12 5 -16 7t-17 2q-39 0 -67 20t-45 45q-21 28 -34 65
q0 18 -0.5 26t0.5 13.5t4 11t9 18.5q15 30 28.5 43t28.5 20.5t33.5 13t43.5 20.5v-3q5 0 18.5 1t28 2.5t26.5 4t14 4.5q14 -5 25 -2t25 3t25 -4t27 1q17 -5 42.5 -13t49 -19.5t40.5 -28t19 -38.5q11 -11 13 -26t2 -29z" />
    <glyph glyph-name="dollar" unicode="$" horiz-adv-x="305" 
d="M151 305q-3 -5 -5 -25.5t-2.5 -45t-1 -47t-0.5 -30.5q0 -11 4.5 -19.5t16.5 -8.5q8 0 10 7t2 12q0 14 -3 28t-3 28q0 17 3 34.5t3 34.5q0 12 -7 19.5t-18 12.5h1zM241 238q-2 17 -14.5 29.5t-29.5 10.5v-16q4 -5 5 -22t0 -37t-2.5 -38t-2.5 -24l10 -6q7 7 16.5 20.5
t17 28.5t9 30t-8.5 24zM112 501q-16 -1 -21 -15.5t-13 -25.5q0 -17 8 -31t7 -30q6 -4 10.5 -8.5t9.5 -8.5q3 2 4 13.5t1 25.5t-1 26.5t-1 16.5q0 7 1.5 11.5t2.5 8.5t-0.5 7.5t-7.5 9.5zM142 388q0 -12 9 -26l14 -7q1 1 3.5 13t4.5 29.5t3.5 37t0.5 36.5t-5.5 28.5
t-12.5 11.5q-10 0 -13.5 -8.5t-3.5 -19.5t2 -22t2 -17q0 -14 -2 -28t-2 -28zM190 607q5 0 7.5 -10.5t3.5 -23.5t0.5 -25t-0.5 -16q13 -13 26 -18t23 -11t16.5 -16.5t6.5 -34.5q0 -20 -8.5 -36t-29.5 -21q-22 13 -24.5 22t5.5 30q10 7 15.5 9.5t5 7t-8 13t-22.5 26.5l-9 -14
l2 -139q21 -18 44 -33t43 -35q2 -10 6 -22t4 -21q0 -16 -5 -38.5t-15.5 -42.5t-26 -33t-36.5 -10l-13 -15q3 -12 5 -24t2 -25q0 -8 -4 -13t-9.5 -6.5t-11.5 1t-10 11.5q1 13 2.5 25.5t1.5 25.5l-18 13q-8 1 -12 -4.5t-4 -13.5q0 -9 2.5 -18t2.5 -18q0 -11 -6.5 -17.5
t-14.5 -11.5q-4 4 -8 12.5t-4 13.5q0 9 1 18.5t2 18.5l-4 16q-7 3 -20 9t-18 1q-23 21 -35 44t-12 54q0 18 8 31.5t22 24.5q29 -4 36 -13.5t8 -37.5l-8.5 -8.5t-5 -4t-6.5 -3t-13 -4.5q-2 -26 11 -40t37 -24q2 14 2.5 29t0.5 29q0 29 -0.5 59t-0.5 59q-16 8 -32 22.5
t-28.5 31.5t-20.5 36.5t-8 37.5q0 35 20.5 59t52.5 33q3 5 8 13t5 14q0 9 -3 18t-3 19q7 7 10 11t5.5 4.5t5.5 -2t11 -6.5q2 -19 1.5 -38t9.5 -36q12 3 16.5 12.5t5.5 21t0 23.5t-1 20q2 1 8 2.5t8 1.5z" />
    <glyph glyph-name="percent" unicode="%" horiz-adv-x="362" 
d="M283 352l-3 -3v-7l6 1zM158 396q-4 2 -10 2h-11q-6 0 -18 -12t-24 -27.5t-20.5 -30.5t-7.5 -21q1 -5 2.5 -10t3.5 -9q4 -5 13.5 -4t15.5 3q8 2 20.5 12.5t17.5 16.5q4 4 4.5 9.5t0 12t-0.5 13t4 14.5q2 3 10 12t7 11q-1 3 -4 3.5t-3 4.5zM233 143q-1 -7 -2.5 -12.5
t-2.5 -12.5q-1 -14 9 -16t20 0q11 1 23.5 12t24 26t19 30.5t8.5 25.5q1 19 -4 24t-23 0q-5 -1 -9.5 -1.5t-9.5 -2.5q-11 -5 -25.5 -20t-19.5 -26q-3 -6 -3.5 -14t-4.5 -13zM234 322q-11 -3 -20.5 -8t-20.5 -7q-4 -1 -12.5 0t-10.5 0q-5 -2 -10 -8.5t-10 -6.5
q-5 -5 -7.5 -10.5t-7.5 -10.5q-17 -18 -37 -19t-42 6q-15 12 -19 28.5t-1 33.5t11.5 34t18.5 29q5 5 8 10t9 8q8 3 7.5 3t4.5 5q6 -1 11.5 3t11 8.5t11 8t11.5 1.5t7 -1t6 3l10 -4t10 -1q1 -5 6 -9t7 -15q1 -4 1 -12v-16.5v-15.5t2 -9q3 -4 6 -3t7 2q13 3 18 4.5t7 3t4.5 4
t12.5 7.5q7 4 14 5t14 5q4 -2 5.5 3t3.5 7q5 5 11.5 8t11.5 9q3 4 5.5 8t5.5 8q8 2 14.5 8t14.5 9q9 -2 11 -13q1 -13 -13 -23t-22 -18q-11 -9 -16.5 -21.5t-14.5 -23.5q-5 -6 -11.5 -10t-11.5 -9q-14 -14 -26 -29.5t-25 -30.5q-32 -38 -65.5 -76t-66.5 -76q-3 -4 -6.5 -6.5
t-6.5 -7.5q-5 -5 -8.5 -12t-8.5 -13q-2 -3 -6.5 -7.5t-9.5 -2.5q-6 -2 -8 -2.5t-3 0t-2.5 2t-7.5 4.5q-6 -3 -11.5 0.5t-5.5 10.5q0 9 10.5 15.5t16.5 11.5q5 4 9 8.5t9 9.5q8 1 13 6l10 10q5 11 18.5 22.5t22.5 20.5q14 14 25.5 30t24.5 30q19 22 40 40.5t36 43.5zM199 162
q2 10 8 22.5t14.5 24t18.5 20.5t20 12q3 1 6 1t5 1q5 2 8 6.5t9 4.5q8 -1 14 0.5t13 1.5q20 0 30.5 -16t9.5 -34q-2 -26 -12.5 -49.5t-26 -42t-33.5 -30t-35 -12.5t-30.5 10t-18.5 38q-2 11 1 21t-1 21z" />
    <glyph glyph-name="ampersand" unicode="&#x26;" horiz-adv-x="614" 
d="M91 104v-8l5 2zM411 -49q-2 -3 -2 -6.5t-1 -6.5q2 7 6 11zM416 229v-8l6 2zM179 220q0 -3 0.5 -5.5t1.5 -5.5l6 7zM313 40q-14 18 -31 35t-34.5 33.5t-33 34t-27.5 38.5q-7 11 -12.5 26.5t-19.5 20.5q-10 -10 -18 -20.5t-19 -19.5q-4 -17 -11.5 -31t-7.5 -31
q20 -33 48.5 -68t60.5 -57q10 0 22 0.5t20 9.5q16 8 31.5 15.5t32.5 13.5h-1zM405 154q0 24 -20 41.5t-43 17.5q-8 0 -16.5 -4.5t-16.5 -11.5t-14.5 -15t-9.5 -14q17 -21 39 -37.5t34 -40.5l23 -6l-23 6l23 -6q8 14 16 33.5t8 36.5zM280 365q0 17 -13 26.5t-27 16.5h1
q-13 -8 -23.5 -11.5t-18 -8.5t-11.5 -14t-4 -28q0 -5 0.5 -14.5t2 -19.5t5 -17t10.5 -7q4 0 17 10.5t26.5 24t24 26t10.5 16.5zM446 187q0 -33 -14.5 -66t-35.5 -59q1 -10 9 -18t17.5 -16.5t17 -18.5t7.5 -25q0 -11 -6 -36.5t-15.5 -52.5t-21.5 -47.5t-24 -21.5q1 1 0.5 1
t-8.5 8q4 20 14 38.5t10 39.5q0 16 -6.5 30t-16.5 26t-20.5 24t-19.5 24q-13 -9 -30 -17.5t-34.5 -15t-35 -12.5t-32.5 -11l-54 10q-25 11 -43.5 35t-31.5 47q-15 27 -26 59q2 13 3.5 25.5t7.5 24.5q2 4 13.5 17t26 29t28 30t18.5 20q-10 22 -10 43q0 34 7.5 53.5t21 31.5
t33.5 21.5t45 24.5q5 -5 9.5 -3t12.5 2q13 0 24.5 -5.5t20 -14.5t12.5 -21t3 -24q-8 -6 -26 -20.5t-37 -31t-34 -31.5t-15 -23q9 -5 16 -15.5t13 -21.5t12 -21t14 -13q14 7 19.5 15.5t10 16.5t12 16t26.5 14q3 1 11.5 3.5t10.5 2.5q17 0 42 -1.5t39 -7.5q21 2 29.5 2
t13.5 -1t10.5 -2t20.5 -1q8 0 17.5 1t16.5 7q12 3 28.5 13.5t16.5 24.5q0 7 -4 11.5t-8.5 8.5t-8.5 8.5t-4 10.5q4 6 5 8.5t5 4t12 4t25 7.5l13 -27q0 -23 -9 -42t-23.5 -35t-32.5 -29.5t-36 -24.5l-23 10q-30 -2 -42.5 -1t-15 0.5t0.5 -4.5t3 -15z" />
    <glyph glyph-name="quotesingle" unicode="'" horiz-adv-x="108" 
d="M81 524h1q8 5 8.5 6t-6.5 9zM78 601q8 -5 9.5 -5t9.5 5q13 0 18 -8t5 -19q0 -18 -2 -36t0 -35v-1q-2 -3 -3.5 -3.5t-1.5 -3.5t1.5 -9t3.5 -19q-3 -4 -11 -7t-13 -3q-7 0 -13.5 1.5t-20.5 0.5q-3 8 -6 21.5t-3 12.5v21t1.5 35.5t4 33.5t8.5 16z" />
    <glyph glyph-name="parenleft" unicode="(" horiz-adv-x="121" 
d="M37 116l3 -7l-4 -11q10 4 10 6t-4 13zM43 257l-3 -3l5 -3zM119 450q-8 -12 -17 -30t-16.5 -37.5t-12 -38.5t-4.5 -33q1 -35 -4 -70t-5 -70q0 -43 7.5 -86.5t14.5 -85.5q2 -13 10.5 -29.5t19.5 -24.5q5 -11 3 -12t-10 -9q-18 2 -32 20t-25.5 43.5t-19 55.5t-12 56.5
t-5.5 45.5t1 23q3 14 2.5 29.5t-0.5 30.5q3 5 5.5 14.5t4.5 20t3.5 21t3.5 17.5l8 30t8 29q3 10 8.5 25t14 30t19 28t22.5 19z" />
    <glyph glyph-name="parenright" unicode=")" horiz-adv-x="228" 
d="M88 387q-1 7 -6 12t-10 9.5t-9.5 9.5t-4.5 12q0 2 2.5 7l3.5 7q8 -2 13.5 -3.5t12.5 -6.5q6 2 11 -3.5t8 -7.5q27 -20 47 -53.5t33 -71t19.5 -75t6.5 -65.5q0 -26 -13.5 -65t-34.5 -77.5t-47.5 -69t-52.5 -38.5l-15 7.5t-1 6.5q22 22 42.5 51.5t35.5 62.5t22 67t0 67
l3 40q-4 46 -19 93t-47 84z" />
    <glyph glyph-name="asterisk" unicode="*" horiz-adv-x="144" 
d="M157 558l-12 -6q-6 5 -12.5 11.5t-14.5 4.5l25 -30l-11 -11q-5 3 -9 9.5t-6.5 12.5t-5 9t-4.5 -1q4 -8 5.5 -16.5t2.5 -16.5q-7 -10 -7.5 -10.5t-4.5 -0.5q-7 5 -7 18q0 6 2 12.5t0 11.5q-2 6 -4 2.5t-4 -11t-5.5 -15.5t-9.5 -10l-9 11q2 3 6 7.5t7.5 9.5t5 9.5t-1.5 6.5
q-10 -6 -17.5 -14t-15.5 -16l-9 11h1q1 6 6 10t11 7l11 5.5t5 6.5q-8 -2 -15 -6.5t-15 -4.5q-5 0 -11 2.5t-6 8.5l12 10l14 -4q15 3 16 3.5t0 0.5v3t-2 1t-8 0.5t-19 0.5l-12 11l6 11h1q11 0 19 -6.5t17 -11.5q4 4 0 7.5t-10.5 6.5t-13 7.5t-6.5 10.5l9 10q1 -1 5.5 -6
t9 -11t8.5 -9.5t5 -1.5q0 10 -4.5 18.5t-4.5 18.5l9.5 9.5t7.5 -7.5q2 -8 1.5 -17t0.5 -18q8 5 9.5 15t3.5 19l8 8q7 -11 7.5 -16t-2 -8t-6 -6.5t-3.5 -12.5l3 -4q1 2 6.5 8.5t11.5 11.5t11 5.5t5 -9.5q0 -11 -9.5 -14.5t-14.5 -11.5q1 0 2.5 -0.5t2.5 -0.5q6 0 11 2
t9.5 3.5t8.5 0.5t7 -8q-1 -7 -7.5 -9t-11.5 -2q-14 2 -14.5 2.5t-2.5 -4.5q8 -2 17 -6t14 -9z" />
    <glyph glyph-name="plus" unicode="+" horiz-adv-x="278" 
d="M146 93q3 -3 3.5 -3t0.5 5zM90 179l4.5 -4.5t0.5 4.5h-5zM142 163l7 -5l-2 11zM267 144q-13 -8 -17.5 -9t-6 -0.5t-4 1t-11.5 -3.5q-10 5 -22.5 7t-23.5 -2q-1 -23 2.5 -46t1.5 -46q-10 -2 -18.5 -3t-19.5 -1q-6 0 -14 1t-13 7q0 7 0.5 20t1 27t-0.5 25.5t-5 16.5
q-12 0 -15 -2.5t-13 2.5q-11 0 -24.5 -3.5t-22.5 -3.5q-7 0 -9.5 6.5t-3 15.5t0 17.5t0.5 12.5q4 9 5.5 13.5t4.5 6.5t8 2.5t16 0.5q8 0 13.5 -2t13.5 -2q4 0 15.5 -1t14.5 -2q0 3 -0.5 9t-1.5 12t-2.5 11.5t-2.5 6.5q0 13 -0.5 25.5t1.5 25.5l11 8q14 -8 23 -5.5t23 2.5
q4 0 7 -4.5t4 -10t1.5 -11.5t0.5 -9q0 -7 -1.5 -15.5t-2.5 -17t-0.5 -16.5t4.5 -12q17 1 34 4t34 4q6 -4 8.5 -5t3.5 -6t1 -16t1 -35z" />
    <glyph glyph-name="comma" unicode="," horiz-adv-x="110" 
d="M70 95v-7l-10 6zM95 67q0 -6 -5 -16.5t-13.5 -20.5t-20 -17.5t-24.5 -7.5h-11.5t-2.5 5q12 5 22.5 10.5t21.5 12.5q-3 3 -11 6t-13 6q-6 4 -11 11t-5 19q0 4 2 10.5t6.5 12.5t10.5 10t15 4q11 0 18.5 -5t12 -12t6.5 -15t2 -13z" />
    <glyph glyph-name="hyphen" unicode="-" horiz-adv-x="216" 
d="M77 228l-5 -5q3 -4 3.5 -4t6.5 2zM162 227q-3 5 -3.5 5t-14.5 -2l-12 -9l5 -9q9 2 10 2.5t5 11.5v-1q3 0 5.5 1t4.5 1zM187 203q0 -13 -5.5 -18t-16.5 -9q-7 6 -15 6.5t-17 0t-18 -1.5t-17 2q-3 -1 -10 -2t-15 -2t-14.5 -2.5t-7.5 -2.5h-1q-11 6 -14.5 25t-5.5 31v9
t1.5 12t4 10.5t7.5 4.5q8 -4 8.5 -4t9.5 4q9 -5 15.5 -6.5t15.5 4.5q12 0 23.5 1t23.5 1q9 -5 15 -2.5t14 2.5q7 0 10.5 -5t5.5 -10q-4 -12 -0.5 -24t3.5 -24z" />
    <glyph glyph-name="period" unicode="." horiz-adv-x="106" 
d="M115 27q-2 -9 -9 -12t-17 -3q-14 0 -18.5 10.5t-4.5 22.5q0 11 0.5 24t6.5 24q9 5 14 6t9 -0.5t8 -5t12 -7.5v-59h-1z" />
    <glyph glyph-name="slash" unicode="/" horiz-adv-x="335" 
d="M199 266q-2 -11 -5.5 -17t-7.5 -11.5t-7.5 -12t-4.5 -18.5q-3 -3 -11 -20t-17 -36.5t-16.5 -37.5t-10.5 -24q-5 -3 -12 -18.5t-15 -33.5t-15.5 -33t-12.5 -18q-2 -8 -12.5 -10t-18.5 -2q-5 6 -8.5 12.5t-2.5 15.5q9 11 18 23t11 26q7 5 10 16t7 19t11 18.5t14 22t11.5 22
t3.5 19.5q3 4 7.5 10.5t9 14t8 14t4.5 11.5l7 11t15 24t13.5 24.5t4.5 13.5q17 27 29.5 58t25 61.5t26 60t33.5 54.5q7 3 10.5 5t6.5 2t6.5 -1.5l10.5 -4.5l6 -12q-4 -4 -6 -15q-7 -7 -18 -26.5t-24.5 -44.5t-27.5 -53t-25.5 -52t-20 -40t-10.5 -17z" />
    <glyph glyph-name="zero" unicode="0" horiz-adv-x="455" 
d="M97 230l1 -5q8 0 8.5 1t-3.5 6zM109 291l-4 -10l5 -5q8 5 9 5.5t0 9.5h-10zM347 231q0 18 -4.5 42t-15 45t-27 35.5t-40.5 13.5q-1 2 -4 1.5t-7 -0.5t-7.5 0.5t-6.5 4.5q-18 -5 -35 -11t-30.5 -16t-21.5 -25t-8 -37q0 -32 2.5 -61.5t13 -52.5t32.5 -37t61 -14
q43 0 67 22.5t24 66.5q0 6 3.5 11t3.5 12zM91 261q0 -5 3 -9t5 -4.5t1 2.5t-9 12v-1zM99 261q8 3 8.5 3.5t-4.5 2.5zM445 211q-11 -12 -12.5 -29t-9.5 -30q-12 -20 -28.5 -35t-36.5 -25.5t-42 -16t-44 -5.5q-32 0 -55 1.5t-43.5 6t-41 12.5t-47.5 22q-11 22 -22 30.5
t-19 16.5t-13 24t-5 54q0 11 0.5 23t2.5 24q9 10 15 22t11.5 24.5t12 24t16.5 20.5q7 7 13.5 8t8.5 12q14 8 30 12.5t29 12.5l20 -1q9 -4 14 -4t9 1t7.5 2.5t8.5 0.5q3 -4 20 -3.5t41 -1.5t51 -9.5t50 -27.5q1 -11 9.5 -19.5t18 -19t17.5 -25.5t9 -39q8 -12 7.5 -30.5
t-2.5 -32.5z" />
    <glyph glyph-name="one" unicode="1" horiz-adv-x="217" 
d="M68 72q0 46 -5.5 91t-4.5 91q1 5 1 21.5t0.5 35.5t1 35.5t2.5 21.5q-6 8 -8 10.5t-3 2l-4 -2t-10 -1.5q-5 0 -7.5 5t-4 12t-1.5 14v10q0 15 3 20.5t8.5 7.5t13 2.5t17.5 3.5q8 -3 9 -3t8 4q29 -8 45 -8t23.5 0.5t9.5 -1.5t2.5 -14.5t1.5 -38.5t7 -72h-1q-1 -18 -1.5 -25
t-1 -17t0 -27.5t0.5 -56.5l1 -128q3 -3 9.5 -2.5t12.5 -0.5t10 -4.5t4 -13.5q0 -17 -0.5 -25t-1 -11.5t-1.5 -5l-3 -4.5h-48q-9 0 -18 1t-18 4q-2 -3 -10.5 -4.5t-19 -2t-20.5 -1t-14 -0.5q-7 0 -10.5 6t-7.5 11q0 14 1 26.5t3 26.5q9 -2 12.5 -2.5t6 0t4 2.5t6.5 7zM91 44
l14 5l-20 4zM107 106l-5 -10l8 -8q0 -2 0.5 -3.5t0.5 -3.5q0 -7 -4.5 -11.5t-9.5 -8.5l15 -8l11 31q-8 4 -8.5 4.5t-0.5 5.5zM154 51l-6 4l-4 -13zM164 42q-3 -5 -2.5 -5t5.5 2zM91 153q10 -4 15.5 -8.5t7.5 -5.5t0.5 2.5t-5.5 16.5l-15 2zM96 167l11 5l5 -6l4 6q0 6 -1 7
t-16 11zM147 153h-6.5t3.5 -5zM90 208q13 -6 13.5 -6t0.5 5zM138 162q-2 3 -2.5 8t-2.5 8q-3 5 -5.5 2.5t-4.5 -5.5zM135 190q2 -4 3 -8t3 -8q5 3 5.5 3.5t2.5 11.5zM84 246q8 -11 8.5 -11.5t-0.5 10.5zM138 197l10 -6q-3 11 -3.5 11.5t-5.5 3.5zM113 240l-5 -26q5 5 7.5 7
t3.5 4t0.5 5t-0.5 9zM96 252h9.5t-7.5 8zM95 277l5 -6l2 11zM138 214q3 3 5 4.5t2.5 3.5t0 5.5t-0.5 11.5l-5 7q3 3 3.5 9.5t-1 14t-3.5 14t-5 8.5q-2 -6 -2 -9q0 -5 2 -14.5t0 -20.5q2 -9 2.5 -17.5t1.5 -16.5zM120 320q0 -8 0.5 -8t6.5 3zM98 309q11 5 11 6t-2 10l4 12
l4 12q-2 5 -6.5 11.5t-10.5 6.5q3 -4 -2.5 -7t-1.5 -5l10 -5l-9 -8l-5 -20l10 -1zM133 325q7 -8 8.5 -11t1 -1t-2 7.5t-0.5 14.5zM95 378l6 5l-8 2zM142 375l-6 7l-4 -5l8 -26zM114 399l12 -13h1q2 8 2 9.5t-9 9.5z" />
    <glyph glyph-name="two" unicode="2" horiz-adv-x="584" 
d="M499 314l-2 -7q10 -3 10.5 -5.5t0.5 9.5zM447 372l3 -4l5 8v-10q8 5 5 7.5t-10 4.5zM142 330l-5 -4v-8l9 1zM48 273q-2 -4 1 -7q2 4 -1 7zM50 353q-1 -3 4 -5t5 0zM365 211q-5 -1 -5 -2v-3q5 3 4 5h1zM423 281q-5 3 -11.5 2t-10.5 -3.5t-3 -4.5t10 0l4 -2q-2 7 3.5 5
t7.5 3zM412 313l-3 -3l1 -1q11 5 11 5.5t-9 -1.5zM434 326q-2 3 -3.5 1.5t-1.5 -3.5t1 -3.5t4 0.5q1 2 0 5zM8 86q4 7 5 14t1 13.5t0.5 13.5t4.5 16q34 25 68.5 36t70 17t72 10t74.5 15q4 5 8 4t9 -2q1 2 8.5 5.5t15.5 7t16 6t11 3.5q2 4 5.5 9t1.5 10q5 -2 8.5 4t6 14.5
l5 17t5.5 11.5q1 9 -5.5 9t-6.5 8v15.5t-8 9.5q3 10 5.5 14t2.5 6t-2.5 4.5l-8.5 8.5q-9 0 -18 2t-18 2q-6 1 -11 -0.5t-11 -1.5q-11 1 -18.5 3.5t-18.5 2.5q-6 0 -18 -0.5t-25 -2t-24.5 -3.5t-15.5 -5q-9 -2 -17.5 -3t-16.5 -6q-4 -2 -8.5 -9.5t-8.5 -11.5q2 -11 6.5 -16
t10 -8t10.5 -5.5t7 -6.5q13 -23 2 -42t-32 -31t-47 -15.5t-43 5.5q-2 1 -5.5 2.5t-6.5 4t-4.5 5t0.5 5.5q-9 0 -15.5 7.5t-9.5 16.5t-3.5 18t2.5 12q-5 4 -2.5 15t3.5 16q15 35 51.5 57t81.5 33q12 3 20 8.5t21 7.5q9 -2 23 -0.5t25 2.5q17 1 31.5 2.5t29.5 1.5q6 -3 14 -5
t13 2q5 3 11.5 3h12.5q5 0 10.5 -3t10.5 -3q13 -2 25.5 -1.5t24.5 -2.5q26 -5 51.5 -19t34.5 -34q6 -5 12.5 -8t10.5 -10q9 -14 14 -31q4 -13 1.5 -27t-9 -27t-16 -24t-19.5 -18q-29 -21 -68.5 -33.5t-83 -20.5t-86 -13.5t-76.5 -11.5q-12 -2 -26.5 -7t-25.5 -5
q-7 0 -10 0.5t-4.5 0t-3 -2t-5.5 -6.5q12 -2 35.5 -1.5t46.5 3.5q14 -1 37.5 0.5t39.5 1.5q16 -5 35 -0.5t37 4.5q8 3 14 2t11 -3t11 -3.5t14 -1.5q8 -3 18.5 1.5t17.5 4.5q21 1 34.5 -2.5t18.5 -1.5q10 6 9.5 22.5t-4.5 25.5q-8 2 -12 6q-2 8 6 10q4 1 15 2.5t23 1.5
t22 -1.5t13 -6.5q2 -3 0 -6t-2 -7q-2 -11 -3.5 -20.5t-0.5 -20.5q1 -4 3 -14.5t4 -22t3 -21t1 -10.5q0 -2 -3.5 -4t-5.5 -2l-65 3l-57 -7q-35 1 -51 2t-26.5 1t-22.5 -1t-39 -2q-12 2 -20.5 4t-15.5 3t-14 -0.5t-16 -6.5l-50 4q-27 -6 -38 -7.5t-17 -1t-13.5 1.5t-26.5 1
h-18.5t-23.5 1t-22.5 4t-14.5 10zM538 151l-2 -4h-1q2 4 1.5 4t1.5 0zM537 169q-2 0 -1.5 0.5t-0.5 7.5q2 0 1.5 -0.5t0.5 -7.5z" />
    <glyph glyph-name="three" unicode="3" horiz-adv-x="201" 
d="M151 34v-7l8 1zM151 109l-2 -4l12 -5zM185 40q-4 -25 -7 -48t-9 -44.5t-17.5 -41.5t-30.5 -39q-2 1 -2 2t-2.5 0.5t-8.5 -3l-18 -7.5q-10 9 -19 16t-15.5 14t-11.5 17t-6 25q-9 11 -10.5 25.5t-1.5 28.5v21t2 28t7 24t16 10t22 -6t11 -18q0 -15 -4.5 -29t-4.5 -29
q0 -9 0.5 -20t3 -21t7.5 -18t15 -12q7 -2 12 12t9 34.5t6 43t2 39.5q0 8 -1.5 25t-4 35t-6.5 33t-10 21q-3 3 -9.5 7t-12.5 8.5t-10 9.5t-3 11q-1 3 -2 6.5t-1 6.5q0 9 5.5 17.5t13 16.5t14.5 17.5t10 20.5q6 25 9 51t3 52q0 11 -3 21.5t-3 21.5q0 8 3 16q-2 8 -6.5 15.5
t-12.5 10.5q-8 -1 -13.5 -9t-8.5 -18t-4 -20.5t-1 -17.5q0 -14 4.5 -28.5t3.5 -28.5v-13t-5 -6q-17 2 -29 -5l-19 20l2 12q4 22 5.5 47.5t6.5 48.5t17.5 42t38.5 28q38 -17 55 -48.5t19 -71.5v-69q-5 -19 -7.5 -34.5t-6 -30t-11.5 -27.5t-25 -28l2 -5q29 -9 38.5 -31.5
t10.5 -48t0.5 -49.5t8.5 -36z" />
    <glyph glyph-name="four" unicode="4" horiz-adv-x="388" 
d="M366 119q-14 4 -18.5 2.5t-16.5 -1.5q-4 0 -12.5 2t-11.5 -1l-3 -45l8 -13q10 -2 19 -1t18 1l15 -7v-11t-3 -10q-2 1 -15 2t-29 1.5t-29.5 1.5t-17.5 1q-13 2 -25.5 1t-25.5 -1q-12 0 -24 3l-5 -5q-8 2 -16.5 -1t-18.5 -4l-7 8l-1.5 6t0 4t2.5 5l6 9l20 -6
q17 5 21.5 10.5t4.5 25.5v13.5t-6 10.5q-16 -3 -32 -3.5t-30 -5.5q-9 3 -13.5 4t-8 0t-7.5 -2t-11 -1h-14.5t-11.5 5l-1 -1q-15 -5 -28 -5q-6 0 -11 3.5t-5 9.5q0 5 15 25.5t38 48.5t51 60t54 61t46 50.5t28 29.5q8 -3 17.5 -0.5t19.5 2.5l15 -12q2 -15 3 -30t1 -30
q0 -42 -3.5 -83t-3.5 -83q0 -8 3 -17l14 -7q11 1 22 3t22 2q11 -11 11.5 -12.5t-9.5 -12.5zM241 86l-5 -3l1 -14l8 -1l3 15zM243 122l-9 1q1 -3 1 -10q0 -5 -0.5 -9t-2.5 -9q6 1 8 6.5t5 10.5zM247 103l-2 -5l5 -2zM204 289q-1 15 -1.5 15.5t-15.5 -4.5q-6 -11 -26.5 -35
t-43 -49t-40 -46t-17.5 -26q0 -8 7 -9t15 -1q20 0 39 3.5t39 3.5q7 0 13.5 -2.5t13.5 -2.5q1 0 5 1.5t5 1.5l-1 116q0 9 4 17t4 17zM229 135l-3 -9l10 5zM257 112l-2 -7h8zM277 98l-3 -5h5zM245 165h-10l-6 -11q4 -5 4 -5.5t4 3.5l4 -2q-1 -5 -1 -7.5v-8.5l10 8zM276 140
q-8 1 -8.5 0.5t0.5 -9.5zM248 249q-13 -3 -21 -10q11 -12 11.5 -13t-0.5 -1q-2 -9 -3 -19.5t-9 -16.5l7 -3l1 -12l12 -3l2 6q-3 5 -4.5 14.5t-1.5 19.5t2 19.5t6 14.5zM276 179q-5 -2 -4.5 -2t6.5 -5zM266 221q2 5 1.5 5t-3.5 -2zM234 256q10 -2 10.5 -1.5t-1.5 14.5z
M277 239l-8 3l3 -8zM276 254h-5l7 -11zM254 282l-5 -5q2 -5 2.5 -5t5.5 5zM246 292q-5 2 -5.5 1.5t1.5 -6.5zM273 276q-2 -5 -3.5 -11t8.5 -4zM234 323q-6 -13 -6.5 -13.5t-7.5 -3.5v-4q20 -3 21 19zM247 314q-2 -10 5 -8q4 1 8 4zM278 286q-6 11 -6 11.5t-3 -15.5zM244 343
l-7 -12l5 -1l7 13h-5zM265 346l-6 -2q8 -10 9 -10.5t6 1.5z" />
    <glyph glyph-name="five" unicode="5" horiz-adv-x="534" 
d="M68 77q-3 1 -6.5 1h-6.5h-3v-7q10 -4 13 -5t3 -0.5t-1 3.5t1 8zM95 49l6 -6q3 7 2.5 7.5t-7.5 2.5zM74 80q3 -8 4.5 -8.5t1.5 1.5q0 3 -1 9zM112 82q-5 -2 -10 -2h-10q11 -5 12.5 -5.5t7.5 7.5zM127 49l17 9h-1l-3 3zM123 76q13 -2 13.5 -1.5t-6.5 8.5zM202 56q2 -3 4 -3
t0 5zM278 -2l-4 -4l5 -1zM100 188l1 1q-5 0 -8.5 -0.5t-7.5 -1.5l-10 8l-7 -4l10 -11l3 4l7 -5l12 4v5zM109 169l10 -1l5 7zM108 202l1 9l-6 -8zM285 31l-4 -3l8 -6zM104 221h-7v-9l7 1v8zM69 248q3 -10 3.5 -11t-1.5 -7l11 -6q1 10 -1.5 17.5t8.5 18.5zM306 50h-5l3 -7l5 3
zM339 32l-11 -2q0 -3 0.5 -5.5t-0.5 -5.5l12 13h-1zM109 248q-2 2 -4 3t-4 3l2 -4zM131 242l-14 5l-2 -13l4 -6l12 8v6zM317 61q-2 -6 -2 -11q0 -3 2 -9q7 7 8.5 12t-8.5 8zM102 262q6 -5 6.5 -5t-0.5 13l-6 -9v1zM75 291l5 -2l-3 5zM102 288l-11 2l1 -3l11 -6zM357 47
q0 10 -9 13l2 -14zM120 289h-1q-1 -3 -2.5 -6.5t-2 -5.5t2 -1.5t8.5 5.5zM107 319q-6 -1 -12 -6t-6 -12l2 -3q1 1 3.5 4t2.5 4q8 -1 8 -0.5t4 8.5zM110 303l-2 -5l4 -1zM361 78q-6 -4 -6.5 -4.5t-3.5 1.5l-1 9q-4 -2 -5 -5.5t-2 -7.5l1 -6q9 5 10 5t6 -2l4 4q-1 0 -2 2.5
t-1 3.5zM373 62l-5 -7q5 -2 10 -3.5t7 3.5zM370 90l-5 -8l5 -9q5 2 5.5 2.5t0.5 8.5zM137 309q2 -6 2.5 -6t3.5 3zM286 163l6 3l-10 2zM403 70l-7 -9v-5l12 6l5 -11q3 2 3.5 2.5t-1.5 9.5zM160 308q-8 2 -8 1.5v-8.5l6 1zM368 111l-7 -6q0 -1 1.5 -1.5t3.5 -2.5t4 -3h6.5
t0.5 5zM428 59l-2 -6h7.5t0.5 5zM376 125v1l-16 -4v-5h14l4 -4zM334 150l7 -4q5 5 5.5 5t-6.5 2zM418 86l-5 -5l5 -5q5 2 5.5 1.5t0.5 4.5zM369 132q-3 5 -6.5 8.5l-7.5 7.5l-3 -2l4 -12zM368 153l2 -6l10 7zM361 169q-1 -6 -0.5 -6.5t8.5 2.5q-6 2 -8 4zM235 293l-1 -5h5.5
t0.5 5h-5zM390 135l7 -2l8 5l2 5l-9 5zM392 173h-6v-7h6v7zM255 311l-6 -3l-9 3v-1l-3 -7l4 -3l9 6q3 -2 4 -2.5t11 0.5zM277 293l5 -3l2 9zM320 286v-12q5 0 5 0.5v7.5zM313 315l-2 -18q4 2 3 2t-1 5q0 3 2 11h-2zM349 301q0 5 -4.5 6.5t-8.5 3.5v-6l10 -6zM366 293l3 -4
q7 2 7 2.5t-5 5.5zM412 308q2 -5 2.5 -5.5t2.5 4.5zM28 201q2 9 3.5 34.5t4.5 53t8.5 48.5t16.5 21q2 0 7 -1.5t7 -2.5q5 6 13 6q12 0 28 -4t27 3q4 -2 13.5 -2.5t20 0t20.5 1.5t14 2q37 -6 68 -3t68 3q8 -4 19 -4t22.5 1t23 2.5t20.5 1.5q17 -5 32 -3.5t33 -3.5
q3 -28 3.5 -55.5t1.5 -55.5l-16 -15q-20 2 -29.5 3t-13.5 1t-4.5 -1t-3.5 -4q-29 6 -43.5 7.5t-31.5 1t-44 -2t-82 -1.5q-17 0 -34 -0.5t-34 -0.5q-5 -14 -6.5 -19.5t2.5 -17.5q20 0 38 5t37 7q5 -5 5.5 -5t2.5 5q27 0 54.5 -4.5t53.5 3.5q4 -2 15 -3t23.5 -1.5t25.5 -1.5
t21 -4q33 -13 53 -43.5t20 -65.5q0 -42 -27 -73.5t-65 -45.5q1 0 1 -1q-1 0 -2 1h1q-6 1 -23.5 0.5t-36.5 -2t-36 -3t-21 -1.5v1q-10 -5 -24 -5q-5 0 -11 0.5t-12 1.5l-14 2q-26 -3 -58.5 -1.5t-58.5 -3.5q-20 -3 -38.5 10t-32 33.5t-21.5 44.5t-8 42q0 9 10 13t23 5.5
t26 1.5h19q15 0 30.5 3t29.5 0q9 -16 27 -24q5 2 14.5 2.5t15.5 0.5q12 0 26.5 -2.5t28.5 -2.5t26 5t19 20l-4 19q-3 2 -9 4.5t-12.5 4l-13 3t-10.5 2.5q-8 -5 -18.5 -4.5t-22.5 2.5t-23.5 2.5t-21.5 -5.5q-32 -1 -62 1.5t-62 2.5q-7 0 -16 -1t-17 4q-3 6 -3 13t1.5 15
t2.5 16t0 14z" />
    <glyph glyph-name="six" unicode="6" horiz-adv-x="295" 
d="M72 156l-7 3l-3 -9q4 -3 6.5 -10t4.5 -12q14 10 14 10.5t-16 8.5zM60 163l15 6l-9 8l-9 -9zM66 192l-9 1v-11l8 9zM62 213l-2 -7l9 -2zM193 74q9 10 9.5 10.5t-7.5 7.5zM81 268l-6 -18l2 -7q7 2 8.5 11t-4.5 14zM223 137q-1 -5 -2.5 -9.5t-5.5 -8.5q6 -5 10.5 -2.5
t4.5 10.5zM200 141q0 14 0.5 27.5t-0.5 27.5l-3 55q-5 8 -9 15.5t-9 12.5t-12.5 7.5t-19.5 0.5q-9 0 -16 -6.5t-13 -11.5q-3 -11 -7 -21t-8 -21q5 -11 2.5 -16.5t-2.5 -16.5q5 -2 4 -11t-1 -14q0 -8 3.5 -22.5t7.5 -21.5q8 -5 15 -11t17 -6q8 0 15.5 2t13.5 7q8 0 12 9.5
t10 14.5zM228 178l-7 -7l12 -7l-3 -7q11 1 11.5 1.5t0.5 11.5zM53 339l10 -8q1 2 3.5 8.5t3.5 7.5zM224 212v-17q14 -4 14.5 -4t0.5 11zM58 371l4 -9q5 10 5 10.5t-5 3.5zM222 239l15 -6v5zM75 432q-2 1 -4.5 1t-4.5 1l1 -10zM77 456l-11 -10l4 -6l-1 -1zM75 476l3 -3l1 7z
M205 483q10 4 11 5t-4 5zM258 432v-16.5t-1 -16.5l-15 -5q-11 3 -16 4t-8.5 1t-7 -1t-12.5 -4q-11 7 -10 19t1 23q0 10 -0.5 16.5t-2.5 12t-5.5 11.5t-9.5 14l-23 9q-17 0 -25.5 -9.5t-12.5 -24t-4.5 -30t-1.5 -26.5l1 -1q-4 -10 -2.5 -14t6.5 -14q-3 -13 -3.5 -26t-4.5 -26
l6 -10q11 14 25 22t28 15q5 -1 20.5 -2t17.5 -5q29 0 44.5 -21t22 -50t7.5 -59.5t1 -50.5q0 -11 -1.5 -21.5t-8.5 -18.5q0 -28 -13.5 -44.5t-33 -25.5t-41.5 -12t-39 -3q-7 5 -15.5 6t-16.5 1q-24 15 -38 32t-21.5 36.5t-10 42.5t-3.5 49q-1 1 -1.5 0t-0.5 6.5v28.5v65
q3 6 4 14.5t1 17.5t-0.5 18t-0.5 16q0 19 1 42.5t5.5 47t13.5 44t26 32.5q8 6 15.5 8t15.5 5q5 2 9 3.5t8 3.5h10t17.5 -0.5t17.5 -0.5h10q8 -13 21 -16t25 -11t21 -29.5t9 -71.5z" />
    <glyph glyph-name="seven" unicode="7" horiz-adv-x="330" 
d="M309 419q-11 -17 -15.5 -36.5t-16.5 -35.5q-5 -46 -22 -88.5t-31 -86.5l1 1q-2 -7 -5.5 -25t-9 -41.5t-11.5 -49.5t-11 -48t-9.5 -37t-6.5 -17q-8 -9 -15.5 -8t-16.5 -4q-6 3 -10.5 8t-4.5 12q0 1 4.5 15t10.5 31t11 32.5t6 18.5q1 24 13 64t28.5 83.5t33 83.5t27.5 65
q-9 7 -24 5.5t-28 -1.5q-14 0 -27 -2t-27 -2q-21 0 -42 2.5t-43 1.5q-9 -10 -11 -22.5t-3 -25.5l-19 -7l-3 116l13 11l10 -3q1 1 1 1.5t1 1.5q0 1 1 1q17 -2 33.5 -5t32.5 -3q12 0 17 3t16 3q14 0 27.5 -3t27.5 -3q7 0 13.5 1.5t12.5 3.5q2 -1 12.5 -1.5t22 0t18.5 1t1 0.5
q0 3 5.5 2t8.5 0zM78 393l-7 1q2 -8 2 -9t11 -3l5 16zM125 380l-2 11l-8 -5zM166 391l-6 -8l5 -2l5 4z" />
    <glyph glyph-name="eight" unicode="8" horiz-adv-x="303" 
d="M72 414q4 9 3.5 10t-7.5 9zM287 439q-2 -33 -24.5 -56.5t-49.5 -37.5q42 -15 58 -45.5t16 -72.5q0 -36 -1.5 -57t-5.5 -32.5t-11.5 -17t-19.5 -10.5t-29.5 -13t-41.5 -25l1 -1q-11 0 -20.5 2t-20.5 2q-8 0 -11.5 -1t-5.5 -1.5t-6 0t-14 3.5q-14 17 -28 31t-25.5 29
t-18.5 33t-7 43q0 29 2 45t5.5 24.5t9.5 12.5t13.5 8.5t17 13t20.5 26.5q-29 17 -48.5 47.5t-19.5 65.5q0 23 8.5 47t24 43t36.5 31.5t46 13.5q4 3 5.5 4.5t4.5 2t9 0.5t19 -1q20 -1 38.5 -12t33.5 -28.5t24.5 -37.5t11.5 -39zM209 322l-5 1l-2 -8l7 -1v8zM86 131l2 -6
q8 0 9.5 0.5t-5.5 8.5zM86 151l4 -6v10zM68 170l2 -3q4 2 4 2.5t-2 5.5zM58 183q8 -1 8.5 -0.5t-1.5 5.5zM49 204q5 1 4.5 1t-2.5 3zM86 187l-1 -4l5 -2l2 3zM72 206q11 3 11.5 3.5t0.5 11.5l-5 -1zM49 225q17 0 16.5 2t-8.5 16zM78 237l3 2l-2 7zM65 266l-1 -4l-4 1v-6
q11 0 12 0.5t1 5.5zM218 132l-10 -6l1 -3h5.5t4.5 5zM211 155l-3 -4l8 -6v6zM69 285q7 -6 7.5 -6t-1.5 14zM231 133q6 6 6 7t-2 -0.5t-5 -3.5t-4 -3h5zM100 269q-2 -6 -2 -9l4 2zM227 173q-5 -1 -7 -7.5t-4 -10.5q14 0 15 1t4 13zM204 190q5 -3 4.5 -3t1.5 5zM84 310
q4 -5 4 -4.5t1 6.5zM220 215q4 -5 4 -13v-13q7 -2 7.5 -1t11.5 9l-9 1l-13 17h-1zM105 360v-6q5 -1 4.5 -0.5t1.5 5.5zM236 254q-4 3 -8 5t-6 7l-7 -12l8 -7q4 1 7.5 2t5.5 5zM57 426v-7l5 2zM62 482q-5 -10 -10 -15l5 -11v-7q5 -4 6 -3t1 7q0 7 2 17zM93 470q-10 2 -9 0.5
t5 -15.5zM64 491q7 1 7.5 1t2.5 4l-15 -1zM199 365l5 -2l4 7l-6 5zM214 395l-7 -7q9 -3 10 -3t9 3zM178 505q0 5 -2 15q-5 8 -13.5 10t-16.5 3l-23 -17v-63q0 -20 2 -40t19 -34v1q15 0 25.5 6.5t10.5 23.5q0 7 -3 13.5t-3 13.5q0 17 2 34t2 34zM228 427l-8 3l-12 -15h6
q6 -5 6 -5.5t2 7.5l7 5zM219 438l-4 -2l5 -3zM199 468l-1 -9q7 -2 7.5 -1.5t-1.5 10.5h-5zM245 432q-6 0 -6.5 -0.5t-2.5 -10.5l9 2v9zM225 441l5 -5l2 9zM217 466q-5 -8 -5.5 -9t1.5 -4l10 -1q2 6 2 6.5t-8 7.5zM259 433q-6 4 -6 3.5t-1 -8.5zM228 484l-5 -10l7 3zM240 483
l-8 -11q12 0 12 10zM228 506l-8 3q-7 -9 -7 -19l1 -5q4 -2 5 -1t9 16v6zM203 529q9 -8 9.5 -8t-5.5 14zM185 195q0 56 -15 109l-13 9q-16 0 -22.5 -8.5t-7.5 -20.5t1 -25t2 -23q0 -40 6 -79q7 -6 12 -15q14 0 25.5 8t11.5 24v21z" />
    <glyph glyph-name="nine" unicode="9" horiz-adv-x="451" 
d="M53 8q0 17 5 33.5t15 28.5t25 17.5t34 2.5l-1 1q13 -7 24 -12.5t19.5 -12t13 -17t4.5 -28.5q0 -24 -6 -46q5 -8 9.5 -8.5t12.5 -0.5q26 0 38 18.5t16 44t3 52t-1 43.5q-16 -1 -33 -7t-34.5 -10.5t-34.5 -5.5t-32 8v-1q-27 0 -46.5 13.5t-32 34t-18.5 45.5t-6 48
q0 54 32 85t80 45q2 1 8.5 2.5t13.5 3.5t13 3.5t7 2.5q19 -2 37 -1.5t36 0.5q39 0 72 -25t56.5 -62t37 -78.5t13.5 -75.5q0 -36 -11.5 -70.5t-32.5 -64t-50 -51.5t-63 -34q-9 -3 -23.5 -6t-29.5 -5t-30 -3t-25 0q-26 2 -43 9.5t-29.5 20t-22.5 28.5t-20 35zM252 287
q0 20 -6.5 36t-27.5 23l-12 -3q-18 -15 -21.5 -38.5t-3.5 -44.5v-28.5t3 -27.5t10 -24.5t21 -19.5q32 6 38.5 36.5t-1.5 90.5zM283 195q-17 -21 -20.5 -28.5t-6 -10t-10.5 -4t-35 -10.5q-32 11 -44 35t-12 56q0 3 0.5 11t1.5 18t1.5 18t0.5 11q0 10 2.5 22.5t8.5 23t15 17.5
t21 7q8 0 15 1.5t14 1.5q19 0 28.5 -22t14 -50.5t5 -56.5t0.5 -40zM410 123q0 14 -2 38.5t-7 49.5t-13.5 46t-20.5 29q-21 54 -69 75q-34 16 -73.5 14t-77.5 -10l-18 -4q-27 -21 -43 -35t-24 -28.5t-9.5 -33t0.5 -49.5q1 -22 12 -39t28 -28.5t37 -17.5t39 -6q3 0 9.5 0.5
t13.5 1t13.5 1.5t8.5 2q3 1 11 4.5t16.5 7t16 6.5t8.5 3q17 0 20.5 -14.5t3.5 -27.5q0 -20 -1 -47.5t-7.5 -52t-21 -42.5t-42.5 -19l-5 5l-6 -5q-6 0 -14.5 1t-16 3.5t-12.5 7.5t-5 14q0 11 7 23.5t7 23.5t-5 17.5t-12.5 12t-15 10t-13.5 12.5q-23 2 -35.5 -12.5t-14 -34.5
t9.5 -41t34 -31q6 -9 17.5 -11t20.5 -5q13 6 29.5 2t30.5 -2q17 2 38.5 9t42 18t38 24t27.5 27q7 9 14.5 23t14.5 29t11.5 29.5t4.5 26.5z" />
    <glyph glyph-name="colon" unicode=":" horiz-adv-x="100" 
d="M69 8q13 -14 13.5 -14.5t2.5 11.5zM110 -9q-8 -9 -14.5 -13.5t-18.5 -6.5q-26 10 -26 41q0 8 7 12t14 7q18 2 29 -10.5t9 -29.5zM108 216q0 -11 -8 -20t-19 -9q-12 0 -20 9.5t-8 20.5q0 9 6 15.5t12 12.5q11 -3 24 -8.5t13 -20.5z" />
    <glyph glyph-name="semicolon" unicode=";" horiz-adv-x="125" 
d="M110 79v-15t-0.5 -20.5t-1.5 -19.5t-3 -13q-6 -12 -14.5 -27.5t-21.5 -21.5q-5 4 -9.5 9t-4.5 12q0 12 10 19.5t10 19.5v4h-18.5t-7.5 3t-1.5 8.5t0.5 15.5q0 7 -1.5 13.5t-1.5 14.5t5 14t13 6l9 -4q8 2 12 2q11 0 18.5 -4t7.5 -16zM61 193q-5 0 -7.5 5t-4 11.5
t-1.5 13.5v10v22q4 6 4 8.5t0.5 4t3.5 2.5t14 2l7 -4h20q5 0 10 -2t5 -9v-46q-5 -11 -15 -14t-21 0q-3 -3 -7 -3.5t-8 -0.5z" />
    <glyph glyph-name="less" unicode="&#x3c;" horiz-adv-x="400" 
d="M60 136q-4 -1 -7 4t-1 7l4 2v5q-4 1 -12 5q-7 -7 -6.5 -8.5t3 -1.5t4.5 -1.5t-1 -8.5q2 -11 5.5 -13t10.5 10zM103 95q-4 3 -4.5 3t-4.5 -4q2 -2 5 -2.5t4 3.5zM115 92v1h-4q0 -2 0 -1.5t4 0.5zM164 76l-2 -4l2 -3q4 2 4 2.5t-4 4.5zM82 164l10.5 -10.5t10.5 -8.5
q6 3 5.5 7.5t-4 8.5t-9 6.5t-8.5 2.5zM149 105q0 8 -3 7t-3 -4q3 -4 3.5 -4.5t2.5 1.5zM362 -33q-15 5 -28 7.5t-23 6.5q-5 2 -10.5 8.5t-10.5 8.5q-15 -2 -26.5 5t-34.5 18q-10 5 -20 13t-20 9q-5 0 -6.5 2t-2 4t-2 3t-5.5 -1q-16 2 -32.5 12.5t-32.5 15.5
q-14 9 -29.5 12.5t-28 8t-20.5 13.5t-8 31q0 13 0.5 20.5t3.5 12t9.5 7t18.5 7.5q3 1 12.5 4t19 6.5t17.5 6t9 2.5q4 4 9.5 7.5t10 6.5t8 5t2.5 4q4 2 14.5 2.5t22.5 5.5q15 8 31 18t37 20q14 -3 25 7t22 15q25 11 42 18.5t20 7.5q6 0 10 -11t4.5 -25t-1 -26.5t-5.5 -15.5
q-8 -6 -24 -14.5t-34 -16.5t-35 -16t-27 -12q-5 -2 -19.5 -8t-30 -13t-28 -13.5t-12.5 -9.5t4 -5.5t9.5 -5t11 -4.5t7.5 -2q14 -2 30 -10.5t31 -14.5q7 -10 17 -15t20.5 -8t21.5 -6t21 -8q9 -5 17.5 -9.5t16.5 -9.5t10.5 -16t1.5 -23t-4.5 -23.5t-6.5 -18.5z" />
    <glyph glyph-name="equal" unicode="=" horiz-adv-x="242" 
d="M220 273v-14t-1 -19t-2 -18.5t-3 -13.5q-42 -14 -83.5 -28.5t-83.5 -26.5q-18 6 -18 24q0 14 1 27t1 26q8 8 20 11.5t23 4.5q15 1 32 5.5t33.5 11t32.5 14t30 13.5q7 -1 12.5 -5.5t5.5 -11.5zM221 364q0 -14 -1 -29t-4 -29q-6 -1 -11 -1q-5 -1 -9.5 -1h-6.5
q-3 0 -13.5 -3t-22.5 -7t-22 -8t-12 -6q-17 -7 -34.5 -14t-35.5 -11l-15 10q-1 11 -1 17v17q0 16 2 24.5t7 13.5t13.5 8t21.5 9h1q10 -3 28 1t37 11.5t35 16.5t22 14q21 -11 21 -33z" />
    <glyph glyph-name="greater" unicode="&#x3e;" horiz-adv-x="284" 
d="M120 52q-3 -2 -3 -2.5t3 -3.5l3 4zM79 249q-5 2 -5 1.5v-6.5h5v5zM218 124q0 -5 1.5 -6t6.5 -2q6 2 5 4.5t-6 4.5zM40 -43q-3 1 -4 6.5t-1 12.5t0.5 14t-0.5 10q0 11 3 22q0 1 4.5 3.5t10 4.5t10.5 3.5t7 1.5l14 2q10 3 10 3.5t-2.5 0.5t-3 1t10.5 6l11 -4q4 5 3.5 5.5
l-2.5 2.5l-7 -1l-1 4l9 6q4 -5 7.5 2t8.5 8q6 -5 6.5 -5t4.5 5l-5 6q4 3 15.5 9t23.5 13.5t21.5 14.5t9.5 10q0 7 -10 12.5t-22.5 11.5t-23.5 13t-13 15q-9 3 -13 5t-5.5 3.5l-3 3t-7.5 2.5q0 2 -8 4t-19.5 5.5t-23.5 9t-19 15.5q-1 16 -1 31.5v32.5l4 3q11 -9 22.5 -16.5
t23.5 -15.5t25.5 -13t25.5 -12q11 -6 18.5 -13t18.5 -13q6 -3 17.5 -6.5t16.5 -6.5q8 -5 16.5 -10.5t19.5 -12.5q6 -1 10 -4l8 -6q10 -7 17 -16q2 -2 1.5 -7.5t-0.5 -8.5q0 -4 0.5 -7t0.5 -7q0 -3 -11.5 -11.5t-26 -18.5t-27.5 -18.5t-16 -12.5q-7 -8 -15.5 -10t-17.5 -7
q-8 -5 -13 -12.5t-15 -6.5q-5 -3 -11.5 -8t-11.5 -8q-19 -13 -37.5 -22.5t-37.5 -23.5z" />
    <glyph glyph-name="question" unicode="?" horiz-adv-x="276" 
d="M266 240q0 -24 -9.5 -42t-23 -33.5t-29.5 -30t-28 -32.5v-23q0 -7 -0.5 -14t-2.5 -12t-7 -6.5t-15 3.5q-5 2 -10.5 -1.5t-10.5 -3.5q-8 8 -8 13v15q0 30 7 48t17 29.5t22 19.5t22 17.5t17 24t7 38.5q0 29 -20.5 44t-46.5 15q-16 0 -25 -10t-14.5 -24t-8.5 -29t-7 -25
l-11 -6q-11 0 -24.5 5t-17.5 17q3 19 8 38t14 34t22 25t33 12l16 -5q11 6 12.5 6.5t1 -0.5t1 -1t12.5 5l15 -8q8 6 11.5 8t6.5 1.5t6.5 -3t11.5 -6.5q9 -4 19 -13.5t18 -23t13.5 -30.5t5.5 -36zM178 -42q-4 -4 -8 -4.5t-9 -2.5q-8 3 -10.5 1.5t-11.5 -3.5q-3 5 -6.5 4.5
t-8.5 -0.5t-7 3t-2.5 7.5t0 9.5t0.5 8t0.5 9.5t1.5 13t3 11.5t6 5q9 0 18.5 -2.5t17.5 3.5q4 -2 8 -3.5t8 -3.5v-56z" />
    <glyph glyph-name="at" unicode="@" horiz-adv-x="454" 
d="M215 134q-6 -17 -9 -34.5t0 -36.5q12 -13 20 -9t14 13l11 16.5t11 1.5q5 26 8.5 51t8.5 50l-9 33q-7 3 -13 0.5t-11 -7.5t-9.5 -11.5t-7.5 -10.5q0 -10 -1.5 -16t-4 -11.5t-5 -12t-3.5 -16.5zM360 -47q-3 -2 -12.5 -7.5t-20 -10.5t-20 -9.5t-12.5 -5.5q-7 -2 -18 -1
t-17 3l-10 -4t-11 -4q-6 2 -18.5 6t-29.5 0q-34 2 -67.5 22.5t-57.5 49.5q-21 25 -30 56.5t-8 64t11 64t28 57.5q15 21 33 37.5t30 37.5q20 7 41 15.5t44 13.5q21 1 31.5 4.5t22 4.5t30 -2.5t54.5 -16.5q25 -9 40.5 -33.5t22.5 -55.5t6 -62t-9 -53q-8 -21 -24 -46.5
t-36.5 -41.5t-43 -16t-43.5 29l-10 -11q-19 -15 -36 -15t-42 17q-8 5 -14 13.5t-10 16.5q-14 27 -9 55t22 52.5t41 44t47 29.5q13 0 26 -7t15 -21q10 24 23 24t33 -11q2 -8 -1.5 -17.5t-8.5 -14.5q2 -11 1 -27t-3.5 -33t-7 -33t-8.5 -26q0 -6 -0.5 -9.5t3.5 -8.5
q13 5 25.5 25t21.5 44t12.5 47.5t-2.5 37.5q-1 8 -6 19t-6 19q-17 15 -23.5 22.5t-12.5 12t-16.5 8l-34.5 11.5q-38 -5 -63.5 -8.5t-46 -13.5t-38.5 -29t-42 -54q-5 -16 -15 -41t-10.5 -56t15 -67t62.5 -75q13 -7 34.5 -10t43 -3.5t39 0.5t23.5 3q43 14 78 43.5t50 74.5
q4 3 10 13t12.5 16.5t12 4.5t8.5 -23q-12 -28 -20.5 -46t-18 -32.5t-23 -27t-36.5 -29.5z" />
    <glyph glyph-name="A" unicode="A" horiz-adv-x="502" 
d="M293 213q-3 4 -10 16.5t-15 26t-14 25t-7 13.5q-2 6 -3 12t-3 11h-6l-68 -112l-1 -11q3 4 6.5 7.5l6.5 6.5q48 8 95 0q5 2 9.5 2.5t8.5 2.5h1zM379 124l-2 -7q10 -3 10.5 -5.5t0.5 9.5zM327 182l3 -4l5 8v-10q8 5 5 7.5t-10 4.5zM452 93l6 2l-6 3v-5zM414 143l-4 -4h5z
M433 126l-2 -4q0 -6 1 -7t2.5 0.5t3 4l1.5 2.5zM372 193q-2 -8 -2 -13q2 7 6 11zM326 241v-8l5 2zM421 151q3 -2 3.5 -1.5t-1.5 5.5zM369 224q-4 -2 -8 -9h9zM332 270l-5 -4v-8l9 1zM414 184q-2 10 -2 15q-2 -2 -3 -5.5t-3 -5.5zM110 81q4 -8 7 -12l-10 -9q-9 2 -18.5 3.5
t-18.5 1.5t-18 -3.5t-18 -3.5q-3 0 -5.5 3.5t-4.5 5.5q2 5 8.5 9.5t10.5 7.5q12 10 19.5 23.5t12.5 27.5q7 9 19.5 30.5t27.5 49t32 59t32.5 61t29.5 55t23 41.5q6 11 9 21.5t7 21.5l16 15q6 -1 17 -17t23.5 -40t26.5 -53t27.5 -55.5t24.5 -47.5t18 -29q8 -27 23.5 -50.5
t26.5 -49.5q9 -22 24.5 -39.5t32.5 -34.5q0 -7 -1 -9.5t-9 -2.5q-13 0 -25.5 1.5t-24.5 3.5q-7 -4 -16.5 -2.5t-17.5 4.5l-8 -2t-9 -1q-7 0 -13 1.5t-13 1.5q-3 -1 -7.5 -3t-9 -3t-7.5 1t-3 8q0 5 4.5 8t4.5 9q0 2 -5.5 15.5t-13 28.5t-14 27.5t-7.5 13.5q-5 3 -10 2t-10 -1
q-6 0 -12 1.5t-12 2.5q-17 -6 -34 -5t-34 1q-8 0 -14.5 -2t-13.5 -2t-10 0.5t-4.5 2t-3 4t-5.5 5.5q-15 -23 -26 -49t-21 -52z" />
    <glyph glyph-name="B" unicode="B" horiz-adv-x="524" 
d="M327 230q0 10 -0.5 26t-3.5 31.5t-10 27t-21 13.5l-10 10l-25 -1l-1 -16q-2 -39 1 -78t3 -78v-18.5t-1 -18.5l4 -7q5 0 9.5 -0.5t9.5 -0.5q20 0 28.5 12.5t10.5 30t2 36.5t4 31zM228 141l-4 -18h12l2 9l-6 -2zM239 161q-8 8 -9 7.5t-6 -12.5zM381 163l1 -7q9 -2 9 0.5
t-2 9.5zM105 431q2 -8 2.5 -8t12.5 5zM142 430q-4 -2 -8 -3.5t-8 -3.5q2 -9 2.5 -9t7.5 8q11 -11 10 -7t-4 15zM116 458q-3 -1 -7 -2.5t-5 -5.5q15 -1 16.5 -2t-4.5 10zM148 451l-5 2v-12h1h13q5 11 4.5 11.5t-11.5 6.5zM254 533q2 -42 1 -82.5t-1 -82.5l25 -8q13 7 19 16.5
t7.5 20t1 22.5t-0.5 24q0 5 2 10t2 10q0 32 -12 48.5t-44 21.5zM152 85l-8 6q-7 0 -21.5 1.5t-30 2t-30.5 -1t-22 -6.5l-13 6l-8 15v4q0 10 2.5 13.5t7 3.5t10 -2t10.5 -2l11 1l6 9l1 148q1 61 -1 121.5t-4 121.5q-17 0 -32 -6q-8 6 -11.5 9t-5 5t-1.5 4v7q-1 8 3.5 12
t11.5 8l14 -8q12 0 40.5 -0.5t58.5 -1t55.5 0t33.5 3.5q11 5 27.5 1t28.5 -3h-1l19 3q21 -11 42 -3q17 -6 36.5 -5.5t37.5 -0.5q11 -9 24 -18t24 -19.5t18.5 -23.5t7.5 -29q0 -18 -4.5 -37.5t-14.5 -35.5t-25.5 -27t-37.5 -14v-1q2 -2 7.5 -3t11.5 -2t11.5 -2t8.5 -1
q29 -23 46.5 -50.5t17.5 -65.5q0 -8 -3.5 -23.5t-9.5 -31.5t-14 -28t-17 -13q-14 -10 -23.5 -16.5t-18 -9.5t-19 -3.5t-27.5 2.5q-9 2 -18.5 -1t-18.5 -6q-5 2 -18.5 1.5t-19.5 -0.5q-5 1 -16 1.5t-23.5 0.5t-23.5 -1t-17 -3q-2 2 -9.5 3.5t-15.5 2t-16 0.5h-11zM214 212
q-23 -6 -23 -5.5t11 12.5z" />
    <glyph glyph-name="C" unicode="C" horiz-adv-x="233" 
d="M71 206q8 -3 8.5 -2.5t-2.5 11.5zM68 193v-8q8 2 8.5 2t0.5 5zM75 252l-6 -10q5 -5 5.5 -4.5t7.5 14.5h-7zM73 376l-5 -6q3 -6 3.5 -6t6.5 9zM86 405q-2 -1 -5 0t-5 1l2 -10zM135 436q0 11 1.5 17t9.5 14q-5 11 -8 20.5t-13 19.5q-15 -7 -20 -14t-5 -24q0 -25 2 -49.5
t2 -49.5q0 -9 -3 -17.5t-3 -17.5q0 -6 2.5 -11.5t4.5 -11.5t2 -14t-4 -18q3 -5 4 -18.5t1.5 -30t0.5 -31v-20.5v-52q-5 -11 -7 -28t-3 -35t-1 -35.5v-30.5v-6l15 -9t17 -6t9.5 4.5t3 11t0.5 13t2 10.5q1 4 3.5 7t2.5 8q0 11 -4.5 20.5t-4.5 20.5q0 5 1 8.5t2 8.5q9 3 22 5.5
t25.5 2t21.5 -6t9 -19.5q0 -5 -2.5 -10t-3.5 -10q-3 -13 -3 -26t-0.5 -25t-4.5 -23.5t-14 -22.5q-17 -17 -30.5 -23t-36.5 -6q-3 0 -11 2t-17 4.5t-16.5 5t-10.5 4.5q-4 2 -10.5 9t-12.5 15t-11 16t-6 13q-6 20 -2.5 35t3.5 34q0 9 -4 17.5t-4 18.5q0 8 0.5 16t4.5 15
q-4 26 -8 48t-5 48q3 4 3 27v55.5t0.5 70.5t5.5 74t16 64.5t31 42.5q8 5 16.5 5t16.5 1q4 5 10 5.5t12 0.5q25 0 44.5 -10.5t27.5 -36.5q2 -6 2.5 -12t2.5 -12q5 -17 7 -32t2 -34q0 -24 -10.5 -29.5t-33.5 -5.5q-20 0 -28 8t-8 27z" />
    <glyph glyph-name="D" unicode="D" horiz-adv-x="471" 
d="M101 599l35 -12q11 2 18 3.5t13 1.5t13 -1.5t18 -5.5l9 6q7 -5 14 -5t15 2q8 -5 9 -5t9 4q18 -6 36 -5q33 -10 62 -29.5t51 -46t36 -59t17 -68.5q4 -41 -12 -85t-45.5 -79t-70 -56t-85.5 -16l-13 -10q-10 1 -34.5 4t-52 4.5t-51 0t-31.5 -9.5q-14 3 -28 12
q-2 12 -3.5 40.5t-1 59t2 56.5t5.5 34q0 55 -5 109t-5 108q0 17 6.5 31t24.5 18q5 -6 18 -6.5t20 -4.5zM83 252l7 -16q2 8 3 11.5t0.5 6t-2.5 5.5l-6 9zM246 399q0 5 -0.5 12.5t-0.5 16t1 15.5t3 12q-2 32 -11 55t-40 40q-6 -10 -7 -13.5t0.5 -5t3.5 -4t2 -9.5q0 -26 3 -52
t3 -52q0 -59 -6 -121t-4 -118q28 15 43 45t10 62q4 10 6.5 26.5t2.5 33.5t-2.5 33t-6.5 24zM85 542q20 -2 21 -1t-13 9z" />
    <glyph glyph-name="E" unicode="E" horiz-adv-x="313" 
d="M58 118q4 -1 4.5 -4.5t1.5 -6.5t3 -5.5t8 -0.5q-2 7 -3 14t-6 12zM87 120l-8 -1l13 -8zM193 75q-6 0 -6 -0.5t4 -6.5zM100 177q-6 5 -8 16v-19zM75 200q8 4 8 4.5t-5 6.5zM225 76l-6 -12q0 -1 7 4q4 3 8 7zM116 188l13 -11q-1 7 -1 8t-6 7zM256 126l1 -6l5 4zM108 287
l-11 -1q5 -9 6.5 -9t15.5 6l-6 14zM97 476q2 -5 3 -4.5t9 5.5l-1 8zM61 565q-2 5 -2.5 7.5t-2 4.5t-4 5t-7.5 10l-3 -5l7 -4q1 -5 1.5 -8.5t2.5 -7.5zM140 583l-12 -16l11 2q2 6 2 9zM188 565q-1 1 -3 2t-4 0q0 -8 -1 -12.5t-1 -6.5t2.5 -1t10.5 3l-9 6zM221 555l2 -8
q8 0 8 0.5t2 5.5v1zM234 591l-4 14q-5 -3 -5.5 -4t6.5 -19l11 7l-5 5zM192 660q18 -1 34.5 1t33.5 2q8 0 16 -3t8 -12q0 -31 2 -62t2 -62q0 -26 -3 -51.5t-11 -50.5q-9 -3 -20 -3.5t-21.5 2.5t-17.5 9.5t-7 18.5q0 15 3 30t3 30q0 7 -0.5 13t-1.5 12q-19 -2 -35 2t-34 4
l-12 -11q0 -33 2.5 -66.5t5.5 -66.5q10 -8 10.5 -8t8.5 4q23 -13 44 2q11 -4 14 -14t3 -20q0 -4 -0.5 -10.5t-2 -13t-4.5 -11t-9 -4.5q-4 2 -15 5.5t-22.5 5.5t-20.5 0t-9 -11l3 -159l5 -5h18t22 0.5t20.5 2t15.5 6.5q0 21 -4.5 42t-4.5 42q0 29 16.5 37t41.5 8q9 0 13 -8
t8 -14l-5 -58l-15 -6l16 -2q-1 -17 0 -38t1.5 -43t0 -42t-3.5 -35l-19 -14q-7 4 -20.5 6t-28 2t-28 -2t-21.5 -5l-5 6q-23 -3 -46.5 -5t-47.5 -2q-13 0 -19.5 3.5t-9.5 9.5t-3.5 14.5t-0.5 18.5v20t2.5 31t7 27t13.5 7q11 9 12.5 21.5t-4.5 25.5q4 24 5 48.5t1 49.5
q0 8 -3.5 15t-3.5 15t1.5 12.5t3 8t1 9.5t-3.5 17q2 17 0 33t-2 33t3 33t5 33l-7 13l-16 -3q-4 4 -6 5t-3 5t-2.5 13.5t-4.5 29.5q4 4 4.5 12.5t0 17.5t-2.5 17.5t-3 13.5l9 19l24 12q16 -4 33 -7q14 -2 29.5 -3.5t28.5 0.5q5 1 9 1.5t8 1.5z" />
    <glyph glyph-name="F" unicode="F" horiz-adv-x="291" 
d="M232 538l-112 -6q-3 0 -14 2.5t-24 1.5q-8 -14 -7.5 -16t5.5 -12v-86q0 -4 0.5 -17t1 -27.5t0.5 -26.5v-12q-1 -18 -1.5 -35.5t-0.5 -34.5q0 -20 2 -40l4 -40q-3 -3 -3.5 -14.5t0 -23.5t0.5 -22.5t-3 -12.5q4 -7 4.5 -17t-0.5 -21.5t-2.5 -22t-1.5 -18.5q0 -7 9.5 -9.5
t14.5 -2.5q12 0 14.5 0.5t11.5 9.5q2 29 2 57.5t-5 57.5q2 16 2 32v32q0 3 -0.5 12.5l-1 19t-0.5 17.5v8q0 6 3 8.5t8 4t10 2.5t9 2l4 -4t4.5 -1.5t12.5 -1t28 -0.5q3 9 3 19q0 11 -0.5 12t-6.5 4q-16 -2 -31.5 -6t-31.5 -4q-7 0 -10 6.5t-3.5 15t0 17t0.5 12.5q0 32 -3 64
t-3 64q0 17 14.5 22.5t27.5 5.5q17 0 36 -7l6 3q5 -5 13.5 -4.5t13.5 0.5l11 14zM292 570q-5 -24 -5 -46t5 -45q3 -11 -6.5 -14.5t-18.5 -3.5q-7 0 -15.5 -0.5t-13.5 4.5l-10 -3q-8 4 -21 4h-24l-8 -10l3 -103q18 -1 19.5 -1t3.5 3l44 4l18 -17v-46.5t-2 -46.5l-15 -14
q-14 6 -29 6.5t-30 1.5l-11 -11q13 -58 8 -118.5t-7 -118.5l-15 -9q-10 2 -27 3t-21 3l-10 -5q-17 2 -29.5 5.5t-31.5 -6.5l-14 11q2 18 2 36v36q0 38 -1 75.5t-1 75.5q0 4 0.5 17.5t1 28.5t0 26.5t-1.5 11.5q0 17 -1.5 34t-1.5 34q0 15 1 28.5t1 28.5q0 32 -1.5 63.5
t-1.5 63.5q0 8 4.5 15t11.5 11q9 -2 17 -4.5t16 -3.5l4 6h21q1 -1 7.5 -1.5t14.5 -0.5h15.5h10.5q11 -1 22.5 2t22.5 5q20 -8 42 -5.5t44 2.5z" />
    <glyph glyph-name="G" unicode="G" horiz-adv-x="570" 
d="M511 322q-3 -6 -5.5 -12t-2.5 -13q0 -20 3 -41.5t5 -44t0.5 -44t-11.5 -39.5q-14 10 -29 17.5t-27 19.5q-24 0 -46.5 -7.5t-45 -16.5t-45 -16t-47.5 -7q-47 0 -87.5 23t-70.5 60t-47.5 82t-17.5 89q0 3 0.5 9.5t1.5 13.5t1.5 12.5t-0.5 6.5q18 78 71 129t127 76
q7 -2 8 -1.5t14 7.5q19 -9 41 -9q11 0 29 -7t36 -18t32.5 -23.5t19.5 -22.5q7 2 15.5 12.5t17 23t16 25t12.5 19.5l22 -6q3 -30 1.5 -60.5t-1.5 -60.5q0 -25 2 -48t2 -47q0 -17 -8.5 -26t-24.5 2q-19 39 -33 70.5t-32 56.5t-45.5 43.5t-73.5 31.5q-33 -10 -51.5 -34.5
t-27.5 -56t-11 -65.5t-2 -62q0 -29 0.5 -59.5t7 -58.5t21.5 -52.5t43 -42.5q13 0 27.5 6t27 16t20.5 22.5t8 26.5v91q-14 5 -27.5 4t-27.5 -2l-19 21l23 25q8 -8 16 -10.5t15.5 -2t16 2t17.5 1.5q7 0 21 -2t29 -3t28 -0.5t18 6.5q5 -1 10 -1.5t10 -0.5q19 0 37 2.5t37 3.5
q15 -15 13 -22.5t-11.5 -10t-23 -2t-22.5 0.5zM147 283q11 -9 13 -11t1 11h-14zM163 320q7 3 7 3.5t-7 5.5v-9zM92 418q-8 -7 -8.5 -7.5t4.5 -4.5q8 2 8.5 2.5t0.5 8.5zM144 378q-1 -6 -5.5 -7.5t-9.5 -2.5l5 -6q11 4 11.5 4.5t-1.5 11.5zM173 358q10 2 6 6t-6 5v-11z" />
    <glyph glyph-name="H" unicode="H" horiz-adv-x="355" 
d="M100 113q2 -5 3 -9t1 -9q6 5 6 6t-3 12h-7zM102 257h-8q3 -5 9 -7zM111 287q-4 4 -9 5t-9 4l-2 -15l6 8q5 -4 5.5 -4t8.5 2zM295 229v-7l8 -4l-1 14zM281 309l-4 -7q5 -12 5.5 -12t8.5 9zM288 380q2 -13 2.5 -13t6.5 13h-9zM309 410q-5 5 -11.5 5.5t-11.5 3.5l-1 -18
l6 11q5 -3 6 -3.5t12 1.5zM285 549q-2 -5 -3.5 -12.5l-2.5 -12.5l11 15l8 -5q11 6 6 5.5t-19 9.5zM349 570q-1 -58 -5 -115.5t-4 -115.5q0 -63 4 -124t4 -124q0 -27 -6 -35.5t-16.5 -9.5t-24 -0.5t-28.5 -8.5l-31 9q-6 14 -6 28.5t-1 29.5v28t-0.5 12t-2 2.5l-4.5 -1.5
q-10 10 -10 11t10 9l7 -7q2 9 1 18.5t-1.5 19.5t0 19t5.5 16v45q-8 4 -18.5 3t-21.5 -2t-23 -1t-24 5l-9 -13q8 -21 10 -43.5t2 -45.5q0 -31 -2.5 -61.5t-2.5 -60.5l-21 -14l-12 6q-8 -3 -14 -2.5l-12 1t-12 -0.5t-13 -6q-8 4 -11.5 6.5t-5 4t-2 3.5t-2.5 7q3 6 3.5 16
t0 20.5t-1.5 20.5t-2 17l6 3l-5 2q4 11 4 23v23q0 39 -2.5 78t-2.5 78v209q0 9 7 17t13 13q18 -5 36.5 -5h36.5l10 -20v-152q-6 -5 -6 -13t-3 -16q10 -5 22.5 -2t24.5 3q8 -4 13.5 -2.5t13.5 4.5q17 -7 31 -1q-9 21 -11.5 44t-2.5 47.5t1.5 48.5t1.5 46q5 7 11 12.5t12 10.5
l22 -7q17 5 36 3.5t34 -13.5z" />
    <glyph glyph-name="I" unicode="I" horiz-adv-x="365" 
d="M194 275l-7 -5q7 -7 8 -7h9zM229 400q8 9 8 10t-7 6zM228 542v1h-8v-10h5.5t2.5 7v2zM353 628q-1 -15 -2 -31t-6 -30q3 -8 4.5 -19.5t0 -22.5t-6.5 -20t-15 -12l-38 8l-7 -12l1 -192q3 -2 4.5 -2.5t4 0t9 2.5t20.5 7q6 -2 9 -2.5t4.5 -1.5t4 -2.5t7.5 -5.5l1 -129
q0 -17 -5 -25.5t-14 -12t-20.5 -3t-24.5 1.5q-9 -4 -15.5 -3.5t-12.5 2t-12 1t-13 -7.5q-9 8 -20 8h-22q-4 -5 -7 -5t-7 1t-8.5 0t-10.5 -7q-12 2 -25.5 5.5t-27.5 5.5t-27 0.5t-25 -10.5l-20 9q-2 11 -6.5 21.5t-4.5 21.5v121q1 5 6 10t13.5 7t18.5 1.5t21 -5.5q6 3 7 3
t14 -2q-3 10 -4 36.5t-0.5 57t1 58t0.5 40.5l-9 5q-9 -2 -13 -3.5t-6 -1.5t-3.5 1.5t-4.5 3.5q-8 0 -15 -1.5t-15 -3.5l-10 14q2 23 0.5 44.5t-1.5 44.5q0 24 7.5 39.5t36.5 13.5l9 5l28 -12l13 7q6 -5 12 -5.5t11 1.5t8.5 5.5l5.5 5.5q8 -6 18 -10.5t20 -6.5q8 3 17.5 3
t19 -0.5t18 0t15.5 4.5q16 -3 25 -3t16.5 0.5t16.5 2t25 1.5zM313 203q-2 13 -2.5 13.5t-5.5 -1.5v-12h8z" />
    <glyph glyph-name="J" unicode="J" horiz-adv-x="380" 
d="M283 -9l-10 2v-7l11 -4zM283 -1q8 -2 8 -1.5v14.5zM297 391l6 -1q2 6 1.5 6t-6.5 2zM291 24v-7l5 1l2 5zM316 436v-13l-10 5zM337 427q-5 0 -12.5 -3t-7.5 -9q0 -2 1 -4.5t3 -2.5q-3 -4 -2.5 -10t1.5 -12.5t1 -13.5t-3 -13q6 -4 6 -10v-226q0 -10 -1 -19.5t-1 -19.5
q-2 -4 -4 -7.5t2 -6.5q-3 -5 -3 -14t0.5 -19.5t1 -20t0.5 -15.5q-15 -27 -29.5 -45.5t-32.5 -30.5t-41 -17t-54 -5q-36 0 -59 15.5t-50 35.5q-2 8 -5.5 14t-6.5 13q-2 4 -4.5 17.5t-4.5 28.5t-3 28.5t1 19.5q4 9 1 14t-3 12q0 18 4 26.5t11 11.5t17.5 2.5t24.5 -0.5
q8 0 15.5 2t15.5 2q12 0 20.5 -4.5t8.5 -18.5q0 -26 -1.5 -51t-1.5 -52q0 -6 2 -12l4 -12q17 -12 35.5 -6t18.5 30l2 372q0 8 -3 18t-7 17q-6 0 -12 -1t-12 -1q-5 0 -8.5 2.5t-7.5 4.5q-2 11 -2.5 21t-0.5 21v16t2 17t7.5 13t16.5 5q13 0 20.5 -1.5t14 -2t14.5 0.5t22 7
q7 -6 19 -7.5t25 -0.5t26 2.5t22 1.5q5 0 12 -4t11 -8q2 -10 7 -15q0 -17 1 -30t-1 -22t-9 -13.5t-24 -4.5z" />
    <glyph glyph-name="K" unicode="K" horiz-adv-x="533" 
d="M140 296q-6 -11 -6 -13t3 -5l-9 -2l7 -11l5 10l6 -3q-2 8 -3 13l-4 10zM156 535q-8 -6 -8 -6.5t11 -1.5zM503 38q-12 8 -13 8.5t-7 0.5q-17 -1 -34.5 2.5t-34.5 3.5q-20 0 -40.5 -3.5t-40.5 -5.5l-13 9l-1 10l10 10q13 -3 19 -4.5t9 -1.5t4.5 1t5.5 4q-42 53 -80 108
t-76 109l-8 -12q5 -15 8 -40.5t4.5 -53.5t0.5 -54.5t-3 -42.5q7 -13 9.5 -17t5.5 -4.5t9 0.5t20 -1l1.5 3t2.5 1.5t6.5 0.5t13.5 1l6 -13l-9 -12t-4.5 -5t-3 0t-5.5 3l-4 -4q-11 2 -26 5.5t-30.5 5.5t-30 1t-24.5 -7q-17 4 -40 0.5t-37 -14.5l-15 16q1 7 7 10t13 5.5
t12.5 4.5t5.5 7v41t-0.5 74.5t-1.5 89.5t-2 87t-2 67t-3 29q1 10 1.5 20t0.5 20l-1 43q-12 5 -17 7.5t-8 3.5t-5 0t-7 -3l-19 15l17 20q16 -9 35 -12q5 2 10 3t10 1q7 0 21.5 -0.5t31 -1t31 -2t20.5 -2.5l13 8q7 -4 19.5 0t22.5 4l22 -19q0 -8 -7 -12t-15 -4
q-11 0 -20.5 3.5t-20.5 3.5q-10 0 -15 -10l2 -197q3 -7 2.5 -7.5t-5.5 -0.5q-1 -17 -1.5 -19t-5.5 -9l6 -9q8 4 24.5 21t37.5 41t43.5 52t42.5 53.5t35.5 46.5t22.5 31q-14 1 -27.5 1.5t-26.5 6.5q-4 6 -4 7t3 12l17 8q18 -5 37 -6.5t38 -1.5q5 4 5.5 4t11.5 -5q9 3 18.5 4
t18.5 2l12 -12q-8 -9 -11.5 -12t-7 -3t-8.5 1.5t-17 1.5q-52 -43 -92.5 -95t-83.5 -103q18 -23 47 -60.5t58.5 -79t53 -80.5t30.5 -63l21 -14l18 2q11 -9 11 -10.5t-12 -14.5z" />
    <glyph glyph-name="L" unicode="L" horiz-adv-x="355" 
d="M138 65l-3.5 -7t0.5 -6l10 5zM138 573l4.5 -6t2.5 -1.5t2.5 3.5t5.5 10zM339 10q0 -9 -7.5 -13t-14.5 -6l-27 11q-8 -2 -15 -2t-13 0.5t-11 -0.5t-10 -5q-19 -1 -28 3t-22 4q-21 0 -42 -2.5t-41 -0.5q-10 -5 -11 -5t-11 5q-19 0 -25 -3.5t-8.5 -4.5t-6 3.5t-16.5 21.5
l6 26q8 4 11.5 6.5t6.5 2.5t7.5 -2.5t15.5 -7.5l5 11q-6 54 -6 108q0 60 3.5 120t3.5 120q0 40 -1 80t-3 81l-12 12q-2 -1 -11.5 -5t-10.5 -4q-10 0 -14.5 9t-4.5 17q0 11 7 19t15 13q9 -8 25.5 -7t28.5 -1l5 3q26 -1 52 3t53 3l14 -19l-17 -32q-17 -1 -24 0t-24 6
q-7 -8 -7 -21q0 -51 4.5 -101.5t4.5 -101.5v-22.5t-1 -22.5q-5 -10 -6 -43.5t-1 -74t-0.5 -79t-3.5 -56.5l10 -16q13 8 24.5 10t25.5 -5q15 8 26 4.5t26 -7.5l8 9q-9 35 -8 77t1 77q0 24 14.5 31.5t34.5 6.5l22 -13q2 -29 3 -55.5t1 -52.5v-53.5v-58.5z" />
    <glyph glyph-name="M" unicode="M" horiz-adv-x="692" 
d="M592 449l-7 1q1 -11 4 -11.5t7 -0.5zM578 483q-2 -16 1 -21t5 -4q0 2 -0.5 5.5t-0.5 4.5q0 3 -1 6.5t0 6.5zM558 178l10 -6q7 4 0 7.5t-10 4.5v-6zM588 166q4 -6 8 -4t-3 8zM634 181l1 -10l4 9zM676 510q-1 -12 -1 -26t-0.5 -27.5t-4 -26t-12.5 -21.5q-14 2 -27.5 7.5
t-27.5 5.5q-6 -20 -8 -45t-3 -52t-0.5 -53t0.5 -47v-24l9 -9q13 0 24.5 2t23.5 8l16 -16v-98l-31 -20q-4 4 -5.5 6t-4 2.5t-6 1t-12.5 0.5q-5 0 -12 -3t-15.5 -5t-17.5 -1t-17 10q-6 -1 -18 -1.5l-24 -1t-22 -1t-13 -1.5q-13 2 -28.5 2t-26.5 -8q-8 5 -20.5 6.5t-20.5 -0.5
l-13 17q3 15 2 33t2 33.5t13 26t33 10.5q7 9 10.5 24t5 31.5t2 32.5t0.5 27l-1 68q-6 6 -6.5 5.5t-11.5 -8.5q-2 -36 -14 -70t-24.5 -68t-22.5 -69t-8 -72l-17 -27l-18 11q-2 8 -2 15.5v15.5q0 9 -5 28t-11.5 39.5t-14 38.5t-13.5 25q0 11 -4.5 32t-9 43t-7.5 40t-1 24
l-13 28l-9 -17q7 -48 9 -97t2 -98q7 -7 10.5 -8.5t6 0t6.5 4t12 2.5q6 0 9.5 -12t5 -27.5t2 -30.5t0.5 -20q0 -6 -1 -12l-2 -12l-16 -12q-18 5 -26 7.5t-12.5 2.5t-9 -2t-14.5 -6q-5 3 -6 5t-9 1.5t-28.5 -3.5t-62.5 -9q-7 4 -10 6t-6 2t-8 -2t-16 -6q-12 21 -15.5 33.5
t-2.5 24t4 24.5t4 34l26 16l12 -7q15 2 16.5 1.5t9.5 -4.5l6 14q-7 25 -8.5 52t0 54t3.5 53.5t2 52.5q-2 4 -7.5 3.5t-12.5 -3t-13.5 -5.5t-11.5 -4q-14 8 -20 20t-6 29v20.5t1.5 31.5t5.5 28.5t11 12.5q10 0 19.5 -3.5t18.5 -7t18.5 -5t18.5 3.5q2 -2 3 -2.5t4 -1t11 -0.5
h25q4 4 14 4.5t21.5 -0.5t23.5 -1.5t21 1.5l11 -6l10.5 4.5t6 1.5t6 -2l10.5 -6q9 3 17.5 6t16.5 8q10 -10 13.5 -23t5 -27t3.5 -28t8 -26l14 11l-1 21q-1 14 1 27.5t3 27.5l20 19q15 -8 33 -6l7 -8q11 6 17.5 6.5t12 -0.5t12 -1t17.5 5l16 -8q15 12 31 10t32 -10
q1 1 12.5 3t26 4t27.5 3.5t16 1.5zM179 293q4 5 4 6t-4 12v-18z" />
    <glyph glyph-name="N" unicode="N" horiz-adv-x="541" 
d="M153 477q-5 4 -5.5 10t-2.5 11q1 -10 0.5 -14.5t-0.5 -6t1.5 -1t6.5 0.5zM545 559q-10 -8 -16.5 -12.5t-10.5 -10t-5.5 -13.5t-1.5 -23q0 -87 2.5 -173t2.5 -173v-18.5t-2 -25t-6.5 -22.5t-13.5 -10q-19 12 -46.5 39.5t-59 63t-65 76t-64.5 79t-58 72t-45 54.5l-8 -2
q0 -22 -0.5 -60.5t-0.5 -79t1.5 -77t6.5 -54.5q6 -21 10.5 -30t9 -13.5t10.5 -9t14 -16.5l32 -6q5 -18 1 -27t-27 -9q-14 0 -27 6t-27 6q-11 0 -16 -2t-16 -7q-17 5 -36.5 5t-36.5 -6l-12 10.5t-5.5 6t-1.5 6.5v12l21 11q7 -5 18 -3t21.5 9t18 16.5t7.5 19.5l-7 348
q-5 7 -11.5 15t-14.5 14.5t-17 10.5t-19 3l-19 20q2 11 8.5 19.5t18.5 9.5q17 -9 31.5 -10t32.5 1q4 -3 5 -3t13 4q9 -4 27.5 -22t41.5 -42.5t48 -53.5t48 -56t40.5 -49t25.5 -33q12 -3 26.5 -21t29.5 -38.5t29 -37.5t24 -17q3 0 3.5 19.5t-0.5 48.5t-3 63.5t-4 66
t-3.5 55.5t-2.5 32q-1 6 -5.5 13t-10.5 13t-12.5 8.5t-12.5 -0.5l-30 4l-16 26l9 14l24 9q11 -5 22.5 -8t23.5 -3t24 1t23 6q9 -3 12.5 -5t7.5 -1.5t11.5 3t22.5 8.5l22 -16q1 -17 -2.5 -21t-18.5 -11z" />
    <glyph glyph-name="O" unicode="O" horiz-adv-x="280" 
d="M223 343q5 2 5 2.5t-5 5.5v-8zM228 372q-5 -4 -5 -4.5v-7.5q8 1 8.5 1t-3.5 11zM101 174q6 2 8 2t1 1.5t-4 4.5t-5 11v-19zM173 235q0 8 -0.5 38t-1 62.5t-2 58.5t-4.5 27q-1 26 2.5 52.5t3.5 52.5v18.5t-3 23t-9.5 15.5t-18.5 -3q1 -147 0.5 -292.5t4.5 -291.5l14 -8
q7 0 7.5 0.5t6.5 10.5q-1 60 -0.5 118.5t0.5 117.5zM247 144q0 -22 -6 -43q4 -7 4 -32t-3 -53t-9 -49.5t-16 -21.5q-14 0 -24 1t-18.5 0.5t-17.5 -3t-21 -9.5q-5 3 -7.5 4t-4.5 1.5t-4.5 -0.5t-8.5 -3q-18 12 -26 17t-11.5 8t-4 4.5t-2.5 6.5l-5 238q1 1 1 8.5t-1 17.5
t-1.5 19t-0.5 12q0 29 2.5 57.5t2.5 57.5q0 38 -5 75.5t-5 75.5q0 32 8 53.5t28 47.5q8 -2 15 -2h15q16 0 31 -0.5t31 2.5l4 -3l4 4q21 -4 34.5 -21t15.5 -35q5 -79 4.5 -158t0.5 -158z" />
    <glyph glyph-name="P" unicode="P" horiz-adv-x="520" 
d="M357 316q-53 4 -103 3q-5 -5 -5.5 -18.5t-0.5 -20.5v-39.5t6 -38.5q-2 -11 -3 -25t-6 -23l7 -13q16 4 17.5 3.5t7.5 -4.5q4 5 4.5 5t7.5 -5q3 -8 5.5 -17t3.5 -19l-16 -23q-15 1 -22 2t-10 1t-4 -1t-4 -2q-7 2 -11 1.5t-8 -1.5t-7.5 -1.5t-8.5 2.5q-11 0 -24.5 1
t-27.5 1.5t-27 -1t-23 -6.5q-18 7 -29.5 5t-33.5 -5q0 1 -1.5 5l-3 8t-2.5 7.5t-1 4.5v13.5t2 14t6.5 11t13.5 4.5q13 -5 14.5 -5t9.5 6q-3 6 -4.5 23t-2 35t-1 32.5t-1.5 14.5q2 20 3.5 40.5t1.5 40.5l-2 229q-4 1 -5.5 2t-3 1t-4.5 -2t-9 -5q-14 0 -17 13.5t-3 23.5
q0 11 3.5 21.5t12.5 17.5q12 -8 13.5 -8.5t13.5 4.5q2 -3 11 -4t20 -1.5t22 -0.5t17 -1q8 4 21 4q16 0 30.5 -3t30.5 -3q15 0 37.5 0.5t36.5 8.5q8 -3 12 -4t6 -1t3.5 1t4.5 4q8 -3 15 -5.5t15 -0.5l38 -22t34.5 -24.5t25 -31.5t9.5 -43q0 -11 4.5 -20.5t4.5 -20.5
q0 -29 -6 -46.5t-16.5 -30.5t-25.5 -25t-33 -30zM122 166q2 -8 4.5 -8.5t4 2.5t2.5 7.5t1 8.5l5 -2q3 -11 3.5 -11.5t6.5 -0.5q5 13 5 17.5t-11 13.5zM155 220q0 9 -0.5 9.5t-12.5 0.5q0 -11 2 -12.5t11 2.5zM130 239l-4 -3l8 -5q7 13 6.5 18t-11.5 18zM127 276q5 -5 6 -5.5
t16 0.5l-16 -1l16 1q5 5 3 7t-6.5 2.5t-9.5 2t-6 4.5zM132 308q5 5 5 7.5t-2 3t-5.5 0.5h-4.5zM112 344q5 2 7.5 3.5t-2.5 12.5zM135 329q11 3 9.5 13.5t-9.5 13.5v-27zM183 341q11 6 12.5 8t-1 2.5t-7 0.5h-4.5v-11zM135 397v-13h10q0 11 2.5 15t-2.5 12zM143 441l-6 -6
q4 -6 10 -7t8 -10q7 3 7.5 6t-1.5 5.5t-5 4.5t-3 3zM110 490l9 -9q3 6 2.5 6.5t-9.5 8.5zM142 494l-7 2l1 -12q-2 -7 -3 -6.5t-8 -2.5l2 -5h15v24zM110 517q0 -6 0.5 -6.5t8.5 4.5zM190 443v-10.5t7 -2.5l2 11zM195 479q0 9 -3.5 8t-14.5 1q2 -10 2.5 -10t8.5 5zM146 524
l4 -8l5 2zM105 578l-1 -14q8 0 8.5 0.5t-7.5 12.5v1zM155 545q-4 5 -8.5 8t-9.5 8l-12 -10q7 -9 9.5 -11.5t3 -1t0.5 4.5t3 5q5 -3 5 -3.5v-6.5l9 7l-9 -7zM189 542l-14 6q-1 -3 3.5 -11.5t10.5 -5.5v11zM374 508q-14 13 -16.5 24.5t-7 20t-18.5 13t-50 4.5q-7 0 -14 -0.5
t-14 0.5q0 -17 0.5 -24.5t0 -11t-1.5 -5.5t-3 -7q0 -6 1 -17.5t1.5 -24t0.5 -23t-3 -14.5q1 -15 0 -29.5t1 -28.5q6 0 11.5 -2.5t10.5 -2.5q15 0 32.5 4.5t32.5 -0.5q21 16 29.5 29.5t10 27.5t-1 30t-2.5 37z" />
    <glyph glyph-name="Q" unicode="Q" horiz-adv-x="614" 
d="M177 177q-5 4 -5.5 4t-3.5 -5q0 -5 0.5 -4.5t8.5 5.5zM388 104q-9 0 -12 -2t-4 -3.5t-3 -1.5t-10 3q-18 -1 -36 0t-37 1q-25 0 -49.5 3.5t-47.5 9.5q10 -7 25 -13.5t31 -10.5t32 -5t29 3q3 -2 4 -2.5t5.5 -1t16.5 -0.5h37q8 0 16 2t16 2q7 7 1 8.5t-14 7.5zM489 401
q-2 7 -9.5 11t-16.5 6t-18 2.5t-15 0.5t-21.5 -1t-32.5 -2t-30.5 -1t-16.5 2q-4 0 -11 0.5t-14.5 0.5t-15 -1.5t-11.5 -4.5q-2 1 -16.5 2.5t-32 3t-34 2t-22.5 0.5q-22 0 -45.5 -12.5t-31.5 -34.5q-5 -12 -4.5 -24.5t-7.5 -23.5q0 -30 0.5 -42.5t4 -18.5t11.5 -11.5
t23 -21.5q-3 13 -7.5 26t-7.5 26t-3 26t6 26q3 8 4.5 16.5t3.5 17t6.5 15t14.5 9.5q6 2 12 3.5t11 6.5l25 -2q15 5 34 3.5t38 -1.5q10 0 34 -1t50 -2t48 0t28 5l13 -4q11 5 28 4t29 -6zM512 357q0 9 -5.5 19t-10.5 18l-32 -15q-10 5 -19 5q-26 -1 -51 -1h-50l-8 -5
q-3 4 -12 6.5t-18.5 3.5t-17.5 -0.5t-11 -6.5q-30 6 -61 6q-23 0 -40 -3t-28 -12t-16 -24.5t-5 -40.5q0 -20 5 -40t7 -40q9 -6 19.5 -7.5t21.5 -3.5q5 2 14.5 3t20 1t21 -0.5t16.5 -0.5q3 4 4 3.5t12 -5.5h43q5 0 10 3t11 3q19 0 38.5 -3.5t36.5 -3.5t34.5 6.5t32 17.5
t24 27t11.5 34q1 1 1.5 0.5t1 4t0.5 16v35.5zM177 452q0 8 -0.5 8t-8.5 2v-10h9zM166 480q9 -6 9.5 -6.5t1.5 -0.5q2 10 1.5 10.5t-6.5 4.5zM571 114q-1 -6 -11 -17.5t-23 -23.5t-25 -23t-18 -16l-15 13q2 5 13.5 17t25.5 24.5t27 23t18 12.5zM523 150q15 -7 20 -14t-6 -21
q-12 -2 -22 -9.5t-19 -17.5t-16.5 -20.5t-14.5 -19.5h-4t-4 2t-10.5 8.5t-23.5 20.5l-34 -18q-10 5 -20 4t-20 1q-10 -4 -19.5 -3t-20.5 3l-7 -7q-10 2 -29 5t-38.5 8t-36 12t-21.5 17l4 15q-28 17 -53.5 34.5t-45 39.5t-31 49.5t-11.5 63.5q0 90 43.5 152.5t135.5 80.5
q5 -1 10.5 -1.5t10.5 -0.5q8 0 13 3t8.5 6t5.5 5.5t4 2.5l46 -13q19 2 37.5 -2t35.5 -2q31 -11 60.5 -29t52 -42t36.5 -54t14 -66q0 -53 -18 -96t-52 -82q4 -3 5.5 -4.5t3 -2.5t4.5 -1t10 -1q8 19 19 37t21.5 36.5t17.5 37.5t7 41q0 38 -6.5 71t-25.5 63l7 11
q30 -31 41.5 -72t7.5 -83t-22.5 -81t-49.5 -67z" />
    <glyph glyph-name="R" unicode="R" horiz-adv-x="646" 
d="M78 -30q-5 12 -5.5 12.5t-2.5 -3.5l6 -15zM108 -5q-4 4 -8 7t-9 8q4 -9 4 -23q6 -3 6.5 -3h4.5q-2 8 -2.5 8.5t4.5 2.5zM120 -4q-7 2 -7.5 2t-5.5 -8l8 -3zM66 44h6l-2 5zM112 25l-5.5 5.5t-6.5 0.5q4 -6 7 -16l5 2v8zM105 50q-9 -8 -9.5 -9t3.5 -3l7 9zM125 22l4 -8h7.5
t0.5 6zM95 74q-2 -6 -2 -6.5t6 -2.5zM128 49q-1 4 -2 7t-5 -2v-7zM177 47q-6 0 -7 -2.5l-3 -7.5h10v10zM213 10l6 -2q3 10 3 11t-9 1v-10zM186 136l-5 -6q4 -9 0.5 -14.5t-9.5 -9.5t-11.5 -9.5t-5.5 -14.5q0 -5 4 -7.5t8 -3.5l-1 7q0 5 2 9.5t4 9.5l9 -4l14 26zM233 51
l-2 -5q3 -2 3.5 -2t3.5 2zM193 185q0 2 -1.5 6.5t-2.5 6.5q-2 -5 -6.5 -8t-7.5 -6t-3.5 -7t4.5 -10l-5 -16q4 1 4 0.5t2 -6.5q7 6 9.5 11t-2.5 14l8.5 8.5t0.5 6.5zM213 182q1 5 -0.5 8t-6.5 -2zM195 228l-4 -2l-5 5l2 18l-9 -6q0 -6 -2 -15t-6 -14q5 3 11 3.5t11 0.5z
M70 363l4 -6q5 2 5.5 4.5t-1.5 4.5q-2 3 -6 5zM195 270q-8 -2 -9 -1.5t-9 8.5q0 8 -0.5 11.5t-8.5 3.5q-2 -6 -2 -7.5t7 -14.5q3 2 3.5 1.5t3.5 -13.5l19 4zM449 34q-4 8 -4.5 8.5t-7.5 0.5q-2 -8 -2.5 -9.5t0.5 -11.5zM74 398l3 4l-1 8l-6 -8zM117 376q0 8 -3 15.5t-13 4.5
q-12 5 -13 4.5t1 -5.5q6 -5 10.5 -6.5t7 -3.5t2.5 -6t-3 -14zM139 340l9 2l-9 4v-6zM177 345q-9 -6 -20 -9l-2 -3l6 -4l9 5l10 -10l3 5zM151 378l-7 3q-13 0 -16 -9q7 4 11 1t12 -3v8zM77 456q-4 -8 -4 -9.5t4 -12.5q9 2 6.5 6t-1.5 14zM118 410q-2 5 -6 9t-7 9
q-6 0 -6.5 -0.5t-2.5 -14.5q5 -2 9 -3.5t8 -4.5l6 4zM167 352l6 1l-8 6zM182 341q4 8 4 8.5t-6 -1.5zM480 82q-5 0 -9 1t-9 -4l1 -7q12 3 17 10zM189 375q-5 -5 -5.5 -4t-0.5 -5q5 1 6.5 0.5t2.5 -1.5t1 -0.5t2 4.5zM390 319q-11 2 -15.5 2t-15.5 -5l-108 2q-4 3 -4.5 3.5
t-6.5 -1.5q-2 -10 -2 -16t1 -12t1 -12l4 1l1 -4l17 2l2 -3q7 0 12.5 1t13.5 1q11 0 21.5 0.5t21.5 1.5q6 4 6.5 4t3.5 -3q7 0 16.5 -1.5t17.5 -0.5t13.5 6.5t6.5 18.5zM250 412q-5 5 -5.5 5t-4.5 -4l2 -11zM311 393v1q-4 1 -4.5 1t1.5 -5q8 -2 8.5 -2t-5.5 6v-1zM320 403
q2 7 1 6.5t-5 -3.5zM423 345l-11 -6l15 -14l9 10zM408 365q-2 9 -2.5 9.5t-7.5 0.5l-2 -9l4 -9zM402 415q-7 1 -7.5 0.5t-4.5 -2.5l2 -6l10 2v6zM645 84q0 -42 -29 -74q1 -10 -11.5 -22t-29 -22t-33.5 -16t-26 -4l-8 -5q-9 6 -15.5 4.5t-17.5 -1.5q-29 0 -49 15.5t-40 35.5
q-5 18 -8.5 36.5t-2 35.5t9.5 33t26 29q-1 3 -1.5 4t-10.5 10l-126 2q-7 0 -13.5 2.5t-13.5 2.5q-6 0 -8 -6t-2 -14t1 -15.5t2 -10.5q15 7 31 6t33 1l14 -14q-2 -25 -6 -49t-4 -49q0 -10 3.5 -19.5t3.5 -20.5l-7 -16l-17 -6q-14 4 -15.5 4t-9.5 -5q-9 8 -22 6.5t-24 -3.5
q-10 5 -16 1t-17 -4q-13 0 -27 0.5t-27 0.5q-7 5 -20 6.5t-18 -4.5q-23 1 -34 1t-16 1t-6.5 4t-6.5 9q2 22 1 44t-1 45q0 8 0.5 18.5t2.5 20.5t6 18.5t12 13.5q17 -8 31.5 -7t31.5 -5l4 6q-3 0 -4 7.5t-1 16.5t1 17t1 11q0 20 -5 39.5t-4 39.5q0 13 2.5 24t2.5 24q0 9 1 12
t2 5t1 5.5t-2 14.5l-35 -9q-13 5 -16 3.5t-4.5 -3t-5.5 1t-19 15.5q2 38 2.5 76t1.5 76l11 12q1 0 9.5 -1t18.5 -2.5t19.5 -3t11.5 -2.5q14 5 28 4t28 -3l13 7q9 -5 24 -6.5t31.5 -0.5t31.5 2.5t26 3.5l8 -4q37 7 73.5 -3t66 -32t48 -54t18.5 -71q0 -26 -7 -44.5
t-19.5 -31.5t-30 -23t-39.5 -20q14 -9 30 -20t16 -31q0 -2 -4 -13.5t-5 -14.5l21 -16l16 10q0 6 1 16.5t10 10.5q6 -2 8.5 -3t4 -1t3.5 1t7 4q11 -6 14.5 -5.5t14.5 5.5l6 -3t3.5 -1t4.5 0.5t10 2.5q11 -8 18 -5.5t21 2.5q9 0 18 -1.5t17 -6.5q1 -14 1.5 -28.5t0.5 -29.5z
" />
    <glyph glyph-name="S" unicode="S" horiz-adv-x="486" 
d="M91 31v-9h5.5t2.5 5zM157 53q6 5 6.5 5t-3.5 4zM256 7q2 5 2 5.5t-5 0.5zM269 26q-5 -2 -5.5 -1.5t-1.5 3.5l-3 -10q8 2 9 2.5t1 5.5zM290 4l4 4l-5 1zM325 25q-8 -7 -8.5 -7.5t6.5 -0.5zM269 127q-10 5 -17.5 9.5t-18.5 9.5l2 10l-7 -7l-15 10.5t-7.5 4.5t-4.5 0.5
t-7 -0.5q-4 5 -10 5.5t-10 -4.5q1 -4 12 -12t25 -16t27 -14.5t18 -7.5q10 3 10.5 3.5t2.5 8.5zM168 198v8.5t-5 3.5q-2 -3 -2 -3.5t7 -8.5zM303 132l-7 10l-2 1q-2 -4 -2 -4.5t3 -7.5h4zM312 126q5 5 4.5 5.5t-5.5 2.5zM335 135q-2 4 -2.5 4t-3.5 -4h6zM403 194
q0 19 -5.5 30.5t-13 20.5t-14.5 17.5t-10 21.5q-20 14 -42 24t-42 23q-6 -3 -14.5 0.5t-16.5 9.5t-15.5 13t-11.5 11l-11 -1q-11 6 -24 12t-24 13.5t-19 18t-8 24.5q0 15 7 23t15.5 13t16 8.5t8.5 9.5q11 -4 21.5 -6t22.5 0q14 -7 30.5 -18.5t31.5 -13.5l-1 -3q10 -5 22 -14
t22 -20.5t17 -24.5t7 -25q4 -7 8.5 -13t7.5 -13h7.5t6.5 11q-3 20 -7.5 40t-4.5 41q0 9 3.5 17.5t2.5 18.5q-1 15 -1.5 16t-8.5 4l-14 -14q-2 -10 -8.5 -15.5t-14.5 -10.5q-17 5 -32 17t-32 14q-3 5 -9.5 9.5t-14.5 8t-16 5.5t-14 2q-26 0 -43 -6t-41 -16q-4 -11 -11 -20
t-15 -17q-1 -9 -8 -19q0 -41 0.5 -58t3 -26t9 -19.5t19.5 -37.5q19 -10 33 -19.5t37 -11.5q4 -6 13.5 -13.5t21 -14t22 -12t18.5 -7.5q12 5 22 -2.5t18 -16.5l7 5q7 -3 16 -7t16.5 -9t12.5 -12t5 -17q0 -26 -10.5 -36t-31.5 -21q-6 3 -7.5 3.5t-15.5 -1.5l-6 -6t-7 -2
q-25 0 -48.5 7.5t-46.5 17.5v5q-34 3 -48 21.5t-20 40.5t-9 42t-15 27q-5 -6 -7.5 -7t-3 -11.5t-0.5 -36v-80.5q0 -10 2.5 -19.5t4.5 -19.5l9 -5q7 3 12.5 11t11.5 16.5t12 14.5t14 6t20 -9.5t27.5 -19t34.5 -16t42 -0.5q10 -8 27 -6q11 8 11.5 9t8.5 -1q23 15 37.5 26
t23 24t11.5 30.5t3 46.5zM179 443q-5 -7 -5 -7.5t3 -5.5q5 -4 6 -2t3 8zM267 392q-14 14 -31.5 21t-33.5 17q-7 -2 -7 -2.5v-7.5q7 -5 7.5 -5t4.5 2q17 -14 20.5 -16.5t8.5 -1.5l22 -21q8 3 8.5 4t0.5 10zM274 362q8 0 0 8v-8zM306 370q-5 -2 -9 -2h-9l3 -9l6 3q2 -5 2 -4
t7 12zM467 185q0 -30 -3 -60.5t-17 -57.5q-6 -12 -13.5 -23.5t-18.5 -19.5q-19 -15 -30 -22.5t-17.5 -11.5t-11.5 -4.5t-11 -0.5q-11 0 -23.5 -8.5t-21.5 -13.5q-7 8 -8 7.5t-11 -8.5q-6 5 -8.5 7.5t-4.5 3t-5 -0.5t-9 -2q-7 6 -10 9t-5 4t-3.5 -0.5t-4.5 -3.5q-10 0 -15 1
t-8.5 3t-7.5 4t-11 4l-14 22l-15 2q-16 -16 -34 -28t-36 -25q-17 0 -25 3t-11.5 9t-3.5 15v21q0 9 -1 35.5t-3 55.5t-4.5 53.5t-4.5 29.5q2 20 1.5 39t-2.5 39q3 8 3.5 13.5t-0.5 10.5t-2.5 10.5t-1.5 13.5v79q0 15 14 42t34 52.5t42.5 43t39.5 13.5l8 6q27 0 44.5 -3
t32.5 -9.5t30 -16t38 -21.5q6 13 16.5 22.5t21.5 17.5q5 -2 8.5 -1t7 3.5t7.5 5t10 2.5q18 0 27 -14.5t12.5 -34.5t3.5 -41v-33q0 -28 -5 -56.5t-5 -57.5q0 -16 7 -31t15.5 -29.5t15.5 -30t7 -33.5z" />
    <glyph glyph-name="T" unicode="T" horiz-adv-x="432" 
d="M190 140q0 -8 2.5 -14t3.5 -13q2 15 3 21.5t1 9.5t-1 3.5t-2 2.5zM200 178q-10 10 -11 10t-6 -5l15 -8v-15q11 2 11.5 5.5t0.5 17.5zM193 249l-6 -10l2 -6l4 -1l5 11zM214 235l-6 5l-3 -7l9 1v1zM218 264l-5 -7h7zM191 309q-6 -9 -8 -10t0 -5l8 4l8 -6q2 8 0 8.5t-8 8.5z
M189 367q-2 -2 -2 -5l1.5 -4t4 -6t4 -0.5t1.5 11.5zM196 427l-6 -10l5 -11q5 4 7.5 4.5t4 1.5t2 3t0.5 8zM406 348q-10 4 -21 6.5t-20 6.5t-14.5 11.5t-4.5 22.5q6 10 6.5 11.5t-4.5 9.5l-18 -13l-31 18q-11 -2 -16.5 -2.5t-16.5 4.5l-10 -8q0 -32 8.5 -62t9.5 -62
q0 -30 3 -60.5t3 -60.5q0 -15 -3.5 -28.5t-9.5 -27.5l3 -9q8 3 9 3.5t11 -1.5q12 4 19 3t11.5 -6t7.5 -13.5t6 -18.5q-3 -12 -9 -23t-17 -19q-8 2 -13 1.5t-9 -2l-8 -3t-11 -2.5q-13 9 -20.5 12t-21.5 -2q-9 4 -14.5 4.5t-10 -1t-10 -4t-14.5 -3.5q-11 5 -13 5t-12 -7
q-9 3 -17 5t-14 6t-9 11t-3 19q0 15 10 28.5t26 13.5l21 -14q1 9 -7 20.5t-8 24.5q0 11 7 23q-2 8 -5 15.5t-3 15.5q0 7 4 13t4 13q0 8 -4 16t-4 16q0 9 1.5 12l2.5 5t0 6t-6 16q6 24 8 48.5t2 48.5q0 8 -1 17t-6 16q-15 -8 -16.5 -8.5t-9.5 1.5q-16 -3 -21.5 -8.5
t-5.5 -13.5t3 -17.5t3 -21.5q0 -8 -5 -13t-12.5 -7.5t-15 -3.5t-13.5 -1q-10 0 -19 12.5t-9 21.5q0 11 2.5 22.5t2.5 23.5t4.5 32t12.5 38.5t20 32.5t27 15q6 -4 8.5 -9.5t5 -11.5l5 -12t7.5 -10q11 10 19 10.5t20 -8.5q5 3 10 7t11 4q8 -9 26 -14t30 -7q11 7 16 11t9 5.5
t8.5 2.5t15.5 4q5 -7 13 -12t17 -5q11 14 22.5 27.5t23.5 26.5l21 -19q3 -19 9.5 -36.5t13.5 -35t12.5 -35.5t6.5 -37z" />
    <glyph glyph-name="U" unicode="U" horiz-adv-x="276" 
d="M78 -11q11 -3 10 1t-8 8zM91 24q-1 4 -1.5 4t-6.5 1h-3q-8 0 -6.5 -3.5t2.5 -10.5zM86 71q-3 -2 -4.5 2.5t-2 10.5t0 12t1.5 8l-1 35l-11 -10q2 -10 1.5 -16t-2.5 -17q5 -6 3.5 -15t6.5 -14l-4 -14q8 -5 8 -5.5t5 -0.5l3 -8q3 5 2.5 6t-9.5 13zM88 169q-4 -3 -4.5 -3
t-6.5 5l-9 -10q8 -8 9 -8.5t11 3.5v13zM91 198q-9 0 -9.5 -0.5t-5.5 -6.5l2 -9l11 13l2 -3v6zM79 215l-1 6l-7 2v-9zM83 252q-4 -5 -4 -4.5t-1 7.5l-5.5 -5.5t-7.5 -0.5q0 -12 15 -17v8.5t3 7.5v4zM83 273q0 2 -1 4.5t-1 4.5l-6 3t-2 -6q0 -8 5 -9.5t5 3.5zM77 296
q-8 5 -8.5 5t-1.5 -8q2 -3 3 -2.5t7 5.5zM79 314l-1 8l-4 2l-2 -8zM71 354l5 -4q4 3 4 3.5t-4 4.5zM87 387q-7 0 -7.5 -0.5t-3.5 -5.5l9 -9q-2 5 -1.5 5.5t5.5 4.5zM71 417l-4 -7l8 -6l2 11zM75 446q0 2 -1 5t-1 5l-7 -3l1 -11q7 -3 7 -3.5t1 -0.5v8zM93 489q-7 2 -8 1.5
t-9 -7.5q3 -1 6 -4t5.5 -3.5t4 2t1.5 11.5zM249 530q-5 -13 -6.5 -26t-1.5 -27q0 -6 1 -19.5t2 -27.5t1 -26t-1 -15q-3 -98 -3 -196q0 -50 2.5 -98.5t2.5 -97.5q0 -29 -5 -52.5t-17 -40.5t-33 -26.5t-53 -9.5q-9 0 -20.5 4.5t-23 11t-22.5 13.5t-18 12q-21 74 -24.5 157.5
t-1.5 160.5l3 4q-3 4 -4 22.5t-1 44t1 55t1.5 57t1.5 49.5t1 32q0 16 -6 32.5t-15 29.5l9 13q10 -3 14.5 -4t6.5 -1.5t3 0t3 2.5q15 -3 36 -5.5t34 8.5l16 -8q9 3 9.5 3t5.5 -3l1 -11q-16 1 -19 -12t-3 -24q0 -5 0.5 -10t-0.5 -10q4 -15 5.5 -44t1.5 -62t-0.5 -64t-0.5 -50
l-3 -3q12 -85 10 -170t-2 -170q0 -14 9.5 -26t23.5 -12q18 0 28 15t14.5 35t5.5 41.5t1 33.5q0 22 -1.5 43t-2.5 43l-2.5 2.5t1.5 4.5q0 28 -1.5 55t-1.5 55q0 48 4 94.5t4 94.5q0 15 -0.5 34t-3.5 38t-10 35.5t-20 25.5q-5 -2 -5.5 1.5t-0.5 8.5q0 8 10 10t16 3l7 -5
q11 4 23.5 4t24.5 2q10 -5 10.5 -5.5t4.5 -7.5z" />
    <glyph glyph-name="V" unicode="V" horiz-adv-x="774" 
d="M132 405l7 -6l4 3l-2 5zM449 182l-3 -7q6 -3 6.5 -3t0.5 8zM427 195q-7 5 -13 -3l4 -3q7 -1 7 -0.5t2 6.5zM389 196q8 -5 8 -2t-2 9zM377 213l-3 -4q5 -4 5.5 -4t2.5 5zM350 221l2 -5l4 2l-2 5zM766 374q-17 4 -26.5 5.5t-19.5 1.5t-24 -1t-39 -2q-10 -12 -28.5 -39.5
t-41 -61.5t-47.5 -70t-48.5 -66t-43 -49.5t-31.5 -19.5q-11 0 -15.5 1.5t-8.5 2.5t-8.5 0t-15.5 -7q-10 2 -24 18t-30.5 40t-35 52.5t-35.5 55.5t-32 48.5t-25 31.5q-6 18 -14 36t-25 29q-5 -2 -15 -4.5t-21 -4t-20.5 -1t-12.5 5.5l-29 -6q-8 15 -11.5 31t-4.5 33l9 20l17 8
h16.5t14.5 -6q12 5 28 2.5t27 -7.5q7 4 8.5 4.5t15.5 0.5q5 0 11 -2t12 -2q13 0 22 6q9 -1 21 -1t24 0.5t23.5 0t18.5 -3.5l21 6q2 -2 2.5 -3t3 -1t8 1t17.5 3l18 -28q-1 -21 -1.5 -30.5t-2.5 -13.5t-6.5 -6l-13.5 -6q-16 5 -23.5 7.5t-11 2.5t-5 -2t-5.5 -5
q13 -14 30 -39.5t35 -51.5t35 -48t31 -29q28 43 54.5 87t65.5 78l2 7q-12 2 -22 0.5t-21 -7.5q-11 4 -11.5 4t-4.5 -4l-19 -4q-7 1 -16 1.5t-17 2.5t-13.5 6.5t-5.5 15.5q0 13 0.5 21t3 14t7 13t13.5 18q7 -2 12.5 -5t13.5 -3q11 0 18 3.5t7 -2.5q8 -5 27.5 -4.5t29.5 0.5
q13 0 26.5 1t24.5 8l13.5 -6t7 -2t3.5 1.5t4 4.5q14 -10 32.5 -5.5t39.5 4.5q17 0 33.5 -0.5t33.5 -0.5q15 -15 13.5 -35t-7.5 -39z" />
    <glyph glyph-name="W" unicode="W" horiz-adv-x="599" 
d="M104 -24q7 -2 7 -1.5t-3 5.5zM130 -20q2 3 1.5 3.5t-3.5 4.5q-3 -2 -3 -2.5t5 -5.5zM181 -7h-12q-3 -5 -5.5 -10t5.5 -7q3 8 3.5 8.5t2.5 0.5q3 0 7 2zM160 62q-4 -6 -2 -8q8 2 8 2.5t-6 5.5zM148 82q0 -5 1 -6t2.5 -1t3 -1t2.5 -7q1 2 2 7t0 9t-3.5 5t-7.5 -6zM151 110
l4 -5q5 4 6 6.5t-7 4.5zM171 130q-2 5 -3 11t-3 11q-6 -8 -7 -8t-7 1v-18q8 -4 10.5 -4t9.5 7zM333 -9q-3 -2 -3.5 -2.5t-5.5 4.5l3 -9q8 5 8.5 5t-2.5 2zM159 162q0 5 -2 13q-8 -2 -9 -7q3 -6 3.5 -6.5t7.5 0.5zM157 202q5 8 4.5 8.5t-8.5 -4.5zM319 45q3 5 3 11t-11 -2z
M161 242l-3 -2l3 -7q4 2 4 2.5t-4 6.5zM159 266l-1 -9l5 2zM307 125q-1 -5 -2 -9t-2 -9l11 -2v17.5t-7 2.5zM178 307q-11 3 -12 3t-7 -1l-11 -14l5 -16q5 2 6 11t5 9q-2 0 -1 0t13 -4zM143 336q7 0 7 0.5t-7 5.5v-6zM490 26q-3 -3 -5 -6.5t-4 -6.5v-10l8 1q0 7 2 11t-1 11z
M129 398l-11 -11l11 11l-11 -11q5 -9 5.5 -9.5t5.5 5.5v15zM169 342q-1 -5 -0.5 -5t5.5 -8l2 12zM135 381q-2 -6 -2.5 -6.5t3.5 -2.5q-1 -2 2 1t-3 8zM505 4h1l3 8q-3 4 -3.5 4t-5.5 -8zM492 41l5 -10q10 3 7.5 3t-6.5 12zM117 414q12 5 12 5.5t-12 0.5v-6zM123 449
q0 2 -1 3t-1 3h-7q-3 -11 -4 -15t-13 2q-3 -3 0.5 -6t9 -3t11 3.5t5.5 12.5zM315 244l-10 -4l9 -7l5 7zM436 8q-5 15 -3 36t2 38q0 10 -2 20t-2 19v129q0 8 2 14.5l4 13t3.5 15.5t0.5 21l-24 31q-13 -7 -15 -19.5t-2 -25.5q0 -10 -5.5 -17.5t-6.5 -17.5q11 -11 7.5 -24.5
t-8.5 -24.5q8 -26 5.5 -49.5t-2.5 -49.5q0 -17 1 -39.5t5 -45t12 -42.5t22 -32l10 7q1 11 2 15.5t0.5 7t-2 6t-4.5 14.5zM484 97q-4 -4 -4 -4.5v-5.5q5 2 5.5 2.5t-1.5 7.5zM505 108q-5 3 -7 4t-3 2.5t-2 4l-3 7.5l-13 -3q8 -7 10.5 -11.5t3.5 -6.5t3.5 -1.5t10.5 4.5z
M478 172q-3 -11 11 -11l6 11h-17zM492 208l-7 -7t-8 -4q2 -5 2.5 -5.5t9.5 -2.5q2 6 3.5 10t-0.5 9zM488 252q-4 -6 -8.5 -12t-6.5 -13l4 -8q7 9 11 15.5t0 17.5zM490 271q-8 -6 -10 -11l10 -1q3 8 3 8.5t-3 3.5zM528 246q5 2 5.5 2t-3.5 7zM501 298v11.5t-8 2.5l-4 -9
q8 -6 8.5 -6.5t3.5 1.5zM509 347v5.5t-5 8.5l-9 -6q6 -7 14 -8zM530 325q4 -2 4 -1.5t-1 8.5zM594 348q0 -10 -8 -16.5t-16 -10.5l2 -26q-4 -11 -4.5 -23t-0.5 -23q0 -51 4 -101.5t4 -101.5q0 -20 -1.5 -38.5t-6.5 -37.5q-13 -4 -18.5 -4.5t-9.5 0.5t-9.5 2.5t-17.5 2.5
q-15 -12 -36 -22q-4 1 -20.5 -10.5t-37 -26.5t-39.5 -29t-27 -17q-18 16 -34 33.5t-28 38.5q-6 -9 -18.5 -19t-26 -20t-24.5 -18.5t-14 -14.5l-33 24q-2 7 -8 17t-15 19t-18.5 15.5t-17.5 6.5q-5 0 -9.5 -4.5t-9 -10.5t-8.5 -12.5t-6 -9.5q-10 0 -16.5 7.5t-10 17.5t-5 20.5
t-1.5 18.5t7.5 18t18 19.5t21 17.5t17.5 11q-5 16 -5 32v33q0 21 0.5 41.5t4.5 41.5q-5 12 -5 24q0 5 1.5 8.5t1.5 8.5q0 9 -2 18t-2 19q0 14 1 28.5t1 28.5q-17 26 -30.5 53t-24.5 56q5 40 12 58t18.5 28t29.5 19t46 30q10 -4 10.5 -4t8.5 4q5 -4 6 -4t11 6
q26 -1 35.5 -18.5t9.5 -40.5q-4 -9 -6 -13t-3.5 -6t-5 -3.5t-10.5 -5.5l-10 14l6 23q-7 10 -10 15t-5 6.5t-5 2l-9 1.5l-35 -27q-4 -20 1.5 -38.5t17.5 -34.5t28.5 -28.5t34.5 -20.5q7 -26 8.5 -55t-0.5 -59.5t-4.5 -60.5t-2.5 -57v-72.5t2 -72.5q1 -17 7.5 -33t6.5 -33
q4 -1 8.5 -4l7.5 -5l19 19q-6 8 -9.5 24.5t-3.5 26.5v22.5t-0.5 40.5t-1 48.5t-1.5 47t-1.5 36.5t-1.5 17l4 30t2 30t-7.5 28.5t-20.5 21.5q20 23 42 44.5t39 47.5l34 5q18 -20 34.5 -42t36.5 -41q17 8 28 22.5t24 27.5q3 11 11.5 20.5t19.5 14.5q8 -5 11.5 -7t5 -3.5t2 -4
t1.5 -6.5q11 -8 20 -17t15 -20q10 -5 17 -13t12 -16z" />
    <glyph glyph-name="X" unicode="X" horiz-adv-x="422" 
d="M284 402q-3 -8 -8 -17l11 -4q4 16 3.5 17t-6.5 4zM413 477q-15 -20 -33.5 -46.5t-38 -53.5t-38.5 -52t-34 -41q21 -20 35.5 -44t30.5 -48q4 -3 13.5 -15.5t20.5 -28t23.5 -33t22.5 -30.5q0 -7 0.5 -8.5t-13.5 0.5l-13 -7q-5 -2 -9.5 4t-10.5 5t-9.5 -4.5t-8.5 -2.5
q-11 12 -22.5 24t-23.5 23q-2 4 -14.5 22t-27.5 38t-27.5 36.5t-14.5 17.5q-11 -10 -31 -37t-39.5 -55.5t-34.5 -50.5l-15 -22h-21q-5 3 -8.5 6.5t-5.5 0.5q-8 1 -11 1.5t-3.5 0t-1 -2t-4.5 -2.5l-11 11q32 45 60 87t65 84l23 26q-7 11 -7.5 11t-4.5 2q-39 42 -72 87.5
t-67 91.5l7 17q6 -1 7.5 -2t2 -1.5t3 -1t10.5 -0.5l12 8q5 -2 7 -3t4 -1h4.5t8.5 1q12 -8 29.5 -29t36.5 -45t35.5 -47.5t25.5 -36.5q7 0 20.5 20t30 46t34.5 51t35 36q4 2 8 6.5t9 4.5q7 0 8 -4.5t6 -4.5q6 0 11.5 4t11.5 2q2 -2 6.5 -7.5t7.5 -7.5z" />
    <glyph glyph-name="Y" unicode="Y" horiz-adv-x="267" 
d="M149 -105v-10q4 1 5.5 0t2 -1t0.5 1.5v9.5h-8zM165 -58q-5 0 -6 -1.5t-1 -2.5v-2t-4 1q2 -5 6.5 -6t8.5 3zM165 -41q0 5 -0.5 5.5t-10.5 2.5l-7 -6l5 -2.5t13 0.5zM162 40q-4 -1 -4.5 -0.5t-6.5 5.5l-4 -4q2 -8 3 -8.5t12 1.5v6zM155 60q-3 -3 -3.5 -3t-2.5 2
q0 -8 0.5 -8.5t9.5 3.5zM149 76q6 -8 6.5 -8.5t4.5 -0.5q2 8 1.5 8.5t-12.5 0.5zM162 141l-9 8q-3 -5 -4.5 -7t-1.5 -4t2 -5.5l6 -10.5l7 4v15zM167 180q-5 9 -6 9t-9 -9q4 -11 4.5 -12t5.5 1zM169 230q-8 3 -10 11t-2.5 14t-2 6t-7.5 -13q8 -3 7.5 -14t-1.5 -17q6 0 10 4
t6 9zM159 286q-2 5 -4 9t-4 9q0 -3 -0.5 -4.5t-1 -3.5t-2.5 -5t-6 -10q5 -5 5 -8t-1 -5t-1.5 -4.5t4.5 -6.5zM156 321l-8 6q-1 5 -2 9.5t-2 7t-3.5 1t-6.5 -8.5l11 -26l-1 -6q5 -2 7.5 0.5t7.5 4.5zM123 392q-2 0 -4 -6t-2 -9q2 3 3 3t10 -4q2 5 1.5 6t-8.5 10zM171 369
q-4 -5 -8.5 -9t-4.5 -11q0 -2 1 -4.5t2 -4.5q6 7 6.5 8t0.5 7q5 5 5 5.5t-2 8.5zM117 437l-4 2l-2 -13l3 -10l5 7zM105 452q2 9 1 9t-9 -5zM104 497q-6 5 -6.5 6.5t-0.5 1t-0.5 -2.5t-4.5 -4zM83 522h-1l-1 -8h5.5t3.5 4zM202 429q6 -9 7 -6t1 9zM240 506l6 -9q7 2 4.5 4.5
t-5.5 4.5h-5zM179 -152q-6 1 -8.5 2t-5.5 0.5t-9 -2t-18 -5.5l-18 15q1 61 2.5 121.5t1.5 121.5v13.5t-1 18.5t-3.5 16t-6.5 7q3 18 3 37q0 49 -9 96t-21.5 93.5t-27 93t-24.5 93.5l12 9t6.5 3.5t5.5 0.5h10q7 -5 8 -4.5t9 0.5q28 1 36 -14.5t9.5 -37t2.5 -44.5t14 -37v-6.5
t0.5 -4.5t3 -8t7.5 -17l7 4q4 22 5.5 44.5t12.5 42.5q-2 4 0.5 17t7.5 27t11.5 25.5t14.5 11.5q17 0 34 -1t34 1q6 -7 9 -9t3 -3.5t-2 -3t-4 -6.5q-7 -15 -12 -32.5t-10 -33.5q-24 -68 -46.5 -139.5t-24.5 -143.5q-3 -179 -3 -356zM103 473l8 4l-7 2z" />
    <glyph glyph-name="Z" unicode="Z" horiz-adv-x="483" 
d="M190 275l-6 -5l7 -7h10zM159 237l-1 -16l9 10zM536 554q-19 -28 -46 -48t-52 -42q-37 -33 -75 -65.5t-75 -65.5t-72 -68t-67 -73q-6 -8 -12 -15t-15 -12q9 -5 18.5 -5.5t19.5 -0.5q26 0 54.5 1t51.5 14q4 -2 13 -0.5t19 5t18.5 7.5t13.5 7q10 6 18.5 14.5l17 17
t17.5 16.5t20 14l11 -11q-6 -12 -12.5 -27.5t-14 -30.5t-16.5 -28t-20 -20q-1 4 -10 5.5t-21 1t-24.5 -2.5t-19.5 -4l-12 8q-7 -3 -10 -5t-5 -2.5t-4.5 -0.5h-8.5l-13 6q-5 -5 -14 -5q-14 0 -28.5 2.5t-28.5 2.5h-13.5t-6.5 -0.5t-3 -1.5l-4 -4q-15 7 -24 8.5t-25 -4.5
q-11 3 -22 4.5t-22 -0.5l-2 11q62 59 118.5 121t119.5 119q39 35 81.5 67t77.5 73q-3 3 -10.5 4t-16 0t-16.5 -3t-12 -5l-24 4t-24 2q-46 0 -86.5 -24.5t-74.5 -52.5l-10 13q1 4 7.5 18t14.5 29t15.5 27t10.5 12q13 0 25 -4.5t25 4.5q11 -2 21.5 -4t21.5 -2q15 0 27 6
q3 -1 12.5 -0.5t21 1.5t22 2t16.5 1q16 0 32 -0.5t31 -6.5q7 5 16.5 2.5t17.5 -2.5q9 0 17.5 3t16.5 6z" />
    <glyph glyph-name="bracketleft" unicode="[" horiz-adv-x="96" 
d="M52 -13l-1 -16l9 10zM82 432h-4.5t-7.5 -1t-7 -4t-3 -9l3 -508l16 -1q2 -11 1.5 -14t-2.5 -14q-11 -1 -20 -2t-19 0l-11 13v296q0 8 2 16.5t2 16.5q0 4 -2 7.5t-2 6.5q0 12 0.5 46t1.5 72t2.5 69.5t3.5 37.5q12 2 22.5 2t22.5 -3q1 -11 1 -13.5v-12.5v-1z" />
    <glyph glyph-name="backslash" unicode="\" horiz-adv-x="335" 
d="M144 266q-3 3 -10.5 16t-15 28t-12.5 28.5t-5 17.5q-5 10 -13 18t-14 19q-15 26 -25 54.5t-32 51.5q-2 7 -3.5 10t-1.5 5t1.5 4.5t3.5 7.5q12 6 17 6t17 -7q16 -20 26.5 -44.5t20.5 -49.5t20 -48.5t24 -40.5q1 -5 10.5 -24.5t21 -41t21 -39.5t11.5 -19q3 -12 12 -26
t17 -24q-1 -9 3.5 -19.5t11 -22t13.5 -22t11 -18.5t7 -18.5t11 -16.5q2 -14 10.5 -26t18.5 -23q0 -8 -3.5 -15t-8.5 -13q-8 0 -17.5 2t-12.5 10q-4 3 -11.5 16t-15 29.5t-14 32t-9.5 21.5q-5 4 -10.5 16.5t-11 27.5t-11.5 29.5t-13 22.5q-1 12 -6.5 22.5t-12 20t-12.5 20
t-8 22.5z" />
    <glyph glyph-name="bracketright" unicode="]" horiz-adv-x="205" 
d="M131 -3l-5 -4l6 -10l7 1l2 4zM154 -5l-5 2l-2 -8zM156 8l-5 3l-5 -5l5 -5zM146 34q-3 5 -5.5 10.5t-2.5 10.5l-7 1q-2 -5 -2.5 -6.5t0.5 -15.5l6 -6t1.5 0t2 2.5t7.5 3.5zM143 60q-1 6 -1.5 6.5t-9.5 0.5l-1 -4zM134 78l2 -5q8 0 9 0.5t0 4.5h-11zM139 116l-1 -5l-3 1v-5
q-5 -2 -5 -2.5v-9.5q11 -3 12 1t-4 10l7 10h-6zM145 136q-11 2 -11.5 2.5t-2.5 0.5q-3 -8 -3.5 -8.5t-2.5 -0.5l6 -8q8 3 9 3.5t5 5.5v5zM129 157l7 -7q5 4 5.5 4.5t-4.5 5.5zM129 168q5 1 7.5 1t-5.5 2zM137 188q-4 -5 -4 -4.5t6 -1.5l3 4zM127 242q-6 1 -6.5 1t-0.5 -4
q0 -7 1 -10q6 5 6 5.5v7.5zM123 255q4 7 3.5 7t-8.5 -4zM133 266l-3 -5l4 -4l4 2v5zM143 261q6 2 6 2.5t-6 5.5v-8zM141 318q-6 0 -6.5 -0.5t-3.5 -5.5l6 -7q5 2 5 6q0 2 -0.5 3.5t-0.5 3.5zM131 338l3 -5l8 -1l2.5 2.5t0.5 4.5zM174 141q3 -1 3 -14v-18q0 -26 -2 -51
t-2 -51q0 -31 6 -62l-10 -11q-6 4 -14.5 5t-17.5 0t-17.5 -3t-13.5 -4q-8 5 -19.5 4t-19.5 -5l-8 8q-3 15 -3 31q0 9 0.5 18t1.5 18l10 9q7 -5 7.5 -4.5t6.5 2.5q6 -4 12.5 -5.5t12.5 3.5q-2 33 -3.5 54t-2.5 38t-1.5 33t-0.5 39.5t-0.5 58t-1.5 87.5q3 5 1 8.5t-2 8.5
q0 11 2 20.5t2 23.5l-19 2q-9 -3 -13.5 -5t-6.5 -2t-2 0.5t-1 2.5q-5 5 -5.5 17t-0.5 18v23.5t0.5 10.5t1.5 4.5t4 4.5q3 -2 14 -2.5t23.5 -0.5t24 0.5t16.5 0.5q4 3 16.5 1.5t17.5 -2.5q2 -4 3 -20.5t1.5 -35.5t0 -35.5t-1.5 -21.5l3 -102q-1 -8 0 -22.5t1.5 -30t0 -28.5
t-3.5 -18z" />
    <glyph glyph-name="asciicircum" unicode="^" horiz-adv-x="343" 
d="M208 634l-8 2l-2 -5q9 -4 9.5 -6.5t0.5 9.5zM245 553q-6 3 -6.5 3t-0.5 -5zM185 599q-4 -1 -5.5 -1t-3.5 -3t-5.5 -9.5t-9.5 -21.5l-42 -94q-18 2 -30 -0.5t-29 -2.5q-3 0 -5.5 3.5t-4.5 5.5q0 2 6.5 15.5t14 28.5l14 28t8.5 15q3 11 10 24t15 26t16.5 25t14.5 23
t10.5 24.5t8.5 24.5l22 5q4 -3 12 -19t18.5 -39.5t22 -50.5t22.5 -52t21 -45t17 -28v-8l-25 -2q-7 -1 -14 1t-13 2q-7 -5 -8 -5t-7 -1h-13t-5 5q2 4 -2 19t-10 32t-11 32t-5 18q-2 5 -2 12.5t-3 12.5z" />
    <glyph glyph-name="underscore" unicode="_" horiz-adv-x="385" 
d="M388 -128q-8 2 -19.5 2.5t-23.5 0.5t-23 1t-17 6q-18 -6 -32 -2.5t-33 3.5q-7 0 -14 -1t-13 -5q-15 3 -17 3t-9 -3l-4 3q-8 -5 -10 -5t-15 5l-7 -4q-12 2 -19 0.5t-20 -4.5q-8 5 -24 6.5t-24 -4.5q-9 3 -21.5 4t-21.5 -2q-4 1 -5.5 1h-3.5t-7 -1l-15 -3q-9 8 -9.5 18.5
t13.5 17.5q14 -3 28.5 -5t28.5 3q6 -4 19 -1.5t21 2.5q10 0 16.5 -2.5t17.5 -0.5l3 -4l7 4h28t28 4q5 -2 9.5 -1t10.5 1q15 0 30 -3t31 -3q20 0 41 1t42 3q9 -7 16.5 -4.5t16.5 7.5q3 -2 7.5 -4.5t7.5 -2.5q2 -4 3 -7.5t2 -6.5q-7 -11 -8 -12t-12 -5z" />
    <glyph glyph-name="grave" unicode="`" horiz-adv-x="242" 
d="M117 442q-3 -8 -3 -14q2 8 6 12zM77 478v-8l5 2zM84 512q8 -8 19.5 -21.5t24.5 -29.5q5 -7 11.5 -15.5t11.5 -10.5q2 -2 1.5 -4t1.5 -4q8 -11 16 -21t16 -19q2 -4 0 -9.5t-4 -7.5q-1 -2 -5.5 -3t-6.5 1q-5 3 -21.5 17.5t-37.5 34.5q-11 11 -25.5 21.5t-22.5 21.5
q-8 7 -15 13t-13 11q0 2 4 7.5t5 10.5q5 2 9 6l5 5q10 9 15 5.5t11 -9.5z" />
    <glyph glyph-name="a" unicode="a" horiz-adv-x="273" 
d="M136 28q-17 3 -27 9.5t-15 16.5t-6.5 23t-1.5 28q0 14 3.5 24t9 19t12.5 18t13 20q-27 -17 -45 -42.5t-18 -58.5q0 -12 7.5 -26t18.5 -23.5t24.5 -13t24.5 5.5zM165 192q-4 4 -7 4q-8 0 -17.5 -13t-17.5 -29.5t-13.5 -32.5t-5.5 -23q0 -13 3 -20t7.5 -11.5t9 -8.5
t6.5 -11q9 0 14.5 1.5t8.5 5.5t5.5 9.5t6.5 11.5q-2 0 -2 16.5v37t1 39.5t1 24zM223 25q-2 11 -9 21t-7 21l-4 320q0 11 -13.5 23.5t-21.5 20.5l-17 -2q5 -5 11.5 -9t12.5 -9q5 -28 9 -55t4 -55q0 -15 -1 -38.5t-6 -37.5l7 -22q-6 -20 -3 -44.5t3 -45.5q0 -13 -1.5 -28
t-9.5 -26q1 -7 11.5 -19t15.5 -16q9 4 19 1zM109 412q-4 0 -11 -5t-13.5 -11.5t-11.5 -13.5t-5 -10q0 -6 5 -7.5t10 -3.5q4 1 10 9.5t11 17.5t7 16.5t-2 7.5zM261 42q1 -18 -16 -30.5t-33 -12.5q-15 0 -26 9t-20 20q-9 -10 -22 -19.5t-27 -9.5q-34 0 -58 25.5t-24 59.5
q0 19 10 42t26.5 44t36 36t39.5 19l15 15q-1 32 0.5 62.5t1.5 62.5q0 13 -6 23.5t-15 19.5q-15 0 -20 -10t-8 -23.5t-8.5 -27.5t-22.5 -23q-24 9 -33 29t-5 44q7 6 23 16t34 19.5t34.5 16.5t25.5 7q33 0 46 -25t16 -59t1.5 -70t2.5 -57q-3 -7 -4 -18.5t-1 -24.5v-25v-19
v-22.5t0.5 -30t2.5 -29t6 -19.5q8 -3 15 -6.5t13 -8.5z" />
    <glyph glyph-name="b" unicode="b" horiz-adv-x="429" 
d="M211 108q-2 4 -2.5 4t-2.5 -4h5zM118 217l5 2l2 -2q1 6 -2 8t-8 -3zM231 121v-4l5 2zM147 209l2 -5q6 1 7 1.5t0 1t-2.5 1.5t-1.5 3zM124 256l-6 -7l2 -3h7zM189 204v17l-5 -5zM307 114q-2 2 -6 -1l2 -5l4 1v5zM192 227q0 4 -0.5 4t-4.5 2l-4 -9q5 1 6 1t3 2zM139 277
q3 5 2.5 7.5t-6.5 -2.5zM121 307q2 -14 1.5 -15t-5.5 -4q6 -3 8.5 3t4.5 11zM312 138q-6 -3 -7 -3t-7 6q-2 -5 -1.5 -6t4.5 -6zM142 306q-3 -1 -3.5 -1t-0.5 -4l6 3zM127 321q-3 5 -6 3.5t-5 -3.5q0 -2 3 -0.5t8 0.5zM190 271l-8 -1l8 -3v4zM118 334l3 -6q5 13 5 14t-4 3z
M146 324l-6 1l-5 -4l11 -4v7zM318 163l-10 -8v-6t8 -6l-3 6q2 3 3.5 4t2.5 2h2zM290 255q0 12 -5 23.5t-7 22.5l-5.5 5.5t-5.5 -2.5l-22 7q-16 -9 -27.5 -22.5t-6.5 -31.5q-3 -15 -3 -30q0 -23 5 -47.5t25 -38.5h8t8 1q3 5 8 6t9 3q4 8 10 14.5t4 13.5q4 8 4.5 18t0.5 19v39
zM123 364q-5 -8 -5.5 -8.5t0.5 -4.5q8 2 8.5 2.5t-3.5 10.5zM149 362q-4 2 -4 1.5t-4 -5.5q7 -2 7.5 -2t0.5 6zM125 387q-2 6 -2.5 6t-5.5 -8q5 -8 5.5 -8t2.5 10zM117 398q11 -1 9 2t-8 5zM117 416q7 -5 6.5 -2.5t-3.5 5.5zM159 382q-4 5 -4.5 5t-5.5 -2q0 -7 4 -9t6 6z
M320 222q4 4 4 4.5t-5 0.5zM124 447q-6 1 -6.5 0t-3.5 -14q7 0 7 4.5t3 9.5zM322 265l-3 -12q3 -2 3.5 -1.5l2.5 2.5l-2 3h1t2 1t1 6zM357 239l-10 7q-5 -4 -5 -5v-15l10 -1zM348 255q-7 6 -7.5 6t-0.5 -7zM173 435q-4 -5 -3.5 -4.5t7.5 -1.5q2 5 1.5 5.5t-5.5 0.5zM357 288
q4 5 4 5.5t-4 2.5v-8zM414 224q0 -35 -10.5 -60t-28.5 -43t-42 -31t-51 -24l-15 5q-13 -5 -14.5 -5.5t-10.5 -0.5q-8 5 -8.5 5t-5.5 -1q-34 9 -63 32q-13 -18 -32 -36q-13 2 -20 -1t-18 -3q-4 4 -5.5 6t-2 4t0 5t0.5 9q3 42 2 85.5t-3 87.5t-3 87.5t2 85.5q-3 4 -9 4
t-13 -2.5t-13.5 -5.5t-10.5 -5q-14 11 -16 32t-2 38q0 15 7 25l13 5q11 -5 21 -3.5t22 0.5q4 -4 10.5 -4.5t14 0.5t14.5 2.5t12 3.5q32 -14 61 2l18 -13q1 -9 -1 -19.5t-4 -21.5t-2 -21t6 -19q-2 -15 -3 -30t-3 -31l6 -4q9 8 19 15.5t22 10.5q7 -5 7.5 -5t11.5 6q5 -2 12 -5
t12 1q34 -5 56.5 -19.5t36 -36.5t18.5 -49t5 -58z" />
    <glyph glyph-name="c" unicode="c" horiz-adv-x="385" 
d="M104 81l6 2l-6 7v-9zM78 124q-3 -9 -2.5 -10t2.5 -9q3 0 3 1t-3 18zM75 139q8 5 8.5 6t-4.5 3zM106 137q-3 0 -3 -0.5v-5.5q3 -2 3.5 -1.5t-0.5 7.5zM77 185q2 6 2 6.5t-4 7.5zM370 134q0 -32 -1.5 -63t0.5 -63q-5 -8 -6.5 -11.5t-4 -5t-7 -1.5h-14.5q-6 2 -8.5 3t-5 1
t-6 -1.5t-11.5 -4.5l-8 14q3 9 5 13t2 6.5t-1 4t-4 5.5q-8 -11 -14 -17t-13 -10t-15 -6.5t-21 -6.5q-16 5 -28 -6q-13 1 -14 1t-7 -2q-30 5 -59 18.5t-52.5 34.5t-38 48.5t-14.5 60.5q0 15 7 45t19 61t27 54.5t32 23.5l11 -4q11 6 27.5 13.5t28.5 7.5q5 0 10.5 -1t8.5 -6
l6 6q24 -2 35 -3t17 -5t13 -11.5t24 -22.5l8 4q-2 5 -5.5 10t-3.5 10l1 5l10 9q11 -4 16 -4.5t8.5 1t8 3.5t13.5 2q11 0 13 -14q2 -31 1 -61t1 -60l-4 -12q-12 0 -23.5 1.5t-23.5 -1.5q-8 5 -11.5 2t-17.5 -5q-11 8 -12.5 22t-5 28t-15 24.5t-42.5 10.5q-19 -7 -30 -15.5
t-16.5 -20t-7 -26t-1.5 -33.5l1 -47q1 -34 16.5 -57.5t51.5 -23.5q20 0 36 18t23 35l-1 1v3t1 10t3 22l7.5 2.5t9.5 2.5t9 -0.5t6 -5.5q7 1 13 2t13 1q10 -4 11 -4t10 3z" />
    <glyph glyph-name="d" unicode="d" horiz-adv-x="404" 
d="M84 157l7 -3q4 9 4 9.5t-5 4.5zM288 88q5 1 5.5 1.5t-3.5 5.5zM297 101q-4 2 -4.5 6.5t-0.5 8.5l-8 -4q1 -5 1 -6t8 -13q3 2 3.5 2.5t0.5 5.5zM256 196q-4 5 -7 11t-3 12q0 11 7 23q0 14 -3.5 28t-11 25t-19 18.5t-27.5 8.5q-22 -7 -31.5 -18.5t-17.5 -31.5l4 -124
q4 -5 4.5 -13.5t1 -18.5t2 -19.5t9.5 -16.5t15.5 -6.5t15.5 -4.5q24 13 32 18t9.5 9.5t2 11.5t11.5 24q0 4 -1 8t-1 9q0 11 2.5 23.5t5.5 23.5zM300 112l5 2l-2 7zM302 147l-10 -1q0 -9 -5 -19l5 -4q8 1 10.5 1.5t2.5 2t0.5 5t3.5 11.5zM122 309q7 -2 7 -1t-2 6zM297 161
l-5 -4h7zM303 178l-9 1l1 -13h8v12zM289 187q5 3 5.5 3.5t-3.5 2.5zM293 211q-3 -2 -3 -2.5t5 -7.5l7 1zM287 233l-3 2l-5 -1v-7zM317 216q-5 3 -5.5 2.5l-6.5 -6.5l3 -3l9 2v5zM301 228q0 4 -3 8t-6 6l1 11l-6 1q-6 -7 -0.5 -15t11.5 -13zM308 255q-2 6 -7 8.5t-8 7.5
q-2 -9 -1.5 -9.5l6.5 -6.5h10zM281 286l12 -6q2 4 1.5 5t-8.5 9zM298 321q-2 1 -3 2t-2.5 1t-5 -1t-10.5 -2q8 -9 8.5 -10t0.5 -6l12 9v7zM297 349q-8 2 -8.5 1.5t-0.5 -5.5q4 -2 4.5 -1.5t4.5 5.5zM403 63q-5 -3 -9.5 -6.5t-8.5 -8.5h-9q-2 3 -7.5 3.5t-12 0.5t-12.5 -0.5
t-9 -0.5q-16 5 -32.5 3t-28.5 -5q-5 -1 -6.5 2.5t-2 8.5t-0.5 10.5v8.5l-9 4q-5 -6 -14.5 -13t-11.5 -15q-9 -3 -17 -9t-18 -6q-39 0 -65 9.5t-44 28t-29.5 45t-20.5 61.5q6 10 6.5 20.5t1 22.5t5 26.5t19.5 32.5q5 16 20 26t33 16.5t36 10.5t30 7q2 -3 2.5 -3t8.5 3
q13 -4 24.5 -10.5t22.5 -14.5l11 7q-8 6 -11.5 16t-5.5 21.5t-2 23v20.5q0 19 3.5 37t3.5 37q0 8 -8.5 10t-14.5 2q-10 0 -19 -4t-19 -4q-6 0 -10.5 7.5t-6.5 12.5l16 20q8 -1 17 -5t17 0q10 -2 17 -3.5t13.5 -2t13 0.5t16.5 6q16 -3 17 -3.5t3 -2.5q16 2 28 7l14 -7
q5 -106 6.5 -212t4.5 -212l10 -16q15 3 22.5 4t10.5 1t4.5 -2t6.5 -6v-11z" />
    <glyph glyph-name="e" unicode="e" horiz-adv-x="481" 
d="M114 32q0 -7 2.5 -9t5 -1t3 4t-2.5 6h-8zM81 69q8 0 7.5 0.5t-5.5 7.5zM108 80q-6 10 -6.5 11.5t1.5 12.5q-10 2 -10.5 2t-2.5 11l-9 8l-5 -15q4 -5 7.5 -7.5t5.5 -4.5t3 -6t1 -12l14 -4zM141 71q-11 -3 -12 -3t-7 3v-10q6 -2 10.5 1.5t8.5 8.5zM82 130q2 4 2.5 4t-3.5 2
zM134 105l-3 -4h11zM94 160q-9 0 -10 -0.5t-4 -5.5l9 -8q5 6 5 6.5v7.5zM109 185l-4 -5q5 -3 6 -3t3 4zM360 46q-5 0 -5.5 -1t0.5 -12q5 4 5 4.5v8.5zM373 47q-7 -9 -7 -9.5t5 -3.5q7 5 7 5.5t-5 7.5zM305 156q-3 12 -2.5 25t2.5 25q-6 5 -14.5 7.5t-16.5 3t-14 1.5t-7 3
q-18 0 -36.5 -7t-40.5 -6q-5 -16 -4 -30.5t3 -28.5q9 -4 20.5 -3.5t24 2.5t25 4.5t22.5 2.5q9 0 12.5 -3t20.5 -1zM333 136l3 5l-4 2zM348 150q-2 -5 -1.5 -5.5t7.5 -5.5q0 10 -0.5 10.5t-5.5 0.5zM364 128q1 2 3 5.5t3 6t-0.5 3.5t-5.5 -1v-14zM457 85q-10 3 -27 5.5
t-35 3.5t-35 0t-27 -6l-25 -2l-9 6q-20 -7 -50.5 -6.5t-53.5 2.5l-3 4l-16 -5q6 -16 5 -32.5t-1 -32.5q8 -8 9 -8.5t10 -0.5q12 -6 16 -7t5.5 0t3.5 1.5t10 -3.5q7 1 19 0.5t23.5 1t20 6t8.5 15.5q0 10 -1.5 12t-2.5 3.5t-0.5 6t5.5 21.5q14 2 29 2.5t29 1.5q3 -5 13.5 -3.5
t15.5 3.5l29 -6q12 5 24 5q6 0 10 -4.5t4 -10.5q0 -14 -15 -29.5t-35.5 -30t-41.5 -26t-33 -16.5q-20 -9 -42.5 -10.5t-44.5 -3.5q-1 1 -1 2t-2.5 0.5t-8 -3t-17.5 -6.5q-8 3 -16.5 6t-17.5 3q-21 16 -38.5 22.5t-32.5 10.5t-27 8t-22.5 14.5t-18.5 30.5t-15 56q-2 0 -2 1.5
v18.5q-1 43 15.5 73t44.5 50.5t63 33.5t71 23q1 -1 15.5 -3t32 -4t33.5 -4t20 -2q19 -21 35.5 -29t30.5 -12t26 -8.5t21.5 -17t16.5 -38t11 -71.5z" />
    <glyph glyph-name="f" unicode="f" horiz-adv-x="183" 
d="M105 98q-2 2 -3 3.5t-3 1.5t-4 -2q-1 -5 -1.5 -10.5t-2.5 -10.5l7 -11l3 14q0 2 -0.5 3t-0.5 3q1 3 2 5t3 4zM94 141l3 -4v3v4zM112 134q-2 1 -3.5 2t-3.5 1v-2v-2v-2l5 -2zM97 172l-5 -7q1 -1 3 -2.5t3 -1.5q1 3 1 11h-2zM93 201l4 -4q1 2 3 4.5t2 4.5q-2 2 -8 4z
M103 210q1 -2 3 -4.5t4 -2.5q0 2 0.5 3t0.5 3t-1 4.5t-2 4.5zM107 248q-4 6 -8 5h-6l6 -4q2 -9 3 -12.5t-3 -11.5l8 1q1 3 1 10q0 3 -0.5 6.5t-0.5 5.5zM99 266q0 2 -1.5 4t-2.5 4q2 -3 1.5 -6.5t-1.5 -6.5l4 -2v7zM105 299q1 2 4 7t3 7q-3 0 -7 -2v-12zM101 356l4 -1
q2 0 2 2t-0.5 4t-0.5 4zM182 552q0 -14 -10 -23t-21 -15q-10 5 -20 10.5t-15 16.5l-10 -17q8 -15 14.5 -30.5t12.5 -30.5q3 -2 7.5 -4t8.5 -2q2 0 6 2t5 3q7 -1 12.5 -5t5.5 -12t-5 -13t-12 -7q-7 2 -12 3.5t-13 1.5q0 -51 -1 -100.5t-1 -99.5v-143q0 -12 5 -19.5t11 -14
t11 -12.5t6 -13q-3 -5 -5 -8t-7 -5l-8 2t-8 1q-5 0 -10.5 -1t-10.5 -2l-16 8l-20 -8l-27 3l-14 -4q-3 7 -3 15q0 13 12 21.5t17 20.5q3 172 3 345q-2 2 -5 6.5t-5 4.5t-6.5 -1.5t-6.5 -2.5l-14 17q-1 8 4.5 14t12.5 8q2 -3 4.5 -3h4.5q5 0 6 4.5t1 7.5q0 7 -2 13.5t-2 12.5
q0 34 22 62.5t56 36.5q14 -7 28 -17t14 -27z" />
    <glyph glyph-name="g" unicode="g" horiz-adv-x="463" 
d="M84 39q-5 0 -9 -4t-7 -9q2 -5 2.5 -5h5.5l8 11q3 -8 3.5 -8t0.5 3t-1.5 7t-2.5 5zM76 44q-2 8 -2.5 8.5l-5.5 5.5q-2 -11 -2.5 -13.5t10.5 -0.5zM109 14v14.5v6.5t-1 4l-3 6l-4 -7q1 -6 0.5 -13.5t-8.5 -9.5q3 -4 4 -4t12 3zM65 78l-2 -4l-3 1l-7 -6l7 -7q0 9 0.5 9.5
t1.5 -1t2 -1.5t1 9zM339 -68q-3 7 -11 12.5t-18 8t-20 2t-17 -4.5q-12 6 -25 4t-26 -1q-5 -2 -5 -2.5t-4 4.5q-4 0 -15.5 -0.5t-23.5 0t-22.5 1t-12.5 2.5q-8 -2 -17.5 -4.5t-17 -6.5t-11.5 -10.5t-1 -18.5q20 -10 50.5 -19t53.5 -5l7 -3l22 5q3 -2 9.5 -1.5t14 1.5
t14.5 2.5t11 1.5l6 -2l2 2q11 1 22 5.5t20 11.5q6 1 9 5.5t6 9.5zM54 101l-1 -5l5 3zM111 75q0 -6 0.5 -6.5t6.5 1.5zM177 26q-6 6 -7.5 7t-2.5 -0.5t-2.5 -4t-6.5 -4.5q0 -5 0.5 -5t8.5 5l2.5 -2.5t5.5 -3.5zM171 52q-3 2 -3.5 1.5t-8.5 -5.5l4 -4q5 2 5.5 2.5t2.5 5.5z
M146 88q5 0 5 0.5v9.5zM217 35l-9 -6q14 -3 15 -3t1 1zM184 92q-9 3 -19 3l-6 -9q8 -2 9 -1.5t5 7.5q8 -5 8.5 -5t2.5 5zM231 38l-2 -4h7zM261 32q-1 -7 -0.5 -7.5l3.5 -3.5q13 6 3 15zM230 65q-2 -4 0.5 -6t5.5 -2t5 1.5t1 4.5zM58 254q0 -8 0.5 -8.5t6.5 -0.5zM284 36
l-9 -3v-5q5 -2 5.5 -2t8.5 5zM99 243q-5 -4 -8 -9t6 -7q4 11 4 11.5t-2 4.5zM304 36h-6l2 -9l7 2zM104 262h-9.5t-4.5 -7q0 -5 0.5 -5t13.5 5v7zM337 33q-9 -6 -12.5 -6t-5 1.5t-1.5 2.5t-2 -4q8 -7 8.5 -7h4.5q9 8 9.5 9t-1.5 4zM121 248q-5 5 -6 5t-10 -6l10 -4
q-1 4 -0.5 4.5t6.5 0.5zM294 84l-3 -2l6 -8q4 3 3.5 3.5zM126 275q-2 5 -2.5 5t-5.5 1q1 -8 1 -8.5t7 2.5zM228 317q-5 7 -12.5 12t-16.5 5l-17 -14q-3 -17 -3.5 -37.5t0 -41t2 -38.5t1.5 -29q11 -11 22 -12q7 4 10.5 7t5.5 6t3.5 7.5t4.5 10.5v124zM282 245
q-2 -4 -3.5 -7.5t-3.5 -7.5q8 -2 8.5 -1t-1.5 16zM448 279v-1q2 -15 -10 -18t-23 -6q-8 4 -14.5 8t-11.5 10q-2 15 -4 24t4 24q-5 3 -9 -0.5t-7 -9.5t-4.5 -12.5t-1.5 -10.5q5 -13 10.5 -25t9.5 -26q-11 -15 -19 -27.5t-18 -22.5t-23.5 -16t-34.5 -9q-1 -3 -10 -4.5
t-20.5 -2.5t-23.5 -2.5t-19 -5.5q-14 3 -16 3t-9 -6q-22 11 -49 5q-8 4 -9 4t-9 -3q-14 8 -28.5 7t-29.5 -2q-7 -6 -10 -9l-4.5 -4.5t-1.5 -2.5v-2q0 -8 9.5 -14t16.5 -6q9 0 15 0.5t13 5.5q7 -3 14 -3.5t14 -0.5q11 0 22 1t22 3q4 -3 6 -5t5 -2t9 0.5t20 2.5q4 -5 10 -3.5
t11 3.5q15 -2 30.5 -2.5t31.5 0.5q13 -4 24 -8q10 -4 20 -7.5t15 -6.5q8 -16 17.5 -32t9.5 -35v-51q-9 -9 -10 -17t-1.5 -16t-3 -16t-13 -16.5t-33 -18t-62.5 -19.5q-8 -2 -17 1.5t-14 4.5q-8 -4 -16.5 -6.5t-17.5 -2.5q-8 0 -20 4t-17 -1q-23 10 -47.5 12t-48.5 8
q-4 6 -10.5 8.5t-12.5 5t-10.5 7t-5.5 15.5q4 13 10 18t13.5 6t16 0.5t18.5 1.5l5 5l-5 2q-19 -5 -32 4t-20.5 25t-10.5 35t-3 33q0 2 0.5 8l1 12t0.5 10.5t-2 4.5q6 12 7.5 24.5t4 23t9 19.5t23.5 14q14 -4 28 -6l28 -4q5 1 5.5 1t-3.5 5q-12 -5 -26 2.5t-28 9.5
q-7 5 -15 12.5t-15.5 15.5t-12.5 17.5t-5 18.5q0 19 9.5 34t24 26.5t32 20t33.5 13.5q13 0 20.5 2.5t18.5 5.5q3 -3 3.5 -3t8.5 4q5 -2 11.5 -0.5t11.5 3.5q16 -4 17 -4t4 3q37 -4 74 -16t65 -39q2 16 2 17t2 3q4 17 18.5 25t30.5 8q10 0 19 -5.5t16 -14.5t11 -19t4 -19z
" />
    <glyph glyph-name="h" unicode="h" horiz-adv-x="462" 
d="M482 32q-1 -13 -13 -16t-22 -3q-5 0 -14 0.5t-19.5 1.5t-19.5 2.5t-12 3.5l-8 -4q-8 2 -16.5 3.5t-15.5 -5.5q-14 2 -23 -1t-22 -5l-20 17q0 9 4.5 13t12 5.5t15 0.5t13.5 -2q10 8 15.5 26.5t7.5 40t2.5 42t0.5 32.5q0 25 -1 42t-7.5 29t-20.5 20.5t-39 17.5q-2 -7 -9 -5
t-17 -8q-19 1 -31.5 -13.5t-20 -35t-10.5 -42.5t-3 -36q0 -13 -1 -20t-2 -15t-1.5 -19.5t-0.5 -32.5q4 -6 12 -12.5t18 -11.5t19.5 -6.5t15.5 2.5l8 -9l-13 -17q-8 4 -17 1.5t-17 -2.5q-5 0 -13.5 1.5l-17 3t-15.5 1.5t-10 -3q-8 1 -19 2.5t-24 1t-26 -4t-24 -11.5l-26 21
q1 5 1.5 7t2 4t5.5 4.5t13 7.5q11 -7 27 -7q18 0 26 17t10.5 40t1 45.5t-1.5 33.5q0 20 2.5 41.5t2.5 41.5q0 17 -4 32.5t-4 32.5q0 3 1.5 7l3 8t2 7.5t-2.5 3.5q0 28 -4 45.5t-15 27.5t-29.5 13t-45.5 3l-8 15l18 20l15 -6t8 -2t6 2t10 5l15 -7l5 6q33 -13 69 -1l14 -4
q8 -9 8.5 -15.5t-3.5 -16.5q1 -23 -0.5 -45t-1.5 -44q0 -26 0.5 -52t1.5 -52q12 4 18.5 17t16.5 27.5t27.5 25.5t52.5 11q26 0 47.5 -16t36.5 -39.5t23 -50.5t8 -50q0 -12 -2.5 -24.5t-8.5 -23.5q0 -12 1 -25.5t5 -24.5t13 -18.5t26 -7.5q4 -6 12 -4t13 4z" />
    <glyph glyph-name="i" unicode="i" horiz-adv-x="270" 
d="M144 148q-8 7 -13 8t-13 -13l7 -1q7 7 7.5 7t11.5 -1zM125 214q3 5 0.5 16.5t-2.5 19.5l-5 -7q-1 -2 -2.5 -4t-1.5 -4q0 -7 1.5 -13t3.5 -13zM151 221q-8 2 -9 1.5t-3 -9.5zM118 262q12 4 12 4.5t-14 3.5zM153 238q9 0 6 1t-5 5zM139 252l6 2l-4 4zM117 295l3.5 -3.5
t7.5 -4.5q4 5 3.5 5.5t-14.5 2.5zM157 284q9 -4 11.5 0t-14.5 8l3 -8l-7 -12q10 -2 10 -1t-3 13zM129 330q-2 5 -2.5 5t-7.5 -3q1 -5 1.5 -5.5t8.5 3.5zM158 327q0 9 -0.5 9.5t-9.5 0.5l-5 -15q7 8 9.5 6t5.5 -1zM135 357q11 -4 11.5 -3.5t2.5 5.5zM239 91q-11 4 -16 5.5
t-15 -3.5q-1 0 -10.5 0.5t-21 0.5t-21.5 -0.5t-13 -1.5q-9 3 -20 2.5t-22.5 -2t-22.5 -3.5t-18 -2q-12 0 -18 3t-14 11l1 34l11 9q9 1 12.5 1.5t7 0.5t9.5 -1.5l18 -4.5q-1 77 -1.5 113.5t-1 50t-1.5 12t-2 -0.5q-2 14 -2.5 27t1.5 27q-20 3 -37 -7q-8 1 -12 13t-4 18
t3 17.5t12 11.5t15.5 -3t17.5 -1q9 -2 18 -2.5t17 -6.5l31 -1q13 -1 26 2.5t25 8.5l16 -11v-18.5t-5 -17.5q3 -6 4 -17.5t1.5 -24.5t0.5 -25v-19q0 -8 0.5 -19.5t0 -23.5t-2 -22t-4.5 -16q3 -7 0 -17t2 -17q2 -4 0 -13t-1 -17q10 0 19.5 3t19.5 3q3 0 5 -5t3 -11t1.5 -12
t0.5 -9zM103 359l7 12l15 -8q-5 -10 -5 -11.5t-7 -1.5zM115 184l7 6q8 -5 8 -7t-5 -5zM207 508q0 -12 1 -27t0.5 -28t-5 -22t-15.5 -9q-9 5 -20 6.5t-22 2.5l-22 -8q-13 4 -14 3.5t-9 -3.5q-8 7 -11 20.5t-3 22.5q0 15 2 29.5t1 29.5q4 5 8 9.5t10 5.5q7 -5 18.5 -7.5
t23.5 -2.5t23.5 2t18.5 7q4 1 7 -2.5t5 -8.5t2.5 -10.5t0.5 -9.5z" />
    <glyph glyph-name="j" unicode="j" horiz-adv-x="160" 
d="M122 288q-9 -1 -9.5 -1.5t-5.5 -9.5q4 -3 4.5 -3t11.5 3zM111 305q2 4 1.5 4t-6.5 -1zM85 -96q-5 1 -7.5 -3t-4.5 -9q14 -9 15 -3t-3 15zM127 -95q-3 -19 -9 -35q-5 -14 -14.5 -26.5t-25.5 -17.5l-30 20q-4 18 -8 36.5t-4 37.5q0 11 1.5 22t-0.5 22q6 9 8.5 13.5t5 5
t6.5 -1.5t13 -5q0 -7 1 -13q0 -5 0.5 -10.5t0.5 -10.5q13 -7 14.5 -7t6.5 6q8 41 7.5 85t-0.5 85q0 28 -1.5 57t-6.5 55q-2 6 -6 8.5t-8 4t-7.5 5.5t-3.5 13q0 24 -0.5 49.5t6.5 49.5q5 2 10 3l10 2q6 -3 11.5 -3t10.5 -0.5t8 -4t3 -12.5zM117 410q-10 -2 -11 -1.5t-13 5.5
q-3 5 -4.5 17t-2 26.5t0 27.5t0.5 19q0 15 6 19.5t18 9.5q11 -11 15 -24.5t4 -27.5q0 -16 -2 -31.5t-2 -30.5z" />
    <glyph glyph-name="k" unicode="k" horiz-adv-x="259" 
d="M97 36q-5 3 -5 2.5t-2 -6.5q2 -5 5 -6t5 -6zM83 155l-7 -11l3 -6l5 -1l4 11zM103 136l-7 5l-3 -7l10 1v1zM106 168q-5 -7 -4.5 -7.5t7.5 -0.5zM89 185l-7 -11q3 -6 3.5 -5.5t1 2t1.5 1.5t5 -5l3 9zM92 260q-8 5 -8.5 4.5t-2.5 -5.5l11 -12v13zM166 200q12 -23 19 -49.5
t14.5 -52t19.5 -48t36 -38.5v-14q-4 -5 -9.5 -9.5t-12.5 -4.5q-11 0 -15.5 1.5t-8.5 3t-10 0.5t-18 -5l-23 6q-7 11 -8 16t2 8t8.5 6.5t10.5 12.5q-5 13 -9.5 29.5l-9 33t-10 32t-12.5 25.5q-20 -17 -23.5 -45t-3.5 -53v-19l25 -19v-23q-17 -8 -43.5 -8t-46.5 -2
q-5 9 -7 12.5t-2.5 6.5t0.5 6t3 11q11 7 17 31.5t8 53.5t0.5 56.5t-5.5 42.5q3 7 4 23t1.5 33.5t0.5 34v25.5v141q0 21 -22 29q-1 2 -3.5 9t-2.5 9q0 8 5 14t13 6q5 0 6.5 -1t3 -1.5t3.5 0t9 2.5q3 -1 9.5 -1t13 -0.5t11.5 -3.5t5 -10q0 -68 -3.5 -134.5t-3.5 -134.5v-36
t1 -36q3 -2 13 14.5t21.5 38t22.5 41.5t15 26q-3 5 -5 6t-6 1t-9 0.5t-14 3.5l-5 9q3 7 4 11t2 5.5t2.5 2.5l4.5 3q18 -2 35.5 0.5t34.5 2.5q8 0 17.5 -4t11.5 -12q4 0 4 -1t-8 -18q-29 -18 -46 -45t-32 -57z" />
    <glyph glyph-name="l" unicode="l" horiz-adv-x="152" 
d="M79 37q-2 -8 -1.5 -9t5.5 -6q3 11 2.5 12t-6.5 3zM85 79q5 5 5 5.5t-5 5.5v-11zM137 -79q-17 3 -32 1t-32 3q-11 -2 -15.5 -2.5t-7 -0.5t-5 0.5t-7.5 2.5q0 22 6 39.5t6 37.5q0 29 2 59t3 59q-5 9 -5.5 23.5t0 31t0.5 32.5t-3 28q8 48 3 95.5t-5 93.5q0 13 3.5 24.5
t-2.5 23.5q-1 15 -7.5 26.5t-6.5 18.5q0 9 5.5 13.5t13.5 7.5q13 0 22 5t16.5 12.5t15 16t16.5 14.5q3 -2 4.5 -2.5t2 -2.5t1 -6.5t0.5 -13.5q0 -15 -4 -30t-4 -30v-121.5t-1 -120.5q-1 -2 -1.5 -1t-0.5 -10.5v-44v-99.5q5 -16 5 -35t-0.5 -40.5t1.5 -44.5t13 -45v-18z" />
    <glyph glyph-name="m" unicode="m" horiz-adv-x="576" 
d="M130 289q-4 -6 -3.5 -7t8.5 -7zM296 296q2 -6 2 -6.5t8 1.5zM545 96q-20 0 -39.5 1t-39.5 4q-14 -5 -27 -4t-27 4l-9 -4l-8 12l1 49h18.5t16.5 7v11.5t4 8.5q-1 19 0 39.5t-2 36.5t-13.5 26.5t-35.5 10.5q-8 0 -17 -1.5t-16 -7.5v-87q5 -4 4.5 -11.5t-1 -15.5t2 -13.5
t13.5 -4.5l16 1v-21l-6 -5l6 -5q1 -7 2 -10.5t0 -5.5t-3.5 -5l-7.5 -9q-17 1 -33 0q-3 4 -3.5 4t-6.5 -4q-7 3 -19 4t-25 0.5t-25.5 -1.5t-20.5 -1l-9 6v51q5 5 14.5 4.5t15.5 -0.5q2 10 5.5 19t3.5 19q0 6 -4 12.5t0 11.5q3 12 1.5 24.5t0.5 25.5q-6 11 -15.5 20t-22.5 9
q-10 0 -18.5 -2t-17.5 -4q-4 -3 -4.5 -8t-0.5 -10v-117q7 -1 12 -0.5t9 0.5t7 -2t6 -8q-2 -12 -2 -23.5v-23.5q-14 -3 -26 -5t-26 3q-21 -7 -46 -5.5t-47 1.5q-15 0 -18 8t-3 21v9t1 12t3.5 10.5t7.5 4.5q2 0 8 -2.5t8 -3.5q7 2 8 2.5t6 8.5q3 8 3 17t-2 17q3 5 3 5.5
t-4 7.5l4 10q-3 10 -3.5 20t-0.5 20q-2 2 -2.5 3.5t-3 1.5t-7.5 -1t-15 -2l-14 4q1 10 0 20.5t4 18.5l117 66h15q2 -8 -1 -19t5 -13q15 13 35.5 21.5t40.5 8.5q24 0 38 -12.5t30 -26.5q10 4 19.5 10.5t19.5 12.5t20.5 10t22.5 4t25.5 -4.5t26 -12t23 -17.5t15.5 -21
q6 -14 8 -33t2 -39.5t-1 -40t-1 -35.5v-9q5 -1 7 -1.5t4 -0.5h5.5t10.5 1l14 -8v-47z" />
    <glyph glyph-name="n" unicode="n" horiz-adv-x="344" 
d="M316 -42q0 6 -1.5 19t-9.5 13q-4 0 -5 -5.5t-1 -12.5t1 -13.5t1 -8.5q-3 -7 -10 -10t-16 -3.5t-17.5 0t-13.5 0.5q-2 3 -3 3t-11 3q-8 -3 -15.5 -5t-15.5 0l-4 -4l-14 16q2 23 5 35.5t-5 26.5q3 6 8 10.5t12 5.5q8 -2 16 -8q3 3 4 7.5t1 8.5q-4 4 -4 4.5t3 5.5
q-5 17 -4 34.5t1 35.5q0 22 -11.5 30.5t-31.5 12.5l-8 -6q-2 -6 -5.5 -15t-3.5 -16v-89q8 -14 9 -28.5t1 -28.5q0 -17 -2.5 -23.5t-7.5 -9t-14 -2.5t-21 -4v3q-14 -3 -15 -3t-3 3q-15 0 -26.5 -4.5t-24.5 -6.5l9 -3l4 1q11 -8 22.5 -3.5t16.5 8.5l6 -2l-2 -2q4 -2 5.5 -3
t3.5 -1h6.5h14.5l3 3t2.5 1.5t5 1t11.5 0.5q8 -4 9.5 -4h13.5q4 2 8 3t9 3q12 -2 13 -2t7 -4l14 3l2 -5q9 0 22.5 0.5t26 3t21 9.5t8.5 21zM95 178q-14 11 -24 6.5t-2 -11.5v5q14 -8 15.5 -8t10.5 8zM217 175q-6 6 -14.5 7.5t-13.5 9.5l-4 -2l-5 2q-14 -4 -15 -4t-3 3
q-6 -7 -13.5 -10t-15.5 -8q-7 -15 -8.5 -23t-1 -15t2 -15.5t1.5 -22.5q0 -17 -3 -34.5t-3 -34.5l9 -9l7 3q0 26 -1.5 51t-1.5 51q0 21 4 30t9 13t10 5.5t7 7.5q5 -3 11 -3t11 1q14 -5 15 -5.5t3 -4.5l13 1v6zM276 149q0 16 -1.5 38t-11.5 36q-4 0 -5.5 -0.5t-1.5 -5.5v-192
q7 -5 7.5 -5h7.5q3 5 5 7.5t2 4.5t-1.5 5t-3.5 10l2 8t1 9v85zM288 -102q-11 3 -11.5 3t-8.5 -2q-8 3 -19.5 5.5t-18.5 -4.5q-8 3 -8.5 3t-6.5 -5q-3 4 -11.5 4.5t-19 0.5t-20.5 0.5t-16 2.5q-11 -5 -22 -8t-23 -3q-3 0 -9 0.5t-12.5 1t-11.5 0.5t-5 -2q-8 3 -16 7.5
t-8 13.5t9 14q-11 9 -11 25v18.5t1.5 25t5 22t10.5 9.5h7l-1 -2l12 -6l4 3h7l1 19q1 9 -2 17.5t-5 16.5h2q2 10 2 20v20q4 5 2.5 6.5t0.5 7.5l-3 21q-9 2 -12.5 -1t-11.5 -3q-15 0 -16 8t3 19q-2 4 -3.5 11.5t-2 16t0 16.5t2.5 11q0 13 3.5 26t17.5 19q7 -3 8 -4t2.5 -1h5.5
h16q5 0 5.5 -1t7.5 1l13 -8l1 -22q7 -1 9.5 5.5t6 13.5t11 12.5t25.5 3.5q6 6 6.5 6h6.5q8 -5 17 -7.5t17 4.5q30 -17 45.5 -32.5t22.5 -33.5t7.5 -41t-0.5 -56q-1 -1 -1.5 -0.5t-0.5 -6v-24v-54.5l4 -4t2.5 -1t4.5 1t10 3q8 -8 12 -16q0 -11 2.5 -22t2.5 -22v-29.5
t-0.5 -14t-3 -7.5l-7.5 -9z" />
    <glyph glyph-name="o" unicode="o" horiz-adv-x="318" 
d="M238 92q-2 11 -5.5 35t-9 54t-13 61.5t-16 58t-19 43.5t-22.5 17q-5 11 -12.5 11t-16.5 -1q-19 -16 -28 -38.5t-9 -46.5q0 -20 3 -57.5t10 -77.5t16.5 -74.5t23.5 -47.5q7 -6 13.5 -11t11.5 -13q28 -6 40 5.5t16 28.5t6 33.5t11 19.5zM259 185q-6 2 -6.5 2t-3.5 -5l9 -7z
M286 185q-2 0 -2.5 -4t0 -9.5l1 -11t0.5 -7.5q0 -16 -4 -38.5t-11.5 -45t-18 -41.5t-24.5 -28q-7 -5 -13.5 -8t-11.5 -10q-8 -1 -17.5 -2.5t-17.5 -6.5q-10 7 -22 8.5t-21 7.5q-26 18 -44.5 44t-30 56t-16.5 62t-5 62q0 9 4 27.5t10.5 40.5t16 44t20.5 39.5t23 26.5t24 5
q12 5 25.5 3t23.5 -11q17 -4 34.5 -22.5t32 -42.5t25 -48.5t12.5 -40.5q2 -12 1.5 -25t5.5 -24z" />
    <glyph glyph-name="p" unicode="p" horiz-adv-x="286" 
d="M76 -63l3 -7q5 5 8 9.5t-2 10.5zM81 11l-7 -1q1 -5 1 -5.5t7 -4.5zM63 41q3 -6 3.5 -6.5t3.5 1.5q1 8 0.5 9t-3.5 3zM76 118l4 3l-3 2zM64 142l-1 -16q5 -2 5.5 -1t2.5 17h-7zM211 122q-2 -3 -2.5 -3t1.5 -5q3 3 3 3.5t-2 4.5zM81 256l-5 2l-2 -4zM215 134
q-2 -5 -1.5 -5.5t5.5 0.5zM184 231q-2 4 -3 16.5t-3 26t-5 23.5t-9 10q-8 -4 -11 1t-11 5q-9 0 -14.5 -7t-12.5 -12q-8 -37 -8 -72q0 -25 1.5 -49t1.5 -49q2 -5 4.5 -12t9.5 -7q5 -2 7.5 -4.5t7.5 -0.5q8 -7 21 -7q10 0 14 11.5t5.5 26.5t2 29.5t3.5 20.5zM78 289
q-2 3 -2.5 3.5t-5.5 -1.5q3 -6 3 -6.5t5 4.5zM214 169q-2 -6 -2.5 -6.5t4.5 0.5zM84 317q-4 0 -4.5 -0.5t-4.5 -7.5l3 -4zM106 320q5 0 5 0.5t-2 5.5zM211 313q-1 0 -2.5 -4t8.5 2zM255 102q-11 -12 -14.5 -20t-6.5 -15t-10.5 -15t-26.5 -21q-8 1 -8.5 1t-4.5 -4
q-10 -2 -16 -2q-16 0 -28.5 11t-26.5 16q-6 -4 -6 -16v-20q0 -26 3.5 -53.5t6.5 -53.5q-4 -6 -8 -13t-12 -8q-5 3 -7.5 5t-4.5 2.5t-4 0t-7 -1.5q-4 -6 -10.5 -7t-12.5 0q-8 6 -13.5 11.5t-5.5 16.5q0 44 5 87t5 87q0 9 -1 18t-5 17l6 25q-8 19 -8 44q0 18 2 35.5t2 35.5
q0 20 -3 40.5t-3 40.5q5 8 8 17.5t14 9.5q16 0 31 -7t28 -16q13 11 29 15.5t29 14.5q11 -7 12 -7t6 2q19 -8 30 -19t17 -22t9.5 -19t6.5 -9q1 -14 2 -25t-1 -24q8 -19 7.5 -48t-0.5 -48q0 -15 -1 -29.5t-4 -29.5z" />
    <glyph glyph-name="q" unicode="q" horiz-adv-x="363" 
d="M286 -11q-10 -3 -10 -3.5t2 -10.5zM85 191l-5 -5h7zM268 -4l13 4l-10 3zM75 211q-5 4 -5 3.5t-5 -2.5q2 -13 6 -10t4 9zM287 100q-2 8 -2 8.5t-5 2.5v-11.5t7 0.5zM247 290q-3 5 -3 9.5v9.5q0 3 -2.5 5.5l-5.5 5.5t-4 7t2 10q-6 16 -22.5 27t-32.5 11q-20 0 -33 -9.5
t-20.5 -24.5t-10.5 -32.5t-3 -33.5v-70q6 -9 6 -30t2 -42.5t10 -38.5t29 -17q48 0 68 27t20 73v113zM273 296q-1 -8 -1 -9t2 -8l9 8zM268 320q3 -7 3.5 -7h6.5q0 8 -0.5 8.5t-9.5 -1.5zM358 -123q-8 -3 -9 -3t-9 6q4 6 8 6.5t10 -1.5v-8zM358 367q-21 -5 -30 -7t-10.5 -6.5
t0.5 -14t2 -29.5v-192q0 -28 -4.5 -55.5t-4.5 -56.5q0 -10 -0.5 -28t0 -37t4.5 -35t13 -21q0 -8 -0.5 -8t-12.5 -1q-7 0 -13 1.5t-13 3.5q-10 -6 -20.5 -6t-21 1.5t-21 2t-20.5 -5.5q-10 7 -10.5 8t7.5 13q8 -2 15.5 -3.5t15.5 -3.5q8 14 7 29t-4 29q9 18 6.5 44t-2.5 46
q0 13 2 25.5t4 25.5q3 6 -4 4.5t-17.5 -6.5t-22 -11.5t-15.5 -10.5q-8 2 -17.5 2.5t-17.5 -0.5q-13 5 -25.5 10t-25.5 9q-5 6 -10 11.5t-12 9.5q-6 10 -14.5 24.5t-16 30t-12.5 31t-5 27.5q0 23 8 53.5t25 46.5q7 27 24.5 41.5t36.5 21.5t34 9t17 4q19 -6 32.5 -11t27.5 -22
q7 5 11.5 11t11.5 10q12 -5 24.5 -5t24.5 0.5t24 -1t25 -8.5z" />
    <glyph glyph-name="r" unicode="r" horiz-adv-x="420" 
d="M160 101l-4 2l4 5v-7zM95 61l-4 -4l5 -2q2 3 2 3.5t-3 2.5zM138 76q9 -1 9.5 -0.5t-4.5 7.5zM166 112q-8 5 -14 13l-5 -9l-8 1q-2 -3 -1.5 -3t4.5 -4l5 6q4 -6 4 -7t-3 -7q5 -14 3.5 -20t7.5 -1q-2 10 -0.5 14t4 6t3.5 4t0 7zM146 145l1 -6q8 2 8 2.5v5.5zM197 120
q-5 0 -5.5 -1t-6.5 -10h7.5t4.5 5v6zM178 140q-6 -1 -6.5 -1.5t-3.5 -6.5l7 -11l8 12zM144 155q4 -2 4 -1.5t2 9.5zM169 146q2 10 2 10.5t-5 7.5q0 -10 -3 -19zM165 182q-7 2 -8.5 7t-8.5 3q0 -6 1 -9l1.5 -4.5t0.5 -4t-1 -7.5q5 0 6 0.5t9 14.5zM144 208v-7h8.5t-0.5 7h-8z
M143 263q1 -19 1.5 -28t1 -12t2.5 -1l5 5q0 8 -0.5 12t0 6.5t1.5 5.5l3 9zM181 243q-4 1 -10.5 -10t-8.5 -15q8 0 11 9.5t8 15.5zM167 244q2 12 1.5 12t-7.5 -9zM181 236q4 -4 4 -3.5t2 5.5zM151 279q-2 -3 -2.5 -3t-6.5 -1l2 -5q7 1 7 1.5v7.5zM72 349v-6.5t4 -2.5
q7 5 11.5 9.5t-4.5 9.5zM155 299q-5 0 -5 -0.5t-5 -5.5l3.5 -3.5t7.5 1.5zM120 335q7 -1 7 -0.5t-2 9.5zM159 319l-2 2l-5 -2l-2 9l-10 -1q2 -7 2 -7.5t-2 -11.5q10 -5 12 -0.5t7 11.5zM116 352l5 -4l-1 7zM141 344q-3 1 -3.5 0.5l-5.5 -5.5zM186 301q0 7 -0.5 7.5t-8.5 2.5
q4 -12 4 -12.5t5 2.5zM181 323q0 5 -0.5 5h-5.5q-2 -5 -1.5 -5h7.5zM170 351q-6 2 -7 2t-6 -2l1 -9zM195 349q2 -10 2.5 -10t3.5 5zM348 290q-5 0 -10.5 -0.5t-10.5 -1.5l-3 -9q8 4 9 4t3 -2q-1 -5 -1.5 -10t6.5 -2v11zM332 303q-6 2 -6.5 1.5t-0.5 -5.5h5zM324 337h-8.5
t-2.5 -4q5 -10 7 -22q6 -1 8 0.5t1 4.5t-3.5 6t-4.5 5zM314 358q-3 -4 -6.5 -7.5t-5.5 -7.5q-7 2 -7.5 2.5t-5.5 -1.5q0 -7 0.5 -7h8.5q8 5 8.5 5.5t6.5 -0.5l1 16l-1 -16zM406 261q0 -11 -2 -23t-15 -16l-16 7h-16t-8 -0.5t-6.5 -2t-12.5 -4.5q-7 3 -11 2t-6.5 -3.5
t-4.5 -3t-5 4.5q-11 -4 -15 3.5t-4 18.5t1.5 22t1.5 16q0 10 -5.5 20t-16.5 10q-9 -7 -15 -16t-12 -17q-5 -32 -6 -64.5t-1 -64.5q0 -10 0.5 -24t8.5 -19q11 2 21.5 5t21.5 3q7 0 11.5 -5t6 -12t2 -15t0.5 -13v-14t-1.5 -18t-5 -16t-10.5 -7q-8 7 -9 7t-5 -2q-14 7 -16 6.5
t-9 -4.5q-6 4 -13 3.5t-14 -2.5l-5 4l-4 -5l-19 -4q-14 7 -35.5 7t-36.5 -3q-15 4 -22 3.5t-12 -3l-11 -5.5t-19 -3q-16 0 -19 14t-3 25q0 4 1 8.5t3 7.5q-2 12 -2.5 18.5t1 11t6 9l12.5 12.5q9 -3 15.5 -6.5t12 -5.5t11 0t13.5 11l-3 173q-5 6 -7 9t-5 4t-9 1.5t-19 1.5
q-2 -3 -4 -4.5t-7 -1.5q-9 0 -12.5 3t-5 7.5t-3 9.5t-6.5 9q1 4 1 16t1.5 24.5t4 22.5t8.5 10q14 0 24 -2.5t23 -5.5l8 3q4 -5 17 -2.5t19 3.5q14 -5 15.5 -5.5t6.5 4.5q13 -1 32 -1.5t32 5.5l11 -18q1 -12 -2 -24.5t-3 -24.5q0 -8 1 -13t7 -11q9 18 16.5 33.5t17 28.5
t23 21.5t35.5 12.5q23 -15 39 -29t25.5 -30.5t13.5 -37.5t4 -50z" />
    <glyph glyph-name="s" unicode="s" horiz-adv-x="258" 
d="M198 250q-2 -8 -4.5 -13t1.5 -13q2 5 5.5 11.5t8.5 10.5zM170 270l-2 -8q14 1 15 1t3 8zM171 320q-8 -3 -8.5 -3t2.5 -5zM115 352q-9 -2 -9.5 -2.5t1.5 -7.5zM148 351l5 4l-7 2zM127 361q2 -5 2 -5.5t4 4.5zM88 383v-7q8 -1 8 -0.5v5.5zM92 420q5 1 5.5 1t-0.5 4z
M247 243q0 -9 -3.5 -24.5t-9.5 -31.5t-14.5 -28t-18.5 -14q0 -11 -11 -19t-25.5 -13.5t-29.5 -8.5t-23 -3q-22 0 -41.5 8.5t-38.5 17.5q-2 16 -5.5 31.5t-2.5 32.5v16.5t1 8t3 4t6 5.5q10 -4 11.5 -8.5t0.5 -14.5q14 -14 25.5 -28.5t25.5 -28.5q11 -5 22 -9t22 -4
q18 0 33.5 14.5t15.5 32.5t-12 30q-1 9 -9.5 23t-15.5 19q-7 16 -20 26q-8 17 -22 29t-22 29q-14 7 -23 21.5t-19 25.5q-4 20 -12.5 37t-10.5 37q6 16 9 28.5t7 24t11 23t19 24.5l46 19q7 0 24 -3.5t35 -8.5t32.5 -11t16.5 -13q3 -8 2 -17t-1 -18q0 -19 7 -34q0 -7 -3.5 -13
t-11.5 -6q-3 1 -11 11t-17 22.5t-17 24t-11 16.5q-11 6 -22 11l-22 10q-22 0 -31 -14t-11 -34q6 -18 20.5 -36t30.5 -37t32 -37.5t25 -37.5q25 -17 44.5 -46.5t19.5 -60.5z" />
    <glyph glyph-name="t" unicode="t" horiz-adv-x="272" 
d="M257 51q0 -26 -4.5 -43t-14 -30t-24 -24.5t-33.5 -25.5q-10 3 -14.5 4t-7.5 1t-6 -1t-10 -4q-42 26 -56.5 61t-14.5 82q0 45 1 89.5t0 89.5q3 6 4 16t0.5 21t-2 20t-3.5 14q-10 -2 -13 -5.5t-17 -2.5q-7 12 -7 13.5t-1 6.5q6 9 14 15t16 14q13 13 21.5 29t13 33.5t7 35.5
t5.5 36l20 13l14 -22q-4 0 -6.5 -18t-5 -41t-3.5 -44t-2 -27l15 -11q14 4 23.5 7t18.5 5t19 2.5t25 -0.5l11 -13q-2 -4 -3 -10t-2.5 -12t-4.5 -10t-10 -4q-10 0 -18 5t-17 7l-9 -6q-10 7 -21 7t-22 -3q-2 -7 -2.5 -13.5t-0.5 -14.5q0 -42 -0.5 -83.5t-0.5 -83.5
q0 -14 0.5 -39t3.5 -50.5t10 -47.5t21 -30q15 -1 24.5 4.5t15 15t7.5 21.5t2 24q0 19 -0.5 20.5t-2.5 3.5q-1 21 -2 42.5t-9 41.5l13 20q11 0 19.5 -12.5t14 -29t8.5 -33.5t3 -26zM100 88q5 6 5 7t-5 6v-13zM103 153q-5 -8 -5 -8.5t3 -3.5zM105 206q-6 2 -6.5 1.5t-0.5 -5.5
q6 -1 6.5 -1t0.5 5zM101 236q-5 -8 -4.5 -8h8.5zM103 338q3 -4 3.5 -3.5t2.5 5.5z" />
    <glyph glyph-name="u" unicode="u" horiz-adv-x="235" 
d="M84 -25q-2 -1 -2.5 -1t-0.5 -5l9 -1q2 4 1.5 4.5t-7.5 2.5zM79 48q4 3 4 3.5t-4 2.5v-6zM177 -4q-2 -9 -2 -12.5t2 -14.5q1 7 2 10.5t1 5.5t-1 4t-2 7zM81 148h-6.5t-8.5 -5q2 -6 2 -6.5t-1 -3.5l7 -3l9 13zM182 41q-2 2 -2.5 2t-2.5 -6zM176 61v-5l3 2zM78 179v5h-5
q0 -3 5 -5zM74 195l1 -6q5 0 5.5 0.5t0.5 5.5h-7zM69 216q7 -4 7.5 -4t0.5 11zM83 233v5.5t-5 0.5zM81 259l5 2l-4 2zM177 175l4 2l-4 3v-5zM177 209q2 5 1.5 5.5t-2.5 3.5zM169 225l-3 -4h5zM180 259l-7 -7q2 -3 2.5 -3.5t4.5 -0.5v11zM206 119q-3 -10 -4 -40t-1 -64.5
t1.5 -66t3.5 -43.5l-13 -14q-9 3 -13.5 5t-8 2.5t-7.5 -1.5t-10 -6l-14 7q-2 14 1.5 27t3.5 27q2 2 2 2.5t-8 7.5q-5 -6 -8 -12.5t-1 -14.5q-6 -4 -6 -8t-1 -9.5t-7 -12.5t-25 -16q-8 1 -11.5 2.5t-6 4t-5.5 4t-8 2.5q-13 15 -18 33t-6 37.5t0.5 39t1.5 37.5q0 22 -3 43.5
t-3 43.5q0 45 2 88.5t2 88.5q0 3 2 11l15 7q2 -3 7.5 -4t12 -1t13 0.5t10.5 0.5l11 -10q2 -80 -0.5 -158.5t-2.5 -158.5q0 -2 3 -12.5t4 -13.5q13 -8 18.5 2t7 26t0.5 33t-1 25q0 9 2.5 20t-2.5 19q3 7 2.5 34t-1.5 58.5t0 59.5t6 38q-2 0 -2.5 1t-1.5 23l12 11q10 -2 18 0
t18 3q5 -5 15 -10q4 -34 2 -67.5t-2 -67.5q0 -16 1 -31.5t3 -31.5zM176 -31q4 -2 4 -3.5t-2 -8.5z" />
    <glyph glyph-name="v" unicode="v" horiz-adv-x="394" 
d="M111 173q-2 -4 -2 -4.5t2 -5.5q10 6 0 10zM130 195q-9 3 -9.5 2.5l-8.5 -8.5q15 -5 16.5 -7t1.5 13zM397 281q-30 -5 -55 -23q-9 -7 -26.5 -24t-39 -39t-44.5 -46.5t-43.5 -47t-36 -40.5t-20.5 -27q-8 -5 -14 -13l-12 -16t-13 -13.5t-17 -6.5q-4 2 -4.5 2t-2.5 -4
q-7 -2 -10.5 -3.5t-5.5 -0.5t-4.5 4.5t-8.5 11.5q11 69 20 137.5t23 137.5l-3 7q-10 1 -14.5 1.5t-7 0t-4.5 -1.5t-7 -3l-6 8l9 20q15 0 30 -1.5t30 -6.5q6 3 12 3.5t12 1.5q1 -2 1.5 -2.5t2 -0.5t6 0.5t13.5 2.5q2 -3 7 -2.5t12.5 2t16 1.5t17.5 -3l9 6q5 0 13.5 -2.5
t8.5 -10.5q0 -6 -5 -8.5t-11.5 -2.5t-13.5 1.5t-10 2.5l-12 -6q-4 -25 -9 -49.5t-2 -50.5q-3 -3 -5.5 -14.5t-5 -25t-4 -26t-1.5 -18.5q5 5 17.5 18t29 30.5t33.5 37t31.5 37t24 29.5t9.5 16q0 8 -4.5 12.5t-10.5 6t-13 1t-13 -0.5q-8 7 -8.5 8t5.5 13q11 0 22 -1t22 1
q-1 -3 4 -4t12.5 -1t15.5 0.5t11 0.5q2 0 5.5 1t5.5 2q9 -1 13.5 1t12.5 2q3 0 11 -3t8 -7q0 -5 -0.5 -5t-8.5 -7z" />
    <glyph glyph-name="w" unicode="w" horiz-adv-x="501" 
d="M194 136q-2 6 -12.5 13.5t-23 15t-25 14.5t-18.5 13q-6 1 -11 3.5t-10 4.5q-2 -8 1 -16.5t15 -6.5q14 -14 31.5 -22.5t31.5 -21.5q3 -1 4 -1.5t2.5 0l4.5 1.5t10 3zM111 315q-5 7 -5.5 14.5t-2.5 15.5q-12 14 -21.5 31.5t-11.5 36.5l-6 3q-6 -1 -6.5 -8t-2.5 -12
q9 -30 15.5 -46.5t10.5 -30.5t6 -32.5t2 -52.5q0 -6 1 -13.5t7 -12.5q18 13 18 35q0 18 -1 36t-3 36zM218 194q-2 32 -0.5 64.5t-6.5 64.5q-4 2 -7 5t-7 6l-12 -6l-2 -11q7 -16 4 -39.5t-3 -41.5q0 -14 4.5 -23.5t15.5 -17.5zM355 136q-5 4 -16.5 10t-16.5 2l-8 8
q-8 0 -15 2t-12 7q-13 0 -29 7q-1 26 -1 51.5v51.5q0 14 -1.5 28.5t-3.5 28.5l-21 24l-12 -5q14 -44 15 -84t1 -85q0 -5 1.5 -14.5t6.5 -7.5l6 -10q5 -2 5.5 -1.5t6.5 5.5q4 -4 7 -3.5t6 2t7 1.5t11 -5q20 0 35 -15l22 -6zM356 281q0 13 -2.5 26t-9.5 24q-5 0 -7.5 -0.5
t-4 -1t-2.5 -3t-4 -6.5q0 -30 2.5 -60t3.5 -61q7 -2 11.5 -6.5t11.5 -7.5l-3 86zM294 320q-5 -4 -5 -4.5t6 -5.5zM437 204q3 8 3 8.5t-6 2.5l-5 -10q11 -10 11.5 -10.5t2.5 4.5zM403 222q-8 9 -10 21.5t-2 24t0.5 20t-2.5 9.5q4 8 4 20t-6.5 24.5t-19.5 16.5l-10 -10
q13 -11 18.5 -28.5t-2.5 -33.5q2 -5 2 -5.5t-2 -3.5q3 -8 4 -22.5t1 -30.5t-0.5 -31t-0.5 -25l15 -8l4 8q0 8 4 18l-6 17l4 10t5 9zM427 241l-3 -4l2 -5h6q2 3 1 3.5t-6 5.5zM441 277h-9q-3 -5 -3.5 -5t-5.5 2q-3 -4 -5 -3v-7q8 -2 8.5 -2t6.5 10q5 -2 5.5 -2t2.5 3v4z
M422 284q0 7 -0.5 7.5t-3.5 -1.5zM427 304q-1 -6 -1 -6.5t5 -0.5l3 4zM427 321q3 -5 3.5 -5t2.5 5h-6zM477 158q-11 -5 -11.5 -4.5l-2.5 2.5q-16 -6 -23.5 -9.5t-11 -4.5t-4.5 -0.5t-5 0.5q-12 0 -21 -6.5t-16.5 -14.5t-16 -15.5t-19.5 -9.5l-43 21q-10 0 -24 7
q-5 -1 -10.5 0.5t-11 2.5t-10.5 0.5t-8 -4.5q-11 0 -20.5 -2.5t-17.5 -11.5q-8 5 -15.5 -0.5t-15.5 -9.5q-26 20 -52 39.5t-58 29.5q-5 2 -12.5 4.5t-7.5 10.5q10 5 18 13t11 19q-3 5 -3.5 14.5t-2.5 11.5q5 16 4 28q-1 17 -5 28t-2 26q-10 19 -20 38.5t-10 42.5
q0 12 10 28.5t25 31t31 24t28 6.5q1 3 6 4.5t10 0.5t9 -4t4 -7q0 -8 -6.5 -13t-14 -9.5t-14 -11t-6.5 -16.5q0 -17 9.5 -28t21.5 -20t23.5 -19.5t15.5 -25.5q6 -4 15 8t19.5 27.5t21.5 29t20 13.5t18 -7t17 -16.5t15 -19.5t14 -15q2 -15 2.5 -16t5.5 -2q5 6 13 17.5
t17.5 23.5t18.5 20.5t17 8.5q25 -23 38.5 -33t21 -20.5t10.5 -27t7 -52.5q1 -11 2.5 -28.5t2.5 -36t1 -35.5t-2 -26z" />
    <glyph glyph-name="x" unicode="x" horiz-adv-x="375" 
d="M232 193q-8 1 -8.5 0.5t-3.5 -5.5zM344 228q-10 0 -17 3t-15 3q-9 0 -20.5 -12.5t-23.5 -29t-24.5 -31.5t-24.5 -20v-5q6 -5 17.5 -18.5t23.5 -29.5t22.5 -31t14.5 -22q10 2 15.5 2.5t9 0t7.5 -1.5t12 -1l9 -6q1 -4 2.5 -15t1 -22.5t-4 -20.5t-10.5 -9q-2 0 -9 2.5
t-9 3.5q-11 -4 -25.5 -3.5t-26.5 -0.5q-5 5 -15 6t-15 -4q-10 -1 -15.5 -1.5t-9.5 -0.5t-8 0.5t-11 2.5v10q0 14 -1 26.5t-1 25.5q8 7 9.5 7.5t16.5 -2.5q9 3 15 1.5t14 -7.5l8 7q-7 7 -15 18.5t-16 23.5t-15.5 22t-13.5 13q-8 -2 -17.5 -16t-14.5 -21q-8 -11 -18.5 -19.5
t-20.5 -18.5q-3 1 -3 0.5t6 -6.5l19.5 4.5t10 1.5t6 -1t8.5 -2q5 -10 4 -30.5t-4 -33.5q-7 -4 -12 -4.5t-8 0t-4.5 1t-1.5 -2.5q-11 7 -21 6t-21 -6q-7 0 -14 1t-13 4q-2 -2 -3 -2.5t-2.5 -1.5t-5.5 -1.5t-11 -2.5q-12 3 -16.5 9.5t-5.5 15.5t0 19.5t0 21.5q-1 10 6.5 13.5
t15.5 2.5q4 -3 6 -4t3.5 -1.5t4 -0.5h7.5q23 26 46.5 52t50.5 48q-6 9 -16.5 25t-23 32t-25.5 28t-24 12q-10 -4 -10.5 -4t-3.5 3l-17 -6q-11 17 -11 36q0 5 0.5 12.5t2.5 14.5t6 11.5t12 4.5q7 -4 7.5 -4t5.5 3q15 -3 16.5 -3t6.5 3q6 -4 9 -5t5.5 -0.5t5.5 1.5t9 1
q2 -2 2.5 -2t12.5 2q11 -5 22 -3.5t21 6.5q11 -13 11 -29.5t2 -31.5l-4 -9q-12 -2 -24 0t-24 2q-6 -8 -6.5 -8t0.5 -4q11 -2 18 -9.5t12.5 -17.5l11 -20t13.5 -16q11 8 14.5 12.5t6.5 17.5q12 6 21.5 15.5t20.5 17.5q2 5 2 5.5t-5 5.5l-34 -8q-4 7 -5.5 10t-2 6.5t0 8.5
t2.5 17q-1 4 -2.5 8t-1.5 8q0 8 3 10.5t7 3t8.5 0.5t7.5 3q13 -5 24 -7.5t24 6.5q12 -4 24 -2t21.5 1.5t15.5 -7t6 -27.5q0 -8 0.5 -12t-0.5 -7t-3 -7t-7 -13zM225 119q-5 8 -6 8t-7 -1zM109 23q-1 -7 -0.5 -7t6.5 3z" />
    <glyph glyph-name="y" unicode="y" horiz-adv-x="486" 
d="M354 90q-11 -2 -24 -4t-24 -7l-13 4l-38 -5q-9 -8 -19.5 -8.5t-21.5 1.5q-6 -4 -16 -7t-22 -5.5t-23 -4t-18 -1.5q-7 -8 -11.5 -13t-7 -10.5t-3.5 -12t-1 -17.5q9 -13 21.5 -22t24.5 -18q19 8 34 21t29 28t28 29.5t31 26.5q13 2 19 3t8.5 1t3.5 -1t3 -4q4 4 5.5 4.5
t15.5 -3.5l19 4q27 -17 51.5 -39.5t33.5 -54.5q-2 -11 2 -18t9 -15v-12l-28 -30q-20 11 -26 22t-9.5 18t-10 8t-28.5 -8q-5 4 -11 2t-13.5 -5t-16 -6t-17.5 0q-6 -5 -9 -5.5t-6 -0.5t-7.5 -1.5t-12.5 -8.5q-5 0 -6.5 0.5t-4 -0.5t-8 -3.5t-16.5 -8.5q-6 2 -7 2t-11 -5
l-39 11l-10.5 -6t-5.5 -2t-5 3l-9 9q-7 -6 -7.5 -6t-11.5 8q-13 -11 -14 -11.5t-5 -0.5q-5 0 -4.5 10.5t0.5 14.5q-10 16 -22 37t-12 41q0 18 7 32t17.5 25t24 21t26.5 19q-5 10 -6.5 24t-1.5 29t0.5 30t0.5 27q-8 11 -12 24t-14 23q-6 -5 -8.5 -11.5t-4.5 -14.5
q-8 -5 -13.5 -7.5t-15.5 -1.5q-9 10 -9.5 11.5t-0.5 12.5q0 12 14.5 31t34 38.5t39 37t28.5 26.5h8.5t1.5 -2q12 -1 25 -9.5t26 -19.5t24.5 -23.5t19.5 -20.5q12 2 29.5 15t36 27.5t35.5 26.5t28 12q18 0 32 -23t24 -53.5t15.5 -61t5.5 -44.5q0 -18 -10.5 -38t-27 -38
t-35.5 -30.5t-36 -14.5zM223 -62q0 9 -1.5 7t-3.5 -6zM227 -47q4 2 8.5 4.5t-6.5 0.5zM255 -41l5 -2l-2 5zM257 -32l7 2l-7 4v-6zM260 -3q-5 1 -5.5 0.5l-5.5 -5.5l-8 2v-7q6 -7 7.5 -9t2.5 0t2.5 7t6.5 12zM273 -32l2 5l-5 -3zM278 -1l-4 2l-3 -4q2 -2 2 -2.5t5 4.5z
M303 -23v5h-5.5t-1.5 -5h7zM175 118q7 3 6.5 4t-11.5 17l-6 -6q3 -3 6 -7t5 -8zM300 11h-4.5t-5.5 -6q8 -5 8.5 -5.5t4.5 1.5zM176 153q-3 11 -4.5 16t-2 7.5t0.5 4t3 5.5l-3 9l-10 -22q1 -5 1.5 -5.5t7.5 -1.5q-4 -7 -5.5 -10t-2 -4.5t-0.5 -3v-4.5q7 0 7.5 0.5t7.5 8.5z
M206 139q-2 3 -2.5 3.5t-5.5 0.5l-2 -8zM215 158q-5 2 -6 1.5t-12 -7.5q5 -7 9 -3zM223 140q8 6 8 6.5t-8 -1.5v-5zM212 177l-7 -3l7 -2v5zM234 160l-5 -9q2 -2 3 -2t9 8zM246 152l-2 -7l5 -1zM156 260q-1 7 -1.5 7t-11.5 2l-3 -8q6 -2 7 -2.5t9 1.5zM184 248q7 0 7.5 1
t-1.5 12l-5 1q1 0 2 -2q2 -4 -3 -12zM231 239l-1 3h-5q-2 -5 -1.5 -5t7.5 2zM230 260l-3.5 3.5t-5.5 -1.5q2 -5 3 -4.5t6 2.5zM182 317q-9 3 -9.5 3t-4.5 -5q8 -2 8.5 -2t-2.5 -3q5 -2 5 -1.5t3 8.5zM322 227q0 8 -3 14.5t-8 12.5q0 8 3 12t5 8t1.5 8t-6.5 12
q-11 1 -13 -7.5t-1 -16.5l-12 10q-14 -12 -14 -27q0 -11 6 -22t6 -21q0 -23 -7 -46t-5 -46l9 -7q16 3 24 17t11.5 32t3.5 36.5v30.5zM379 144v-6l5 3zM362 164q4 8 4 8.5t-1 3.5l-4 -4l1 -8q-3 2 -3 1.5t-1 -6.5q0 -7 0.5 -8t1.5 1t1.5 5.5t0.5 6.5zM214 314q-2 -5 -2 -5.5
t7 -0.5zM363 191q3 -5 3.5 -4.5t2.5 8.5zM371 212l-1 4q-8 -6 -8 -13h4zM371 231v-6.5t5 0.5zM355 260q-2 -5 -2 -5.5t8 -6.5zM356 281q1 0 1 4t-5 -2zM357 314q0 8 -1 8.5t-9 -3.5zM372 330q8 0 9 2.5t0 9.5q-1 -4 -5 -5.5t-4 -6.5zM406 322q-5 -8 -5.5 -9t1.5 -8
q2 10 4 17zM161 212q3 7 3 9t-3 4q-5 -5 -5 -6.5t5 -6.5zM161 225q11 2 8.5 4.5t-8.5 4.5v-9z" />
    <glyph glyph-name="z" unicode="z" horiz-adv-x="409" 
d="M314 381q-4 2 -4.5 2t-3.5 -8l3 -2zM390 404q0 -17 -4 -30q-51 -37 -102 -71.5t-99 -70.5q-11 -8 -25 -14.5t-24 -17.5q-5 -1 -4.5 -1.5t10.5 -6.5q4 0 16 0.5t24.5 1t23 2t11.5 4.5q5 -3 16 -4t15 4l67 -7q7 -1 9 5t1 14t-3 15.5t-2 10.5q0 9 3.5 11.5t8.5 3t10 0t8 2.5
l15 -6t6.5 -3.5t1.5 -3.5v-7q-4 -4 -4.5 -12t0 -17t2 -18t1.5 -14q0 -8 -4 -15.5t-13 -10.5q-4 3 -16.5 3.5t-27 0.5t-27.5 -1t-19 -2q-7 3 -15.5 1.5t-16.5 -1.5q-7 3 -16 3t-19 -1l-20 -2t-18 0q-13 1 -19.5 2t-9.5 1t-4 -1t-4 -2q-6 4 -7.5 3t-18.5 -2q-18 1 -23 0.5
t-11 -3.5q-5 1 -11.5 1.5t-12.5 2t-10 5t-4 12.5q0 13 16 30.5t41.5 36.5t56.5 39t60 37.5t53 31.5t36 22q-10 6 -11 6.5t-9 -3.5q-26 3 -50 -1.5t-50 -4.5q-3 0 -10 0.5t-15 1t-14.5 1t-7.5 -0.5q-8 0 -17 1t-17 2q-8 -11 -5.5 -23t2.5 -24q0 -24 -23 -24q-18 0 -22 10
t-4 25v17.5t1.5 28t4.5 25.5t9 11l6 -5q3 4 13.5 4.5t16.5 0.5q14 0 25 -3t25 3q14 -2 29 -4.5t29 5.5q16 -3 41 -2.5t40 2.5q10 -2 15.5 -2t10 0.5t9.5 1.5t14 2q4 -1 11 -1.5t14 -0.5t13.5 1t10.5 3q6 -1 11.5 -4.5t5.5 -9.5z" />
    <glyph glyph-name="braceleft" unicode="{" horiz-adv-x="220" 
d="M178 -164q-6 0 -15.5 3.5t-19 9t-17.5 11.5t-12 11q-11 13 -14.5 29t-4 32.5t1 33t1.5 32.5q0 19 1.5 34t1.5 32v135q0 16 -1.5 36t-8 37.5t-19 30t-33.5 13.5q0 1 1 3.5t1 3.5q22 -2 35 4t19.5 16.5t8 24t1.5 26.5q0 3 -2 22t-4.5 42.5t-4.5 46t-2 33.5q0 10 2 25.5
t8.5 29t19 22.5t32.5 7q4 -3 4 -3.5v-7.5q-22 -3 -32.5 -15t-15 -27t-4 -30.5t1.5 -24.5l11 -145q2 -23 -6 -34.5t-37 -22.5q3 -2 9 -7.5t12 -12.5t11 -13t5 -9q6 -37 7 -77t0 -79.5t-3 -78t-3 -72.5q0 -17 -1 -35.5t5 -34.5t21.5 -29t47.5 -20q0 -6 -1.5 -7t-7.5 -1z" />
    <glyph glyph-name="bar" unicode="|" horiz-adv-x="96" 
d="M67 698q-2 -8 -3 -35.5t-1.5 -59.5t-0.5 -62.5v-43.5v-38t5 -37q-5 -9 -6 -24t4 -24q-4 -11 -4 -25t1 -28.5l2 -29t0 -26.5q0 -5 -0.5 -16t-0.5 -24v-24t1 -15q-1 -3 -1 -18t-0.5 -36.5t0 -46t1 -45.5t0.5 -35.5t1 -15.5q-2 -2 -1.5 -11t-0.5 -13l-24 -2l-11 10v37
t0.5 58t0.5 66t-0.5 63t-0.5 48t-1 20q1 1 1.5 0t0.5 12.5v51v115.5q0 14 1 28t0 28q-1 13 -0.5 43.5t1.5 63t1 59t-2 32.5q4 6 4.5 9.5t1.5 5t3.5 2.5t11.5 3q10 -6 11 -8t5 -12z" />
    <glyph glyph-name="braceright" unicode="}" horiz-adv-x="218" 
d="M190 241q-16 -2 -27.5 -10.5t-18.5 -20.5t-10 -24.5t-3 -22.5v-200q0 -3 -2.5 -18.5t-9.5 -33t-20.5 -31.5t-35.5 -14h-10.5t-7.5 5q0 4 3.5 5.5t8 2t8.5 0.5h5q15 6 22.5 14.5t11 18t5 21t4.5 23.5l-1 144q0 20 0.5 49t14.5 58q8 14 18.5 21.5t10.5 8.5t-6.5 4.5t-15 9
t-15.5 13t-7 16.5q-1 31 -1.5 39t-0.5 11l9 92l2 134q-5 6 -5 13v14.5t-2.5 16t-12.5 17.5q-6 6 -23 7.5t-31 5.5q2 3 10 5.5t12 2.5q43 0 57.5 -17t19.5 -50l-7 -130l-16 -135q0 -5 2 -15t7.5 -19.5t15.5 -17t27 -7.5h13z" />
    <glyph glyph-name="asciitilde" unicode="~" horiz-adv-x="362" 
d="M110 232q-5 5 -5.5 5t-4.5 -4l2 -11zM165 214l-4 -2q-2 -1 -3 -2q5 -2 10 -1.5t-3 5.5zM170 223q2 7 1 6.5t-5 -3.5zM218 195q-2 9 -2.5 9.5t-7.5 0.5l-2 -9l4 -9zM212 225q-7 1 -7.5 0.5t-4.5 -2.5l2 -6l10 2v6zM45 247q0 2 -0.5 6.5t0.5 6.5q4 8 14.5 17t22.5 16.5
t24.5 12t21.5 4.5q11 0 22 -3t19 -8l15 -1q8 -5 24.5 -19t30.5 -23q12 2 13 -0.5t8 -3.5q5 -1 16.5 -1t16.5 1t7 7.5t4 9.5q3 3 5.5 3.5t4.5 1t4.5 4t4.5 13.5l8.5 8.5t9.5 4.5q9 0 6.5 -13.5t-9 -30t-13.5 -31.5t-7 -20q-2 -17 -18.5 -31.5t-31.5 -19.5q-4 -1 -8 1t-8 1
q-2 0 -3.5 -2t-3.5 -3.5t-6.5 -3t-13.5 -1.5q-20 1 -36 6.5t-33 13.5q-8 4 -13.5 9.5t-11.5 8.5q-5 2 -10 2t-10 2t-10 4.5t-11 2.5q-14 1 -30.5 -6.5t-21.5 -21.5q-1 -3 -2 -7.5t-2.5 -9.5t-4 -8t-6.5 -3q-8 1 -8.5 10t2.5 20t7 21.5t5 13.5q1 5 0.5 9.5t1.5 9.5
q1 4 6.5 9.5t7.5 10.5z" />
    <glyph glyph-name="uni00A0" unicode="&#xa0;" 
 />
    <glyph glyph-name="exclamdown" unicode="&#xa1;" 
d="M78 400q9 2 10 1.5t10 -3.5v-1q14 6 19.5 2t5.5 -19q0 -14 -0.5 -27t1.5 -27l-8 -15q-15 -1 -23 -1.5t-21 5.5q-1 4 -1.5 7t-0.5 6q0 5 3 13t-2 13q0 12 -1 25t8 21zM105 -29q-3 2 -6 0.5t-1 -6.5zM69 -131q0 9 0.5 30t1 47t1.5 55t2.5 54t3 43t3.5 23l-3.5 10.5t-0.5 5
t1 12t1 31.5v15.5t2 19t6 16.5t12 7q5 -6 8 -24.5t5.5 -43t3.5 -53.5t2 -55.5t1.5 -48t2.5 -32.5h1q0 -26 3.5 -50.5t3.5 -50.5q0 -13 -7 -18t-17 -5t-20 3.5t-17 8.5z" />
    <glyph glyph-name="cent" unicode="&#xa2;" horiz-adv-x="304" 
d="M171 250q-10 1 -25.5 -4t-23.5 -10q-5 -9 -10.5 -19.5t-10.5 -18.5q-6 -15 -8.5 -25.5t-2.5 -19.5t1.5 -17t4.5 -17q2 -8 3 -8.5t6 -8.5q11 6 14 18.5t11 20.5q2 8 7 15t10.5 14.5t10 15t4.5 16.5q6 8 8 16.5t9 16.5q0 4 -0.5 4.5t-7.5 10.5zM273 109q1 -7 0.5 -15.5
t-6.5 -12.5q0 -5 -4 -10.5t-9 -11.5t-10.5 -11t-7.5 -9q-5 -3 -13.5 -7.5t-18 -8t-19 -4.5t-15.5 2q-12 -1 -19.5 0.5t-18.5 -0.5q-8 -2 -17 -3.5t-14 -8.5q-2 -11 -5.5 -17.5t-11.5 -15.5q-4 -1 -7.5 -3.5t-6.5 -4.5q-5 2 -5.5 2t-9.5 2q-3 11 3 16.5t8 16.5q15 13 13 31
q-1 10 -8.5 16.5t-15.5 15t-14 20t-3 31.5q-5 11 -2.5 29t10.5 31q-2 9 3.5 21t13.5 23.5t17.5 21t17.5 13.5q9 10 25 16t31.5 8.5t27.5 2t13 -2.5q11 8 16.5 18t10.5 24l14 13q8 5 13 1.5t7 -11.5q-5 -16 -14 -27.5t-14 -25.5l4.5 -7.5t3 -4t3 -2.5t5.5 -3
q9 -13 13.5 -20.5t7 -12t3.5 -7t2 -6.5q-5 -11 -5 -19t-14 -17q-12 -2 -15 -3.5t-16 0.5q-5 2 -11.5 6.5t-8.5 9.5q-1 9 -1.5 14.5t1 9t4.5 7t9 9.5l-1 1q-9 3 -7.5 0t-5.5 -8q-3 -4 -9.5 -18.5t-13.5 -31.5t-13 -32t-8 -21q-7 -4 -12 -13t-10 -15q-2 -7 -2.5 -10t0 -4.5
t1.5 -2t1 -2.5q18 -17 31 -17t33 7q8 3 15.5 2t12.5 4q7 7 9.5 16t5 17t7 13.5t15.5 5.5q8 -2 11 -10z" />
    <glyph glyph-name="sterling" unicode="&#xa3;" horiz-adv-x="647" 
d="M167 107q-5 2 -11.5 3t-14.5 3q-11 3 -16 9.5t-17 6.5q-5 0 -13.5 -1.5t-17.5 -4t-17 -5t-12 -4.5v-5q-1 -9 5.5 -14t17 -7.5t22.5 -3t22 -0.5q15 0 31.5 5.5t20.5 17.5zM254 200q-9 -1 -13 -1.5t-6.5 -1.5t-5 -2.5l-7.5 -4.5l31 -9zM327 164q3 4 3 4.5t-6 6.5l-2 -7z
M315 191q11 8 11 8.5t-11 0.5v-9zM404 127q-8 -4 -9 -4t-4 -4l29 -6zM365 165q-8 -2 -7.5 -2.5l5.5 -5.5q5 5 4.5 5.5zM333 230q-5 -4 -7 -5.5t-2.5 -3t1.5 -4t5 -8.5zM460 111q-12 13 -20 18.5t-21 16.5q5 -9 13 -16.5t14 -20.5zM232 301v-5q12 2 12.5 2t0.5 5zM394 168
q12 0 8 6zM463 129q-12 -5 -13 -6.5t3 -1t9.5 2.5t6.5 3zM431 161l-8 -3q3 -4 8 -5t7 -5zM429 175l-8 -7l4 -1l5 6zM454 154l-9 1l3 -6h6v5zM218 335q-10 2 -15 10l-6 -1q0 -6 1 -14.5t8 -8.5zM422 192l-2 -4l5 -2zM321 290q-5 6 -9 7t-9 -7l8 -10zM338 279q-6 0 -6.5 -1
t-7.5 -9h9t6 5zM446 180q-4 1 -4 -1.5v-5.5q5 2 5.5 2t-1.5 5zM191 358v-7q10 1 10.5 1t0.5 6h-11zM306 312q-4 4 -5 5.5t-1 0v-5.5t-3 -10h7zM486 173q-3 0 -3.5 -0.5t-4.5 -6.5h8v7zM521 154q-6 0 -8 -3.5t6 -5.5l2 8v1zM209 408l3 -39q10 6 10 15.5t5 20.5zM256 391
q-8 -3 -13.5 -9t-10.5 -12q7 -2 10 0t4.5 5t3 7.5t6.5 7.5v1zM239 390q1 11 0.5 11.5t-8.5 -7.5zM208 419q4 -9 7.5 -6t3.5 9zM540 181q-4 -2 -8.5 -4t-6.5 -3.5t-0.5 -3.5t8.5 -4zM223 442q-6 -9 -5.5 -9.5t18.5 -1.5zM266 439l-4.5 9t-10.5 3q2 -17 3 -17.5t12 5.5z
M493 430q-2 -11 -1 -11.5t20 5.5zM479 457q2 -12 2.5 -12t7.5 14zM506 458q-2 -8 -1.5 -7.5t6.5 5.5zM632 276q0 -24 -2 -58.5t-10 -69t-24.5 -63t-45.5 -41.5l-22 4q-10 2 -21 2.5t-22 -1.5q-11 4 -15.5 3.5t-8 -2t-9 -1t-18.5 5.5q-20 -4 -40 -12q-6 4 -20.5 7t-28.5 8
q-9 4 -15.5 3.5t-15.5 2.5q-7 2 -16.5 1t-15.5 1q-12 4 -21 10t-13 6q-2 0 -12 -3.5t-22 -7.5q-14 -4 -31 -10q-6 -2 -11 -5q-5 -2 -8.5 -4.5t-5.5 -4.5l-12 5q-9 -3 -13 -4t-7 -1t-7 1.5t-12 5.5q-11 -3 -18.5 -3.5t-17.5 -4.5q-9 5 -16.5 8.5t-12.5 5.5q-6 3 -10 4
q-28 18 -28 51q0 18 8.5 41.5t23.5 46t34.5 40t41.5 23.5q11 3 26 5t20 4q-5 8 -6 9t-1 0.5t0.5 1t0.5 12.5q-15 0 -26 -1.5t-20.5 -2t-20 0t-25.5 4.5q-2 7 -5 18t-3 19q17 3 27 5.5t24 4.5q3 0 9.5 1t13 2.5t11.5 3.5t5 4q0 5 3.5 7t0.5 6q0 51 27.5 87.5t84.5 56.5
q6 0 13 4t16.5 8.5t23 8.5t33.5 4q3 6 13.5 8t25 2.5l29 1t24.5 2.5l17 -8l12 4t5 1t5 -1.5t11 -4.5q5 2 10 2h9h9l10 -8q4 -3 8.5 -7t7.5 -6q29 -11 50.5 -34.5t21.5 -48.5q0 -8 -5.5 -18.5t-14 -19.5t-20 -15.5t-23.5 -6.5h-44q-17 0 -30 7t-22 17.5t-13.5 23t-4.5 23.5
t7 18.5t15 16.5q-6 4 -14.5 10t-16.5 6q-22 0 -34.5 -10.5t-12.5 -27.5q0 -5 4.5 -11t6.5 -11q8 -20 12.5 -44t12.5 -44q19 0 37 -0.5t36 -0.5q5 0 14.5 -1t14.5 -3t7.5 -9.5t3.5 -16t-0.5 -16t-4.5 -8.5q-5 -2 -15.5 -0.5t-16.5 1.5q-13 0 -25 1.5t-24 3.5q-11 1 -10.5 -1
t-9.5 -2l-1 -5t-2.5 -11.5l-3 -13t-2.5 -9.5q13 0 19 -1.5t11 -3.5t11.5 -3.5t20.5 -1.5q12 0 27.5 -2.5t31 -4t29 0.5t21.5 10q4 4 5.5 10.5t3.5 12.5t6 10.5t13 4.5q12 0 16 -7t4 -14z" />
    <glyph glyph-name="currency" unicode="&#xa4;" 
 />
    <glyph glyph-name="yen" unicode="&#xa5;" horiz-adv-x="267" 
d="M157 35h-8v-10q3 2 3.5 1.5t4.5 -2.5v11zM180 300q3 6 5 11t1 8t-5 2.5t-14 -6.5zM178 378q0 3 -0.5 6t-4.5 4q-1 0 -2.5 0.5t-5.5 1.5q-2 -7 -3 -12t-3 -12l19 -4v16zM74 301q9 -1 17.5 -1h17.5q-8 38 -17 67.5t-20 56.5q-10 27 -20 54.5t-18 62.5q8 5 14.5 8t16.5 3
q9 -5 18 -1t17 2q5 -1 12 -17t15 -39q17 -46 28 -71l12 -8q4 23 7.5 47t14.5 45q-1 4 1 10.5t6 13.5t10 12t13 5q11 0 20.5 0.5t20.5 -1.5t14.5 -6.5t3 -10.5t-3.5 -13t-5 -14q-17 -49 -35 -100.5t-29 -107.5h5q9 0 18 -1t19 -1l5 -11q2 -5 2.5 -14t-7.5 -9t-17.5 2
t-17.5 -1q-5 2 -8 3.5t-5 -4.5q-3 -23 -3 -44l18 -13l17 3q3 -1 6.5 -2t6.5 -1q6 -9 8.5 -21.5t-5.5 -12.5q-5 0 -9.5 -1.5t-9.5 -1.5q-4 0 -8 2q-7 3 -10.5 3.5t-5.5 0.5t-4 -0.5t-5 0.5q-1 -51 -4 -97t1 -94q-3 -1 -7 -5.5t-6 -1.5q-3 -3 -7 -1.5t-8 2.5q-9 3 -12.5 2.5
t-6.5 -1t-7.5 1t-15.5 7.5q0 29 1.5 40.5t0.5 19.5t0 26.5t1 38t-2 36t-8 20.5l-12 3q-9 1 -17.5 -0.5t-16.5 -2.5q-4 5 -6 11.5t-2 13t3.5 11t11.5 6.5q11 1 21 1h21q0 22 -3 43q-2 9 -10 8t-16 0q-3 1 -7.5 1t-15.5 -1q-5 8 -5.5 10t-0.5 11q0 5 3 10.5t11 7.5z" />
    <glyph glyph-name="brokenbar" unicode="&#xa6;" 
 />
    <glyph glyph-name="section" unicode="&#xa7;" 
 />
    <glyph glyph-name="dieresis" unicode="&#xa8;" horiz-adv-x="185" 
d="M170 443q0 -14 -10.5 -26.5t-24.5 -12.5q-8 0 -13 4.5t-8.5 10.5t-6 12.5t-5.5 11.5q2 14 12 25t24 11l19 -9zM89 443q1 -14 -9 -26t-23 -12q-14 0 -24.5 12.5t-10.5 26.5q0 13 11 25t25 11q8 -3 15 -7q6 -4 10.5 -11.5t5.5 -18.5z" />
    <glyph glyph-name="copyright" unicode="&#xa9;" horiz-adv-x="405" 
d="M95 2l-6 -1q0 -5 2.5 -6.5t9.5 -5.5zM77 31q3 -6 3.5 -6t3.5 2q1 8 1 8.5t-4 3.5zM104 149q5 3 4.5 3.5l-2.5 2.5zM303 100q1 10 1 13t-0.5 7.5t-1.5 14t-2 32.5q-1 3 -5 11t-8 8q-8 0 -12 -7.5t-8 -14.5q-17 5 -33 14t-35 9q-16 0 -32.5 -10.5t-30 -25.5t-21.5 -32.5
t-8 -32.5q0 -20 2 -30.5t4 -18t5 -15.5t5 -23q8 -8 18.5 -17t22.5 -16t25 -11.5t25 -4.5q10 0 26 6t30 15.5t24 21t9 23.5l-24 15q-5 -2 -8.5 -8.5t-9 -13.5t-15 -12.5t-25.5 -5.5q-14 0 -22.5 7t-13 17t-6 21t-1.5 20q1 23 2 41.5t9 40.5q3 10 17.5 12.5t21.5 4.5
q13 -9 22.5 -14.5t17 -12t13 -16t9.5 -26.5zM385 74q0 -27 -9.5 -52t-25.5 -46t-37 -38.5t-43 -30.5q-2 1 -9 -1t-16 -4.5t-17.5 -5t-14.5 -2.5q-10 0 -19 1t-18 -2q-4 4 -5 4t-13 1q-21 20 -37.5 30.5t-29 18.5t-21.5 15t-16 20t-11.5 34t-8.5 56q6 14 4.5 29t7.5 29
q1 16 15.5 37t34.5 39t41.5 30.5t38.5 12.5q2 0 5.5 -1.5t5.5 -2.5l7.5 4.5t5.5 1.5t9 -1t20 -3l11 3q12 -8 12.5 -8t4.5 2q26 -2 49 -20t40.5 -43.5t28 -54t10.5 -52.5z" />
    <glyph glyph-name="ordfeminine" unicode="&#xaa;" horiz-adv-x="232" 
d="M198 501q-8 2 -8.5 2t1.5 -6q10 -3 8.5 -5.5t-1.5 9.5zM180 527q-8 4 -8 1.5t-1 -12.5q1 4 4 6t5 5zM142 650q-5 -4 -4 -5.5t2 -8.5l6 3zM163 606q-23 3 -41 5.5t-31 -1t-20.5 -17t-7.5 -43.5q3 -7 9.5 -8.5t15 -1t17.5 2t15 1.5q8 -1 16 -1.5t16 -0.5q4 0 15.5 -1
t12.5 4q-6 15 -7.5 31t-9.5 30zM188 483q0 4 -5.5 5.5t-12.5 1.5t-13.5 -0.5t-8.5 -0.5q-18 1 -36 0.5t-37 -0.5q-14 0 -20 -3t-8.5 -8t-2.5 -11.5t-3 -13.5q0 -7 -2 -12t-12 -5q-6 0 -11.5 3.5t-5.5 10.5q7 11 15 39t15.5 60t14 62.5t9.5 46.5q6 4 20.5 5.5t31.5 2t32.5 0
t23.5 -0.5q6 0 9.5 -6.5t5 -15t2 -17t0.5 -12.5q1 -15 5 -29.5t8.5 -29t7.5 -29t3 -29.5q0 -8 0.5 -12t3.5 -11q3 -8 6 -15t3 -16q-13 -13 -22 -9t-11 18q-1 11 -4 18t-1 13z" />
    <glyph glyph-name="guillemotleft" unicode="&#xab;" horiz-adv-x="266" 
d="M61 153q1 -1 1 -2l1 1zM57 154h1l1 3l2 -4zM146 71q-5 -4 -5.5 -9t-6.5 -7q-6 -1 -13.5 5.5t-14.5 16t-12.5 19t-7.5 14.5q-6 2 -9.5 8.5t-6.5 11.5q-7 2 -10 11q-30 26 -37 38.5t-2 20t16.5 15t17.5 22.5q0 3 3.5 8t8 10.5t9 10t7.5 6.5q2 4 8.5 13t14 18.5t14.5 16.5
t11 7q5 -2 8 -6t7 -8q-3 -8 -14 -27t-22.5 -39t-21 -36.5t-9.5 -19.5t4 -10.5t9 -16t10 -16l7 -10.5q10 -16 21 -33t16 -34zM255 79q-1 -7 -5 -13.5t-8 -11.5q-8 7 -26.5 26.5t-38.5 41.5t-35 42t-15 28q0 11 7 17.5t14 13.5q4 5 18 22t30 35t29.5 32t17.5 14q2 0 5 -3
t5.5 -6.5t3.5 -7t-2 -4.5q-2 -5 -6 -12t-9.5 -14.5l-11 -15t-8.5 -12.5q-2 -3 -8 -11.5t-12 -18t-11 -18t-5 -11.5q0 -5 10 -15t14 -15q1 -2 8 -14t15.5 -26t15 -27t8.5 -16z" />
    <glyph glyph-name="logicalnot" unicode="&#xac;" horiz-adv-x="990" 
d="M618 326l-9 3t-12 5t-10.5 6t-4.5 6q0 7 5.5 11.5t12.5 4.5l13 -6q11 -5 17.5 -7t2.5 -19zM629 376q-9 -4 -22 -4q-5 2 -15.5 6.5t-21 9.5t-18 11.5t-7.5 13.5q0 4 2.5 8.5t7.5 5.5l26 -15l16 5q12 -4 20 -5.5t11.5 -4.5t3.5 -10t-3 -21zM687 311q-5 5 -12 5.5t-14 0.5
l-17 14l22 14l33 -14q2 -7 2 -7.5t-2 -8.5zM667 360l-5 4q-10 0 -14 9t-6 17l18 12q8 0 14 -9.5t7 -17.5zM448 158q-2 5 -4.5 11t-5.5 11l-5 -13l11 -20zM418 215q-7 10 -7 22t3 23l-5 8l-15 -9q-8 4 -9.5 4h-13.5l-12 -12l6 -16l11 4q5 -5 5.5 -11t2.5 -12l15 7
q2 -6 4 -12.5t0 -13.5l15 6v12zM482 180q-6 0 -8 -5t-7 -8l15 -8l10 11zM451 198q0 -13 6 -22q6 12 8.5 18.5t-10.5 13.5zM378 352q-5 8 -9.5 12t-14.5 4q-9 -11 -9.5 -26t-4.5 -28l8 -13l12 5q3 4 7.5 12.5t10.5 7.5v26zM403 305q-2 -2 -8 -7.5t-7 -5.5l12 -12h6l8 13z
M760 260q0 22 -10 36t-21.5 26.5t-21.5 25.5t-10 33q0 16 -11.5 27t-19.5 23l-7 -4q-9 3 -26 12.5t-34.5 19t-31.5 17.5t-18 8q-20 0 -40.5 -4t-38.5 -15q-21 11 -44.5 9.5t-46.5 3.5q-7 -3 -14 -6.5t-13 -8.5q-4 0 -12 -2.5t-16.5 -4t-15.5 -1.5t-9 4q-20 -8 -37 -11
q-5 4 -10.5 5t-11.5 1q-26 0 -50.5 -13t-48 -28.5t-45.5 -29.5t-43 -17l-2 -9l10 -4l23 4q12 12 36 21t40 17q4 6 11 8.5t14 4t13.5 3.5t11.5 8l14 -6q20 0 34 10q8 -4 15 -8t15 -9q16 8 31 16.5t32 13.5l23 -15l20 8q7 -4 8.5 -4t16.5 8l6 -5l3 -25q6 -3 17.5 -7.5
t22.5 -10.5t19.5 -13.5t8.5 -15.5q-5 -10 -5.5 -10.5t-8.5 -2.5l-40 12l-24 -7q0 -8 0.5 -8.5t11.5 -5.5l8 5q10 -1 10.5 -10.5t2.5 -17.5q6 0 10 -4.5t7 -9.5t6.5 -9t10.5 -4l6 -4q12 12 32 14q10 -7 12 -7t13 7q10 -5 10.5 -5.5t5.5 3.5l30 -6l8 -7l-4 -21q-8 -1 -15 0
t-15 1q-19 0 -37 -6.5t-34 -15.5l7 -12l10 4l8 -9l7 3l7 -17l9 2q5 10 13.5 16t18 9.5t20.5 6t20 6.5l14 -17q11 -2 20.5 -4t20.5 -2q23 0 43.5 8.5t42.5 11.5q1 5 1.5 8.5t0.5 8.5zM819 275l-4 -2l-2 7h-10v-15l16 1v9zM886 227q0 5 -0.5 15.5t-2 22t-3.5 21t-5 13.5
q-3 19 -9 37l-9 5l-7 -11q11 -31 10 -62t-1 -63l5 -14q13 5 17.5 13.5t4.5 22.5zM840 307q-6 5 -7 12.5t-3 14.5q-12 29 -34 55t-39 53l-8 -4l2 -18l-8 -26q8 -26 19 -51t25 -49q9 0 14 0.5t12 6.5l22 -11zM846 367q-11 10 -15.5 28t-14.5 30q-4 17 -13.5 32t-18.5 30
q-10 2 -10.5 2t-3.5 -7q7 -15 14 -31.5t15 -32.5t17.5 -30.5t22.5 -25.5zM892 486q-4 -6 -11 -13.5t-13.5 -16t-12 -16.5t-5.5 -14l10 -14q8 8 10 19q6 8 13.5 26.5t8.5 28.5zM843 501l-10 -6q0 -6 0.5 -6.5t10.5 -4.5l7 4l1 2zM967 190q-3 -11 -9 -18t-14 -11.5t-16.5 -9
t-15.5 -11.5l-33 17q-5 11 -13.5 18.5t-18.5 13.5l-19 -9l-1 23l-15 11q-16 0 -26.5 -8t-21.5 -17.5t-27 -17.5t-43 -8q-18 0 -30 -8l-15 6l-13 -6l-18 6t-19 3l-34 -21l-17 8l-23 -8l23 8l-23 -8q-10 -10 -25.5 -21.5t-30.5 -16t-27 3.5t-15 38l-2 -24l-6 -2l-14 16
q-15 2 -38 19.5t-45 40t-38 46t-16 38.5q0 7 5 17.5t12 21t14.5 20t11.5 15.5l-13 7q-10 0 -20.5 -4t-20.5 -9t-20 -8.5t-20 -1.5q-9 -2 -29 -7t-41.5 -10t-39.5 -9t-23 -4l-11 6l-4 -4q-35 13 -35 54l1 3.5t2.5 8t3 8.5t1.5 5q15 12 42.5 28.5t57.5 31t59 22.5t48 2
q9 5 18.5 9.5t20.5 6.5q10 -3 19.5 -5.5t19.5 -4.5l11 18l-23 32q1 7 7.5 11.5t15 8t17.5 6t14 4.5q7 -5 16 -9.5t18.5 -6.5t18.5 -1.5t16 6.5q6 0 13.5 -1t14 -3t11.5 -6.5t6 -11.5l-39 -16l-22 9l-25 -17l5 -10q9 3 23.5 4.5t28.5 3.5t26 6.5t16 12.5l-5 13l6 12
q37 -9 73.5 -18t71.5 -26l20 2q18 -12 38.5 -20t41.5 -9q10 5 16.5 13t12 17.5t10 19t11.5 17.5q8 -7 21.5 -11t24.5 -6l2 7l20 -11l15 6l24 -24l-7 -16q6 -5 13.5 -26t15 -50t15 -62.5t13.5 -65t11 -56.5t7 -36z" />
    <glyph glyph-name="uni00AD" unicode="&#xad;" horiz-adv-x="216" 
d="M77 228l-5 -5q3 -4 3.5 -4t6.5 2zM162 227q-3 5 -3.5 5t-14.5 -2l-12 -9l5 -9q9 2 10 2.5t5 11.5v-1q3 0 5.5 1t4.5 1zM187 203q0 -13 -5.5 -18t-16.5 -9q-7 6 -15 6.5t-17 0t-18 -1.5t-17 2q-3 -1 -10 -2t-15 -2t-14.5 -2.5t-7.5 -2.5h-1q-11 6 -14.5 25t-5.5 31v9
t1.5 12t4 10.5t7.5 4.5q8 -4 8.5 -4t9.5 4q9 -5 15.5 -6.5t15.5 4.5q12 0 23.5 1t23.5 1q9 -5 15 -2.5t14 2.5q7 0 10.5 -5t5.5 -10q-4 -12 -0.5 -24t3.5 -24z" />
    <glyph glyph-name="registered" unicode="&#xae;" horiz-adv-x="238" 
d="M144 440q-2 -8 -2.5 -15.5t0.5 -15.5l-19 -5q-2 7 -2 12.5v12.5q0 8 1.5 13t10.5 5zM177 348q4 4 2 7t0 7q-6 -3 -9 0.5t-4.5 9t-3 12t-4.5 10.5q11 5 12.5 15t3.5 21q-7 25 -34 31q-8 -2 -17 -1t-18 1q-2 0 -8.5 -1.5t-8.5 -2.5l-2 -6l11 -7q0 -11 1 -22t1 -22
q0 -12 -2.5 -24.5t-10.5 -22.5l3 -10q9 0 18.5 1t19.5 -1l3 7q-9 8 -8 17t1 19q4 2 5 2q4 0 6 -5.5t3 -12.5t2.5 -14.5t4.5 -10.5q5 0 11 -1.5t11 -1.5t11 6zM223 397q0 -19 -5 -31t-13.5 -20.5t-19.5 -16t-23 -18.5q-6 -2 -18.5 -3t-16.5 -3q-7 2 -14 2t-15 1
q-11 5 -22 12.5t-20.5 16.5t-15.5 20.5t-6 24.5q0 22 7 42t19.5 35.5t31 24.5t41.5 9q7 0 13.5 -2t13.5 -4q12 1 23 -9.5t20 -25t14.5 -30t5.5 -25.5z" />
    <glyph glyph-name="degree" unicode="&#xb0;" horiz-adv-x="166" 
d="M116 431l-15 7q-13 0 -24.5 -10.5t-13.5 -24.5q5 -11 6.5 -19t15.5 -16q17 -8 31 5t14 30zM152 401q0 -10 -5 -20t-12.5 -18.5t-17.5 -13.5t-20 -5q-22 0 -37.5 18.5t-15.5 39.5q0 20 13.5 37.5t35.5 15.5l6 3q10 -5 19.5 -9.5t17 -10t12 -14.5t4.5 -23z" />
    <glyph glyph-name="plusminus" unicode="&#xb1;" 
 />
    <glyph glyph-name="uni00B2" unicode="&#xb2;" 
 />
    <glyph glyph-name="uni00B3" unicode="&#xb3;" 
 />
    <glyph glyph-name="acute" unicode="&#xb4;" horiz-adv-x="242" 
d="M154 448q-5 0 -5.5 -0.5l-5.5 -5.5h6zM154 511q3 2 6.5 5.5t7.5 4.5q4 2 7.5 1.5t8.5 -5.5q1 -1 3.5 -2.5t3.5 -4.5q5 -5 10 -13.5t6 -11.5q-5 -4 -9 -9t-9 -10q-8 -8 -17 -16t-19 -16q-2 -2 -3 -1.5t-3 -0.5q-11 -9 -18.5 -17t-16.5 -16q-14 -11 -25 -19.5t-14 -11.5
q-3 -2 -7 -1t-6 3t-4 8t1 9q8 11 17.5 24.5t17.5 20.5q7 6 15.5 20.5t16.5 24.5q9 7 16.5 17t13.5 17z" />
    <glyph glyph-name="mu" unicode="&#xb5;" 
 />
    <glyph glyph-name="mu" unicode="&#x3bc;" 
 />
    <glyph glyph-name="paragraph" unicode="&#xb6;" horiz-adv-x="296" 
d="M71 664v1q2 1 6.5 1h6.5q6 0 13 -1t13 1q5 -3 6.5 -2.5l3 1t4 0.5t8.5 -3q14 5 32 4.5t34 0.5q3 -3 6 -2.5t6.5 1.5t6.5 1.5t6 -3.5q8 6 16.5 3.5t16.5 -6.5q5 1 19.5 -2.5t21.5 -3.5q2 -12 4 -27t-7 -25q-8 2 -17 1t-17 -1q0 -4 -2 -5t-4 -3q-4 -47 -1 -93.5t1 -93.5
q0 -5 -0.5 -23t-0.5 -37.5v-36t2 -18.5q1 -2 3 -4.5t4 -4.5q14 -3 16 -3t10 3q6 -12 6.5 -25.5t4.5 -27.5q-4 -9 -7.5 -13.5t-8.5 -6t-11.5 -0.5t-15.5 3q-2 -3 -5.5 -2t-7.5 4t-7.5 6t-4.5 3l-27 -11q-18 4 -29.5 1.5t-29.5 -2.5q-16 8 -26.5 7t-27.5 -3q-8 4 -7.5 6
t-9.5 -3q-6 10 -7.5 16.5t-1 12t2 12t1.5 16.5l13 8q6 -5 10 -2.5t11 6.5q3 -2 9.5 -1t13.5 0q4 7 7.5 12.5t3.5 13.5q1 24 3.5 47.5t-0.5 47.5q-1 7 -0.5 14t-1.5 13q-13 4 -26 2.5t-26 3.5q-6 3 -16 3.5t-19.5 0.5t-18 1t-12.5 6q-8 8 -14 27t-6 30q0 8 -1.5 12.5
t-3.5 12.5q-8 23 -1 45t22 41q4 5 7 11.5t8 9.5q1 0 7 3.5t13 7.5t13 7.5t7 3.5zM188 603q0 -11 -0.5 -22.5t-1.5 -22.5q-4 -68 -2 -135.5t4 -135.5q6 -5 14.5 -4t14.5 5q2 1 2.5 8.5t0 16t-1 16.5t-0.5 11q0 53 0.5 105t0.5 106q0 3 0.5 11t0.5 16.5t-1 15.5t-4 8
q-5 2 -13.5 3.5t-13.5 -2.5zM86 606q-5 -6 -14 -6t-14 -7q-5 -8 -11 -22t-6 -23q0 -16 1.5 -23t4 -10.5t5 -5.5t5.5 -7q5 -8 13 -4.5t18 5.5q7 1 12.5 -1.5t10.5 -4.5t11.5 -2t15.5 6q2 8 5.5 8t5.5 5q2 3 2.5 15t0.5 26.5t-0.5 27.5t-0.5 18q-5 1 -12 -3t-7 1q0 3 -6.5 5
t-14.5 2.5t-15.5 0t-9.5 -0.5z" />
    <glyph glyph-name="periodcentered" unicode="&#xb7;" horiz-adv-x="135" 
d="M92 297q-2 -9 -8.5 -12t-16.5 -3q-15 0 -19.5 10.5t-4.5 22.5q0 11 0.5 24t6.5 24q9 5 14 6t9 -0.5t8 -5t12 -7.5v-59h-1z" />
    <glyph glyph-name="cedilla" unicode="&#xb8;" horiz-adv-x="385" 
d="M305 -98q0 -5 -2.5 -13t-7 -17.5t-11 -19t-15.5 -16.5q-5 -5 -13 -5.5t-14 -2.5q-8 -4 -15 -4t-15 8q-2 2 -6.5 -3.5t-7.5 -6.5q-7 -2 -13 -3t-14 -1q-1 0 -11 5t-24 7q-8 1 -17.5 -3t-15.5 -3q-3 0 -7 8.5t-4 13.5q0 3 2.5 10t6 15t8 14t7.5 6q20 0 39 -1t38 -1
q2 0 8.5 0.5t12.5 1.5q4 0 8.5 3t6.5 6t1.5 5.5t-4.5 2.5q-2 0 -5.5 5.5t-5.5 6.5q-15 5 -23 3.5t-23 -3.5q-4 0 -10.5 0.5t-16.5 2.5q-11 2 -15 3t4 12q5 6 14 17t17 22q10 12 21 26q2 3 5 6q2 2 5 4.5t7 2.5t5.5 -3t2 -7t1.5 -8t4 -7q9 -8 18.5 -6t20.5 -1q9 -4 18.5 -10
t17 -15.5t12.5 -23.5t5 -33z" />
    <glyph glyph-name="uni00B9" unicode="&#xb9;" 
 />
    <glyph glyph-name="ordmasculine" unicode="&#xba;" horiz-adv-x="256" 
d="M189 534l-2 -7q10 -3 10.5 -5.5t0.5 9.5zM209 619q-17 4 -35 4.5t-35 1.5q-15 1 -30 -4t-35 2q-11 -4 -19.5 -6.5t-18.5 -8.5q-4 -5 -6.5 -11t-2.5 -13q0 -18 5 -26.5t14 -11t20.5 -1.5t24.5 1q11 0 33 -2.5t44.5 -1.5t39 8t16.5 26q0 11 -3.5 23t-11.5 20zM149 486
q-8 0 -14.5 -0.5t-14.5 -0.5q-45 1 -75 21.5t-41 65.5q-2 6 -2 9q0 9 7 25.5t12 24.5q8 15 21 25t29 16q7 3 13 6t14 5q6 1 14 -2.5t13 -1.5q6 2 15.5 2t18 -0.5t13.5 -1t2 -0.5q12 -4 21 -10.5t17 -12.5q26 -20 33 -48.5t-2 -55t-33 -46t-61 -20.5z" />
    <glyph glyph-name="guillemotright" unicode="&#xbb;" horiz-adv-x="266" 
d="M229 270q8 9 8 10t-7 6zM41 183q-6 2 -11.5 6.5t-5.5 12.5q5 9 12 18t16 15q1 7 5.5 16t9.5 17.5t9.5 15.5t4.5 10q0 2 -4.5 10.5t-10 19.5l-10.5 21t-6 15q-4 4 -11 11.5t-10.5 15t-2 13.5t13.5 8q14 -5 26.5 -19t23.5 -25q4 -4 14.5 -13.5t21 -20t19 -20t8.5 -13.5
q0 -11 -14.5 -27t-33 -32.5t-37 -31.5t-27.5 -23zM133 206q8 24 23.5 45.5t29.5 43.5q-12 24 -26.5 47.5t-27.5 47.5q1 7 5.5 12.5t11.5 5.5q18 -11 31.5 -27t30.5 -28q5 -4 13.5 -10.5t16.5 -15t14 -16.5t6 -15q0 -8 -6.5 -16t-15 -16t-17.5 -14.5t-15 -10.5q-5 -3 -13 -12
t-17 -18.5t-17 -17t-12 -7.5q-3 0 -7 2.5t-7.5 6t-4.5 7.5t4 6z" />
    <glyph glyph-name="onequarter" unicode="&#xbc;" 
 />
    <glyph glyph-name="onehalf" unicode="&#xbd;" 
 />
    <glyph glyph-name="threequarters" unicode="&#xbe;" 
 />
    <glyph glyph-name="questiondown" unicode="&#xbf;" horiz-adv-x="284" 
d="M38 -15q0 24 9.5 42t23 33.5t29 30.5t27.5 32q1 6 0.5 12t-0.5 11v14t2.5 12t7.5 6t15 -3q5 -2 10.5 1.5t11.5 3.5q8 -7 8 -12v-16q0 -30 -7 -47.5t-17 -29t-22 -19.5t-22 -17.5t-17 -24t-7 -38.5q0 -29 20 -44t47 -15q16 0 25 10t14 24t8 28.5t7 24.5l12 6q11 0 24 -5
t17 -16q-2 -20 -7 -38.5t-14 -34t-22.5 -25.5t-32.5 -12l-16 5q-11 -6 -12.5 -6.5t-1 0.5t-1 1t-12.5 -4l-16 8q-8 -6 -11.5 -8.5t-6.5 -2t-7 3t-11 6.5q-18 8 -36.5 36.5t-18.5 66.5zM125 267q4 4 8 4.5t9 2.5q9 -2 11.5 -0.5t10.5 3.5q3 -5 6.5 -5h8.5q11 0 10.5 -10.5
t-0.5 -17.5q0 -3 -0.5 -9t-1.5 -13t-3.5 -12t-6.5 -5q-9 0 -18.5 3t-16.5 -3q-5 2 -9 3t-8 3v56z" />
    <glyph glyph-name="Agrave" unicode="&#xc0;" horiz-adv-x="502" 
d="M293 213q-3 4 -10 16.5t-15 26t-14 25t-7 13.5q-2 6 -3 12t-3 11h-6l-68 -112l-1 -11q3 4 6.5 7.5l6.5 6.5q48 8 95 0q5 2 9.5 2.5t8.5 2.5h1zM379 124l-2 -7q10 -3 10.5 -5.5t0.5 9.5zM327 182l3 -4l5 8v-10q8 5 5 7.5t-10 4.5zM452 93l6 2l-6 3v-5zM414 143l-4 -4h5z
M433 126l-2 -4q0 -6 1 -7t2.5 0.5t3 4l1.5 2.5zM372 193q-2 -8 -2 -13q2 7 6 11zM326 241v-8l5 2zM421 151q3 -2 3.5 -1.5t-1.5 5.5zM369 224q-4 -2 -8 -9h9zM332 270l-5 -4v-8l9 1zM414 184q-2 10 -2 15q-2 -2 -3 -5.5t-3 -5.5zM110 81q4 -8 7 -12l-10 -9q-9 2 -18.5 3.5
t-18.5 1.5t-18 -3.5t-18 -3.5q-3 0 -5.5 3.5t-4.5 5.5q2 5 8.5 9.5t10.5 7.5q12 10 19.5 23.5t12.5 27.5q7 9 19.5 30.5t27.5 49t32 59t32.5 61t29.5 55t23 41.5q6 11 9 21.5t7 21.5l16 15q6 -1 17 -17t23.5 -40t26.5 -53t27.5 -55.5t24.5 -47.5t18 -29q8 -27 23.5 -50.5
t26.5 -49.5q9 -22 24.5 -39.5t32.5 -34.5q0 -7 -1 -9.5t-9 -2.5q-13 0 -25.5 1.5t-24.5 3.5q-7 -4 -16.5 -2.5t-17.5 4.5l-8 -2t-9 -1q-7 0 -13 1.5t-13 1.5q-3 -1 -7.5 -3t-9 -3t-7.5 1t-3 8q0 5 4.5 8t4.5 9q0 2 -5.5 15.5t-13 28.5t-14 27.5t-7.5 13.5q-5 3 -10 2t-10 -1
q-6 0 -12 1.5t-12 2.5q-17 -6 -34 -5t-34 1q-8 0 -14.5 -2t-13.5 -2t-10 0.5t-4.5 2t-3 4t-5.5 5.5q-15 -23 -26 -49t-21 -52zM212 615q-3 -8 -3 -14q2 8 6 12zM172 651v-8l5 2zM179 685q8 -8 19.5 -21.5t24.5 -29.5q5 -7 11.5 -15.5t11.5 -10.5q2 -2 1.5 -4t1.5 -4
q8 -11 16 -21t16 -19q2 -4 0 -9.5t-4 -7.5q-1 -2 -5.5 -3t-6.5 1q-5 3 -21.5 17.5t-37.5 34.5q-11 11 -25.5 21.5t-22.5 21.5q-8 7 -15 13t-13 11q0 2 4 7.5t5 10.5q5 2 9 6l5 5q10 9 15 5.5t11 -9.5z" />
    <glyph glyph-name="Aacute" unicode="&#xc1;" horiz-adv-x="502" 
d="M293 213q-3 4 -10 16.5t-15 26t-14 25t-7 13.5q-2 6 -3 12t-3 11h-6l-68 -112l-1 -11q3 4 6.5 7.5l6.5 6.5q48 8 95 0q5 2 9.5 2.5t8.5 2.5h1zM379 124l-2 -7q10 -3 10.5 -5.5t0.5 9.5zM327 182l3 -4l5 8v-10q8 5 5 7.5t-10 4.5zM452 93l6 2l-6 3v-5zM414 143l-4 -4h5z
M433 126l-2 -4q0 -6 1 -7t2.5 0.5t3 4l1.5 2.5zM372 193q-2 -8 -2 -13q2 7 6 11zM326 241v-8l5 2zM421 151q3 -2 3.5 -1.5t-1.5 5.5zM369 224q-4 -2 -8 -9h9zM332 270l-5 -4v-8l9 1zM414 184q-2 10 -2 15q-2 -2 -3 -5.5t-3 -5.5zM110 81q4 -8 7 -12l-10 -9q-9 2 -18.5 3.5
t-18.5 1.5t-18 -3.5t-18 -3.5q-3 0 -5.5 3.5t-4.5 5.5q2 5 8.5 9.5t10.5 7.5q12 10 19.5 23.5t12.5 27.5q7 9 19.5 30.5t27.5 49t32 59t32.5 61t29.5 55t23 41.5q6 11 9 21.5t7 21.5l16 15q6 -1 17 -17t23.5 -40t26.5 -53t27.5 -55.5t24.5 -47.5t18 -29q8 -27 23.5 -50.5
t26.5 -49.5q9 -22 24.5 -39.5t32.5 -34.5q0 -7 -1 -9.5t-9 -2.5q-13 0 -25.5 1.5t-24.5 3.5q-7 -4 -16.5 -2.5t-17.5 4.5l-8 -2t-9 -1q-7 0 -13 1.5t-13 1.5q-3 -1 -7.5 -3t-9 -3t-7.5 1t-3 8q0 5 4.5 8t4.5 9q0 2 -5.5 15.5t-13 28.5t-14 27.5t-7.5 13.5q-5 3 -10 2t-10 -1
q-6 0 -12 1.5t-12 2.5q-17 -6 -34 -5t-34 1q-8 0 -14.5 -2t-13.5 -2t-10 0.5t-4.5 2t-3 4t-5.5 5.5q-15 -23 -26 -49t-21 -52zM361 624q-5 0 -5.5 -0.5l-5.5 -5.5h6zM361 687q3 2 6.5 5.5t7.5 4.5q4 2 7.5 1.5t8.5 -5.5q1 -1 3.5 -2.5t3.5 -4.5q5 -5 10 -13.5t6 -11.5
q-5 -4 -9 -9t-9 -10q-8 -8 -17 -16t-19 -16q-2 -2 -3 -1.5t-3 -0.5q-11 -9 -18.5 -17t-16.5 -16q-14 -11 -25 -19.5t-14 -11.5q-3 -2 -7 -1t-6 3t-4 8t1 9q8 11 17.5 24.5t17.5 20.5q7 6 15.5 20.5t16.5 24.5q9 7 16.5 17t13.5 17z" />
    <glyph glyph-name="Acircumflex" unicode="&#xc2;" horiz-adv-x="502" 
d="M293 213q-3 4 -10 16.5t-15 26t-14 25t-7 13.5q-2 6 -3 12t-3 11h-6l-68 -112l-1 -11q3 4 6.5 7.5l6.5 6.5q48 8 95 0q5 2 9.5 2.5t8.5 2.5h1zM379 124l-2 -7q10 -3 10.5 -5.5t0.5 9.5zM327 182l3 -4l5 8v-10q8 5 5 7.5t-10 4.5zM452 93l6 2l-6 3v-5zM414 143l-4 -4h5z
M433 126l-2 -4q0 -6 1 -7t2.5 0.5t3 4l1.5 2.5zM372 193q-2 -8 -2 -13q2 7 6 11zM326 241v-8l5 2zM421 151q3 -2 3.5 -1.5t-1.5 5.5zM369 224q-4 -2 -8 -9h9zM332 270l-5 -4v-8l9 1zM414 184q-2 10 -2 15q-2 -2 -3 -5.5t-3 -5.5zM110 81q4 -8 7 -12l-10 -9q-9 2 -18.5 3.5
t-18.5 1.5t-18 -3.5t-18 -3.5q-3 0 -5.5 3.5t-4.5 5.5q2 5 8.5 9.5t10.5 7.5q12 10 19.5 23.5t12.5 27.5q7 9 19.5 30.5t27.5 49t32 59t32.5 61t29.5 55t23 41.5q6 11 9 21.5t7 21.5l16 15q6 -1 17 -17t23.5 -40t26.5 -53t27.5 -55.5t24.5 -47.5t18 -29q8 -27 23.5 -50.5
t26.5 -49.5q9 -22 24.5 -39.5t32.5 -34.5q0 -7 -1 -9.5t-9 -2.5q-13 0 -25.5 1.5t-24.5 3.5q-7 -4 -16.5 -2.5t-17.5 4.5l-8 -2t-9 -1q-7 0 -13 1.5t-13 1.5q-3 -1 -7.5 -3t-9 -3t-7.5 1t-3 8q0 5 4.5 8t4.5 9q0 2 -5.5 15.5t-13 28.5t-14 27.5t-7.5 13.5q-5 3 -10 2t-10 -1
q-6 0 -12 1.5t-12 2.5q-17 -6 -34 -5t-34 1q-8 0 -14.5 -2t-13.5 -2t-10 0.5t-4.5 2t-3 4t-5.5 5.5q-15 -23 -26 -49t-21 -52zM250 593q-3 -2 -3 -2.5t-2 -5.5q5 0 5 7v1zM158 528q8 10 13 16t10.5 13t13 17.5t20.5 28.5q11 15 19 26t14 19q3 1 5 2t6 1q2 0 11.5 -0.5
t17.5 -0.5q5 0 6 -1q8 -10 17 -19t14 -17q3 -4 7.5 -15.5t7.5 -14.5q9 -9 24.5 -26t25.5 -31l-10 -1q-7 0 -15 1.5t-13 4.5q-4 3 -4.5 6t-7.5 9q-9 8 -13.5 9t-11.5 6q-1 1 -7 8t-7 8q-8 6 -17 13t-11 7q-8 0 -14 -7.5t-15 -12.5q-5 -2 -9.5 -3.5t-8.5 -3.5t-8.5 -7.5
t-8.5 -8.5q-2 -2 -8.5 -7.5t-9.5 -4.5q-2 -2 -1.5 -3t-1.5 -3q-3 -1 -7.5 -6t-7.5 -6q-6 1 -10 2.5t-5 1.5z" />
    <glyph glyph-name="Atilde" unicode="&#xc3;" horiz-adv-x="502" 
d="M362 548q4 5 6.5 5.5t3 0t-1 -1t-5.5 2.5zM155 584q4 5 13.5 11t20.5 11t23 8t20 3q14 0 26 -3.5t26 -4.5q19 -8 35 -18t36 -12q5 -1 15.5 -1t16.5 1l5 2.5t10 6.5t9.5 8.5t3.5 7.5q3 2 7 5.5t9 3.5q8 0 6 -8.5t-8 -19.5t-13 -21t-7 -13q-2 -10 -9 -17t-17 -11t-19.5 -5
t-15.5 1q-4 1 -6.5 -2.5t-19.5 -3.5q-18 0 -36 5t-34.5 11t-31 11t-24.5 5q-13 0 -28 -4.5t-20 -13.5q-2 -4 -4.5 -11.5t-10.5 -7.5t-8 6t3 13.5t6.5 14t4.5 8.5q4 11 6 17.5t10 16.5zM293 213q-3 4 -10 16.5t-15 26t-14 25t-7 13.5q-2 6 -3 12t-3 11h-6l-68 -112l-1 -11
q3 4 6.5 7.5l6.5 6.5q48 8 95 0q5 2 9.5 2.5t8.5 2.5h1zM379 124l-2 -7q10 -3 10.5 -5.5t0.5 9.5zM327 182l3 -4l5 8v-10q8 5 5 7.5t-10 4.5zM452 93l6 2l-6 3v-5zM414 143l-4 -4h5zM433 126l-2 -4q0 -6 1 -7t2.5 0.5t3 4l1.5 2.5zM372 193q-2 -8 -2 -13q2 7 6 11zM326 241
v-8l5 2zM421 151q3 -2 3.5 -1.5t-1.5 5.5zM369 224q-4 -2 -8 -9h9zM332 270l-5 -4v-8l9 1zM414 184q-2 10 -2 15q-2 -2 -3 -5.5t-3 -5.5zM110 81q4 -8 7 -12l-10 -9q-9 2 -18.5 3.5t-18.5 1.5t-18 -3.5t-18 -3.5q-3 0 -5.5 3.5t-4.5 5.5q2 5 8.5 9.5t10.5 7.5
q12 10 19.5 23.5t12.5 27.5q7 9 19.5 30.5t27.5 49t32 59t32.5 61t29.5 55t23 41.5q6 11 9 21.5t7 21.5l16 15q6 -1 17 -17t23.5 -40t26.5 -53t27.5 -55.5t24.5 -47.5t18 -29q8 -27 23.5 -50.5t26.5 -49.5q9 -22 24.5 -39.5t32.5 -34.5q0 -7 -1 -9.5t-9 -2.5
q-13 0 -25.5 1.5t-24.5 3.5q-7 -4 -16.5 -2.5t-17.5 4.5l-8 -2t-9 -1q-7 0 -13 1.5t-13 1.5q-3 -1 -7.5 -3t-9 -3t-7.5 1t-3 8q0 5 4.5 8t4.5 9q0 2 -5.5 15.5t-13 28.5t-14 27.5t-7.5 13.5q-5 3 -10 2t-10 -1q-6 0 -12 1.5t-12 2.5q-17 -6 -34 -5t-34 1q-8 0 -14.5 -2
t-13.5 -2t-10 0.5t-4.5 2t-3 4t-5.5 5.5q-15 -23 -26 -49t-21 -52z" />
    <glyph glyph-name="Adieresis" unicode="&#xc4;" horiz-adv-x="502" 
d="M293 213q-3 4 -10 16.5t-15 26t-14 25t-7 13.5q-2 6 -3 12t-3 11h-6l-68 -112l-1 -11q3 4 6.5 7.5l6.5 6.5q48 8 95 0q5 2 9.5 2.5t8.5 2.5h1zM379 124l-2 -7q10 -3 10.5 -5.5t0.5 9.5zM327 182l3 -4l5 8v-10q8 5 5 7.5t-10 4.5zM452 93l6 2l-6 3v-5zM414 143l-4 -4h5z
M433 126l-2 -4q0 -6 1 -7t2.5 0.5t3 4l1.5 2.5zM372 193q-2 -8 -2 -13q2 7 6 11zM326 241v-8l5 2zM421 151q3 -2 3.5 -1.5t-1.5 5.5zM369 224q-4 -2 -8 -9h9zM332 270l-5 -4v-8l9 1zM414 184q-2 10 -2 15q-2 -2 -3 -5.5t-3 -5.5zM110 81q4 -8 7 -12l-10 -9q-9 2 -18.5 3.5
t-18.5 1.5t-18 -3.5t-18 -3.5q-3 0 -5.5 3.5t-4.5 5.5q2 5 8.5 9.5t10.5 7.5q12 10 19.5 23.5t12.5 27.5q7 9 19.5 30.5t27.5 49t32 59t32.5 61t29.5 55t23 41.5q6 11 9 21.5t7 21.5l16 15q6 -1 17 -17t23.5 -40t26.5 -53t27.5 -55.5t24.5 -47.5t18 -29q8 -27 23.5 -50.5
t26.5 -49.5q9 -22 24.5 -39.5t32.5 -34.5q0 -7 -1 -9.5t-9 -2.5q-13 0 -25.5 1.5t-24.5 3.5q-7 -4 -16.5 -2.5t-17.5 4.5l-8 -2t-9 -1q-7 0 -13 1.5t-13 1.5q-3 -1 -7.5 -3t-9 -3t-7.5 1t-3 8q0 5 4.5 8t4.5 9q0 2 -5.5 15.5t-13 28.5t-14 27.5t-7.5 13.5q-5 3 -10 2t-10 -1
q-6 0 -12 1.5t-12 2.5q-17 -6 -34 -5t-34 1q-8 0 -14.5 -2t-13.5 -2t-10 0.5t-4.5 2t-3 4t-5.5 5.5q-15 -23 -26 -49t-21 -52zM351 570q0 -14 -10.5 -26.5t-24.5 -12.5q-8 0 -13 4.5t-8.5 10.5t-6 12.5t-5.5 11.5q2 14 12 25t24 11l19 -9zM270 570q1 -14 -9 -26t-23 -12
q-14 0 -24.5 12.5t-10.5 26.5q0 13 11 25t25 11q8 -3 15 -7q6 -4 10.5 -11.5t5.5 -18.5z" />
    <glyph glyph-name="Aring" unicode="&#xc5;" horiz-adv-x="502" 
d="M293 213q-3 4 -10 16.5t-15 26t-14 25t-7 13.5q-2 6 -3 12t-3 11h-6l-68 -112l-1 -11q3 4 6.5 7.5l6.5 6.5q48 8 95 0q5 2 9.5 2.5t8.5 2.5h1zM379 124l-2 -7q10 -3 10.5 -5.5t0.5 9.5zM327 182l3 -4l5 8v-10q8 5 5 7.5t-10 4.5zM452 93l6 2l-6 3v-5zM414 143l-4 -4h5z
M433 126l-2 -4q0 -6 1 -7t2.5 0.5t3 4l1.5 2.5zM372 193q-2 -8 -2 -13q2 7 6 11zM326 241v-8l5 2zM421 151q3 -2 3.5 -1.5t-1.5 5.5zM369 224q-4 -2 -8 -9h9zM332 270l-5 -4v-8l9 1zM414 184q-2 10 -2 15q-2 -2 -3 -5.5t-3 -5.5zM110 81q4 -8 7 -12l-10 -9q-9 2 -18.5 3.5
t-18.5 1.5t-18 -3.5t-18 -3.5q-3 0 -5.5 3.5t-4.5 5.5q2 5 8.5 9.5t10.5 7.5q12 10 19.5 23.5t12.5 27.5q7 9 19.5 30.5t27.5 49t32 59t32.5 61t29.5 55t23 41.5q6 11 9 21.5t7 21.5l16 15q6 -1 17 -17t23.5 -40t26.5 -53t27.5 -55.5t24.5 -47.5t18 -29q8 -27 23.5 -50.5
t26.5 -49.5q9 -22 24.5 -39.5t32.5 -34.5q0 -7 -1 -9.5t-9 -2.5q-13 0 -25.5 1.5t-24.5 3.5q-7 -4 -16.5 -2.5t-17.5 4.5l-8 -2t-9 -1q-7 0 -13 1.5t-13 1.5q-3 -1 -7.5 -3t-9 -3t-7.5 1t-3 8q0 5 4.5 8t4.5 9q0 2 -5.5 15.5t-13 28.5t-14 27.5t-7.5 13.5q-5 3 -10 2t-10 -1
q-6 0 -12 1.5t-12 2.5q-17 -6 -34 -5t-34 1q-8 0 -14.5 -2t-13.5 -2t-10 0.5t-4.5 2t-3 4t-5.5 5.5q-15 -23 -26 -49t-21 -52zM306 584q-7 11 -10 16.5t-5 7.5t-4.5 3t-8.5 4q-13 0 -24 -8t-13 -22q3 -12 5 -18.5t17 -14.5q7 -3 14.5 -1.5t14 6.5t10.5 12t4 15zM329 584
q0 -10 -5 -20.5t-13 -19t-18 -14t-20 -5.5q-22 0 -38 18t-16 39q0 20 13 38.5t35 17.5l13 3q9 -6 18 -10.5t15.5 -10t11 -14t4.5 -22.5z" />
    <glyph glyph-name="AE" unicode="&#xc6;" horiz-adv-x="417" 
d="M306 78q11 0 8 6zM249 85l-8 -7l4 -1l5 6zM222 102l-2 -4l5 -2zM276 90q-4 1 -4 -1.5v-5.5q5 2 5.5 2t-1.5 5zM109 64q-6 0 -8 -3.5t6 -5.5l2 8v1zM119 110q-4 -2 -8.5 -4t-6.5 -3.5t-0.5 -3.5t8.5 -4zM104 142q-3 -1 -6.5 -1t-5.5 -9q5 5 8.5 5t3.5 5zM162 357
q3 -1 9 -1.5t12 -0.5t10.5 0.5t4.5 2.5q-3 19 -2.5 36t0.5 36q0 2 0.5 7.5t0.5 11t-1 10t-3 4.5q-6 0 -10.5 -14.5t-8.5 -33t-7 -35.5t-5 -23zM343 454q-5 2 -9 2.5t4 -7.5zM160 -39q4 29 3 57.5t0 57.5q0 12 -1.5 24t-1.5 24q0 7 6 8.5t13 1t13 -0.5t6 4q0 5 -2 21.5
t-4 35.5t-2 35.5t4 21.5l-6 5h-10h-14.5t-14 -1t-8.5 -3q0 -7 -3 -23.5t-6 -34.5t-6 -33.5t-3 -21.5q0 -4 6 -4.5t12.5 -0.5t11.5 -2t4 -9q-5 -29 -4 -58.5t0 -58.5q0 -11 2 -22.5t0 -21.5q-1 -9 -7 -15t-12 -3l-19 10l-16 -10q-14 5 -20 7t-9.5 1t-7.5 -3t-15 -5
q-9 -2 -13 3.5t-5.5 14.5t-1.5 19v16q0 10 0.5 28t1 37t0 35.5t-3.5 23.5q1 12 9 12t16 -1l7 5q4 37 10.5 73t12.5 73q2 8 4 15t3 15q-2 4 -0.5 14t4 21.5t5 22.5t2.5 18q3 3 5.5 15t5 27t4.5 29.5t5 21.5q1 2 5.5 20t9 39.5t7.5 40.5t2 22q3 4 3 8t-1 7.5t-1 7.5t2 8
q1 2 5.5 5t9.5 5.5t10 4.5t7 2q14 -1 25 -5t27 5q3 2 7 0.5t8 -4.5t8 -5.5t8 -2.5q5 0 15 6t16 6q10 -3 17.5 -5.5t14 -3.5t14 0t18.5 4q1 0 4.5 -1.5t7 -4t6.5 -5t4 -3.5q0 -11 2 -28.5t-1 -25.5q-1 -2 -1 -17t-0.5 -37.5t-0.5 -49v-51t-0.5 -43t-0.5 -24.5q0 -5 -3 -6.5
t-7.5 -1.5t-9 0.5t-6.5 0.5t-7.5 -1t-11.5 -1t-11 1t-5 5l3 7q-5 18 -3 36.5t2 33t-6.5 23.5t-28.5 8q-4 0 -9.5 -1.5t-6.5 -6.5q-2 -23 -1.5 -46.5t-2.5 -46.5q0 -3 4.5 -4t10.5 -1t11 0.5t7 0.5l5 -6q0 -13 -2 -25.5t-2 -25.5q0 -10 1.5 -20t0.5 -20q0 -5 -3.5 -6.5
t-8.5 -1t-10 2t-8 1.5l-5 -6q3 -9 3.5 -25t-0.5 -33.5t-2 -33t-1 -23.5q6 -5 9.5 -5t11.5 2q15 -4 21 1.5t7.5 15.5t1 22t-0.5 20q0 15 1 29.5t2 28.5q-4 6 -5 9q0 4 8.5 5t18.5 1t20 -1t13 -1q4 0 5.5 -4.5t1.5 -11t-1 -12.5t-1 -8q-1 -54 -1.5 -108.5t1.5 -108.5
q0 -12 1 -24.5t2 -25.5q0 -6 -5 -9.5t-12 -5t-14 -2t-11 -0.5q-13 2 -35.5 7t-33.5 7q-15 -2 -21 -4t-9.5 -3t-8 0t-16.5 4q-14 -2 -20.5 -3.5t-10.5 -1.5t-7 1t-10 3q-2 0 -4 3.5t-2 5.5z" />
    <glyph glyph-name="Ccedilla" unicode="&#xc7;" horiz-adv-x="233" 
d="M101 -71q-16 0 -25 10.5t-12 12.5q-8 4 -18.5 19t-12.5 24q-6 20 -2.5 35t3.5 34q0 9 -4 17.5t-4 18.5q0 8 0.5 16t4.5 15q-4 26 -8 48t-5 48q3 4 3 27v55.5t0.5 70.5t5.5 74t16 64.5t31 42.5q8 5 16.5 5t16.5 1q4 5 10 5.5t12 0.5q25 0 44.5 -10.5t27.5 -36.5
q2 -6 2.5 -12t2.5 -12q5 -17 7 -32t2 -34q0 -24 -10.5 -29.5t-33.5 -5.5q-20 0 -28 8t-8 27q0 11 1.5 17t9.5 14q-5 11 -8 20.5t-13 19.5q-15 -7 -20 -14t-5 -24q0 -25 2 -49.5t2 -49.5q0 -9 -3 -17.5t-3 -17.5q0 -6 2.5 -11.5t4.5 -11.5t2 -14t-4 -18q3 -5 4 -18.5t1.5 -30
t0.5 -31v-20.5v-52q-5 -11 -7 -28t-3 -35t-1 -35.5v-30.5v-6l15 -9t17 -6t9.5 4.5t3 11t0.5 13t2 10.5q1 4 3.5 7t2.5 8q0 11 -4.5 20.5t-4.5 20.5q0 5 1 8.5t2 8.5q9 3 22 5.5t25.5 2t21.5 -6t9 -19.5q0 -5 -2.5 -10t-3.5 -10q-3 -13 -3 -26t-0.5 -25t-4.5 -23.5t-14 -22.5
q-8 -8 -12.5 -13t-9 -8t-10 -4.5t-14.5 -2.5q-2 -1 -3 -1l-2 -1q0 -3 9.5 -5.5t12.5 -4.5t6.5 -8t7.5 -13.5t6.5 -15t2.5 -12.5q0 -12 -3 -25t-10 -24q-2 -3 -3 -8.5t-6 -3.5q-11 -9 -21 -6q-3 1 -10.5 -3.5t-10.5 -4.5q-4 0 -7.5 2t-8.5 3q-3 1 -6.5 0t-7.5 0q-2 0 -4.5 2
t-4.5 3q-4 2 -7 0t-7 0q-4 1 -7.5 2.5t-7.5 2.5q-5 1 -5.5 8t1 15t3.5 14.5t3 6.5t6 -1t11 -2.5t11 -2.5t6 -1l22 -2q3 0 9.5 2t12 5.5t6.5 7.5t-6 7q-1 1 -6.5 5.5t-14.5 4.5t-25.5 5t-22.5 6q5 10 15.5 19.5t18.5 20.5q1 3 -1 5zM71 206q8 -3 8.5 -2.5t-2.5 11.5zM68 193
v-8q8 2 8.5 2t0.5 5zM75 252l-6 -10q5 -5 5.5 -4.5t7.5 14.5h-7zM73 376l-5 -6q3 -6 3.5 -6t6.5 9zM86 405q-2 -1 -5 0t-5 1l2 -10z" />
    <glyph glyph-name="Egrave" unicode="&#xc8;" horiz-adv-x="313" 
d="M96 804q-3 -9 -3 -17q2 4 3.5 8t4.5 7zM48 849v-10l6 2zM56 891q11 -11 25 -27.5t29 -35.5q7 -8 15 -19t13 -13q2 -2 2 -5t2 -6q10 -13 19.5 -25t18.5 -24q4 -5 1.5 -12t-5.5 -9q-2 -2 -7 -3.5t-8 1.5q-5 5 -25.5 22t-46.5 42q-14 14 -31 26.5t-28 26.5q-10 9 -18 16
t-15 14q0 3 4.5 9.5t6.5 13.5q7 2 11.5 7t5.5 6q11 11 17.5 7t13.5 -12zM58 118q4 -1 4.5 -4.5t1.5 -6.5t3 -5.5t8 -0.5q-2 7 -3 14t-6 12zM87 120l-8 -1l13 -8zM193 75q-6 0 -6 -0.5t4 -6.5zM100 177q-6 5 -8 16v-19zM75 200q8 4 8 4.5t-5 6.5zM225 76l-6 -12q0 -1 7 4
q4 3 8 7zM116 188l13 -11q-1 7 -1 8t-6 7zM256 126l1 -6l5 4zM108 287l-11 -1q5 -9 6.5 -9t15.5 6l-6 14zM97 476q2 -5 3 -4.5t9 5.5l-1 8zM61 565q-2 5 -2.5 7.5t-2 4.5t-4 5t-7.5 10l-3 -5l7 -4q1 -5 1.5 -8.5t2.5 -7.5zM140 583l-12 -16l11 2q2 6 2 9zM188 565q-1 1 -3 2
t-4 0q0 -8 -1 -12.5t-1 -6.5t2.5 -1t10.5 3l-9 6zM221 555l2 -8q8 0 8 0.5t2 5.5v1zM234 591l-4 14q-5 -3 -5.5 -4t6.5 -19l11 7l-5 5zM192 660q18 -1 34.5 1t33.5 2q8 0 16 -3t8 -12q0 -31 2 -62t2 -62q0 -26 -3 -51.5t-11 -50.5q-9 -3 -20 -3.5t-21.5 2.5t-17.5 9.5
t-7 18.5q0 15 3 30t3 30q0 7 -0.5 13t-1.5 12q-19 -2 -35 2t-34 4l-12 -11q0 -33 2.5 -66.5t5.5 -66.5q10 -8 10.5 -8t8.5 4q23 -13 44 2q11 -4 14 -14t3 -20q0 -4 -0.5 -10.5t-2 -13t-4.5 -11t-9 -4.5q-4 2 -15 5.5t-22.5 5.5t-20.5 0t-9 -11l3 -159l5 -5h18t22 0.5t20.5 2
t15.5 6.5q0 21 -4.5 42t-4.5 42q0 29 16.5 37t41.5 8q9 0 13 -8t8 -14l-5 -58l-15 -6l16 -2q-1 -17 0 -38t1.5 -43t0 -42t-3.5 -35l-19 -14q-7 4 -20.5 6t-28 2t-28 -2t-21.5 -5l-5 6q-23 -3 -46.5 -5t-47.5 -2q-13 0 -19.5 3.5t-9.5 9.5t-3.5 14.5t-0.5 18.5v20t2.5 31
t7 27t13.5 7q11 9 12.5 21.5t-4.5 25.5q4 24 5 48.5t1 49.5q0 8 -3.5 15t-3.5 15t1.5 12.5t3 8t1 9.5t-3.5 17q2 17 0 33t-2 33t3 33t5 33l-7 13l-16 -3q-4 4 -6 5t-3 5t-2.5 13.5t-4.5 29.5q4 4 4.5 12.5t0 17.5t-2.5 17.5t-3 13.5l9 19l24 12q16 -4 33 -7q14 -2 29.5 -3.5
t28.5 0.5q5 1 9 1.5t8 1.5z" />
    <glyph glyph-name="Eacute" unicode="&#xc9;" horiz-adv-x="313" 
d="M285 814q-8 -1 -8.5 -1t-5.5 -8h7zM285 892q3 4 7.5 7.5t9.5 5.5q10 5 20 -6q1 0 4 -2t4 -6q7 -7 13.5 -17t6.5 -15q-5 -5 -10 -11t-11 -12q-11 -10 -22.5 -19.5t-23.5 -20.5q-2 -2 -4 -1.5t-4 -1.5q-12 -11 -22.5 -21t-21.5 -20q-17 -14 -30.5 -24.5t-18.5 -14.5
q-3 -3 -8.5 -1t-7.5 4t-4.5 9t0.5 12q11 14 23 31t22 25q8 8 18.5 26t21.5 31q11 8 20.5 21t17.5 21zM58 118q4 -1 4.5 -4.5t1.5 -6.5t3 -5.5t8 -0.5q-2 7 -3 14t-6 12zM87 120l-8 -1l13 -8zM193 75q-6 0 -6 -0.5t4 -6.5zM100 177q-6 5 -8 16v-19zM75 200q8 4 8 4.5t-5 6.5z
M225 76l-6 -12q0 -1 7 4q4 3 8 7zM116 188l13 -11q-1 7 -1 8t-6 7zM256 126l1 -6l5 4zM108 287l-11 -1q5 -9 6.5 -9t15.5 6l-6 14zM97 476q2 -5 3 -4.5t9 5.5l-1 8zM61 565q-2 5 -2.5 7.5t-2 4.5t-4 5t-7.5 10l-3 -5l7 -4q1 -5 1.5 -8.5t2.5 -7.5zM140 583l-12 -16l11 2
q2 6 2 9zM188 565q-1 1 -3 2t-4 0q0 -8 -1 -12.5t-1 -6.5t2.5 -1t10.5 3l-9 6zM221 555l2 -8q8 0 8 0.5t2 5.5v1zM234 591l-4 14q-5 -3 -5.5 -4t6.5 -19l11 7l-5 5zM192 660q18 -1 34.5 1t33.5 2q8 0 16 -3t8 -12q0 -31 2 -62t2 -62q0 -26 -3 -51.5t-11 -50.5
q-9 -3 -20 -3.5t-21.5 2.5t-17.5 9.5t-7 18.5q0 15 3 30t3 30q0 7 -0.5 13t-1.5 12q-19 -2 -35 2t-34 4l-12 -11q0 -33 2.5 -66.5t5.5 -66.5q10 -8 10.5 -8t8.5 4q23 -13 44 2q11 -4 14 -14t3 -20q0 -4 -0.5 -10.5t-2 -13t-4.5 -11t-9 -4.5q-4 2 -15 5.5t-22.5 5.5t-20.5 0
t-9 -11l3 -159l5 -5h18t22 0.5t20.5 2t15.5 6.5q0 21 -4.5 42t-4.5 42q0 29 16.5 37t41.5 8q9 0 13 -8t8 -14l-5 -58l-15 -6l16 -2q-1 -17 0 -38t1.5 -43t0 -42t-3.5 -35l-19 -14q-7 4 -20.5 6t-28 2t-28 -2t-21.5 -5l-5 6q-23 -3 -46.5 -5t-47.5 -2q-13 0 -19.5 3.5
t-9.5 9.5t-3.5 14.5t-0.5 18.5v20t2.5 31t7 27t13.5 7q11 9 12.5 21.5t-4.5 25.5q4 24 5 48.5t1 49.5q0 8 -3.5 15t-3.5 15t1.5 12.5t3 8t1 9.5t-3.5 17q2 17 0 33t-2 33t3 33t5 33l-7 13l-16 -3q-4 4 -6 5t-3 5t-2.5 13.5t-4.5 29.5q4 4 4.5 12.5t0 17.5t-2.5 17.5t-3 13.5
l9 19l24 12q16 -4 33 -7q14 -2 29.5 -3.5t28.5 0.5q5 1 9 1.5t8 1.5z" />
    <glyph glyph-name="Ecircumflex" unicode="&#xca;" horiz-adv-x="313" 
d="M58 118q4 -1 4.5 -4.5t1.5 -6.5t3 -5.5t8 -0.5q-2 7 -3 14t-6 12zM87 120l-8 -1l13 -8zM193 75q-6 0 -6 -0.5t4 -6.5zM100 177q-6 5 -8 16v-19zM75 200q8 4 8 4.5t-5 6.5zM225 76l-6 -12q0 -1 7 4q4 3 8 7zM116 188l13 -11q-1 7 -1 8t-6 7zM256 126l1 -6l5 4zM108 287
l-11 -1q5 -9 6.5 -9t15.5 6l-6 14zM97 476q2 -5 3 -4.5t9 5.5l-1 8zM61 565q-2 5 -2.5 7.5t-2 4.5t-4 5t-7.5 10l-3 -5l7 -4q1 -5 1.5 -8.5t2.5 -7.5zM140 583l-12 -16l11 2q2 6 2 9zM188 565q-1 1 -3 2t-4 0q0 -8 -1 -12.5t-1 -6.5t2.5 -1t10.5 3l-9 6zM221 555l2 -8
q8 0 8 0.5t2 5.5v1zM234 591l-4 14q-5 -3 -5.5 -4t6.5 -19l11 7l-5 5zM192 660q18 -1 34.5 1t33.5 2q8 0 16 -3t8 -12q0 -31 2 -62t2 -62q0 -26 -3 -51.5t-11 -50.5q-9 -3 -20 -3.5t-21.5 2.5t-17.5 9.5t-7 18.5q0 15 3 30t3 30q0 7 -0.5 13t-1.5 12q-19 -2 -35 2t-34 4
l-12 -11q0 -33 2.5 -66.5t5.5 -66.5q10 -8 10.5 -8t8.5 4q23 -13 44 2q11 -4 14 -14t3 -20q0 -4 -0.5 -10.5t-2 -13t-4.5 -11t-9 -4.5q-4 2 -15 5.5t-22.5 5.5t-20.5 0t-9 -11l3 -159l5 -5h18t22 0.5t20.5 2t15.5 6.5q0 21 -4.5 42t-4.5 42q0 29 16.5 37t41.5 8q9 0 13 -8
t8 -14l-5 -58l-15 -6l16 -2q-1 -17 0 -38t1.5 -43t0 -42t-3.5 -35l-19 -14q-7 4 -20.5 6t-28 2t-28 -2t-21.5 -5l-5 6q-23 -3 -46.5 -5t-47.5 -2q-13 0 -19.5 3.5t-9.5 9.5t-3.5 14.5t-0.5 18.5v20t2.5 31t7 27t13.5 7q11 9 12.5 21.5t-4.5 25.5q4 24 5 48.5t1 49.5
q0 8 -3.5 15t-3.5 15t1.5 12.5t3 8t1 9.5t-3.5 17q2 17 0 33t-2 33t3 33t5 33l-7 13l-16 -3q-4 4 -6 5t-3 5t-2.5 13.5t-4.5 29.5q4 4 4.5 12.5t0 17.5t-2.5 17.5t-3 13.5l9 19l24 12q16 -4 33 -7q14 -2 29.5 -3.5t28.5 0.5q5 1 9 1.5t8 1.5zM142 786q-3 -2 -3 -2.5t-2 -5.5
q5 0 5 7v1zM50 721q8 10 13 16t10.5 13t13 17.5t20.5 28.5q11 15 19 26t14 19q3 1 5 2t6 1q2 0 11.5 -0.5t17.5 -0.5q5 0 6 -1q8 -10 17 -19t14 -17q3 -4 7.5 -15.5t7.5 -14.5q9 -9 24.5 -26t25.5 -31l-10 -1q-7 0 -15 1.5t-13 4.5q-4 3 -4.5 6t-7.5 9q-9 8 -13.5 9t-11.5 6
q-1 1 -7 8t-7 8q-8 6 -17 13t-11 7q-8 0 -14 -7.5t-15 -12.5q-5 -2 -9.5 -3.5t-8.5 -3.5t-8.5 -7.5t-8.5 -8.5q-2 -2 -8.5 -7.5t-9.5 -4.5q-2 -2 -1.5 -3t-1.5 -3q-3 -1 -7.5 -6t-7.5 -6q-6 1 -10 2.5t-5 1.5z" />
    <glyph glyph-name="Edieresis" unicode="&#xcb;" horiz-adv-x="313" 
d="M255 747q0 -15 -12 -29.5t-28 -14.5q-9 0 -14.5 5t-9.5 12t-6.5 14.5t-5.5 13.5q2 14 13.5 27t26.5 13l21 -11zM165 747q1 -14 -10.5 -28.5t-26.5 -14.5q-16 0 -27.5 15t-11.5 30q0 14 12.5 27.5t27.5 12.5q9 -3 17 -8q7 -5 12.5 -13t6.5 -21zM58 118q4 -1 4.5 -4.5
t1.5 -6.5t3 -5.5t8 -0.5q-2 7 -3 14t-6 12zM87 120l-8 -1l13 -8zM193 75q-6 0 -6 -0.5t4 -6.5zM100 177q-6 5 -8 16v-19zM75 200q8 4 8 4.5t-5 6.5zM225 76l-6 -12q0 -1 7 4q4 3 8 7zM116 188l13 -11q-1 7 -1 8t-6 7zM256 126l1 -6l5 4zM108 287l-11 -1q5 -9 6.5 -9t15.5 6
l-6 14zM97 476q2 -5 3 -4.5t9 5.5l-1 8zM61 565q-2 5 -2.5 7.5t-2 4.5t-4 5t-7.5 10l-3 -5l7 -4q1 -5 1.5 -8.5t2.5 -7.5zM140 583l-12 -16l11 2q2 6 2 9zM188 565q-1 1 -3 2t-4 0q0 -8 -1 -12.5t-1 -6.5t2.5 -1t10.5 3l-9 6zM221 555l2 -8q8 0 8 0.5t2 5.5v1zM234 591
l-4 14q-5 -3 -5.5 -4t6.5 -19l11 7l-5 5zM192 660q18 -1 34.5 1t33.5 2q8 0 16 -3t8 -12q0 -31 2 -62t2 -62q0 -26 -3 -51.5t-11 -50.5q-9 -3 -20 -3.5t-21.5 2.5t-17.5 9.5t-7 18.5q0 15 3 30t3 30q0 7 -0.5 13t-1.5 12q-19 -2 -35 2t-34 4l-12 -11q0 -33 2.5 -66.5
t5.5 -66.5q10 -8 10.5 -8t8.5 4q23 -13 44 2q11 -4 14 -14t3 -20q0 -4 -0.5 -10.5t-2 -13t-4.5 -11t-9 -4.5q-4 2 -15 5.5t-22.5 5.5t-20.5 0t-9 -11l3 -159l5 -5h18t22 0.5t20.5 2t15.5 6.5q0 21 -4.5 42t-4.5 42q0 29 16.5 37t41.5 8q9 0 13 -8t8 -14l-5 -58l-15 -6l16 -2
q-1 -17 0 -38t1.5 -43t0 -42t-3.5 -35l-19 -14q-7 4 -20.5 6t-28 2t-28 -2t-21.5 -5l-5 6q-23 -3 -46.5 -5t-47.5 -2q-13 0 -19.5 3.5t-9.5 9.5t-3.5 14.5t-0.5 18.5v20t2.5 31t7 27t13.5 7q11 9 12.5 21.5t-4.5 25.5q4 24 5 48.5t1 49.5q0 8 -3.5 15t-3.5 15t1.5 12.5t3 8
t1 9.5t-3.5 17q2 17 0 33t-2 33t3 33t5 33l-7 13l-16 -3q-4 4 -6 5t-3 5t-2.5 13.5t-4.5 29.5q4 4 4.5 12.5t0 17.5t-2.5 17.5t-3 13.5l9 19l24 12q16 -4 33 -7q14 -2 29.5 -3.5t28.5 0.5q5 1 9 1.5t8 1.5z" />
    <glyph glyph-name="Igrave" unicode="&#xcc;" horiz-adv-x="365" 
d="M106 810q-2 -8 -4 -20q2 5 3.5 9.5t5.5 7.5zM48 863v-12l8 3zM58 913q12 -13 29 -32.5t36 -42.5q8 -10 17.5 -22.5t15.5 -14.5q2 -3 2.5 -6.5t2.5 -6.5q12 -15 23.5 -29.5t22.5 -28.5q4 -5 1 -14t-6 -11q-2 -2 -8 -4t-11 1q-6 5 -30.5 26t-54.5 50q-17 17 -38 31.5
t-33 31.5q-11 11 -21.5 19t-18.5 16q0 4 5.5 11.5t7.5 15.5q8 2 13.5 8.5t6.5 7.5q14 13 22 8t16 -14zM194 275l-7 -5q7 -7 8 -7h9zM229 400q8 9 8 10t-7 6zM228 542v1h-8v-10h5.5t2.5 7v2zM353 628q-1 -15 -2 -31t-6 -30q3 -8 4.5 -19.5t0 -22.5t-6.5 -20t-15 -12l-38 8
l-7 -12l1 -192q3 -2 4.5 -2.5t4 0t9 2.5t20.5 7q6 -2 9 -2.5t4.5 -1.5t4 -2.5t7.5 -5.5l1 -129q0 -17 -5 -25.5t-14 -12t-20.5 -3t-24.5 1.5q-9 -4 -15.5 -3.5t-12.5 2t-12 1t-13 -7.5q-9 8 -20 8h-22q-4 -5 -7 -5t-7 1t-8.5 0t-10.5 -7q-12 2 -25.5 5.5t-27.5 5.5t-27 0.5
t-25 -10.5l-20 9q-2 11 -6.5 21.5t-4.5 21.5v121q1 5 6 10t13.5 7t18.5 1.5t21 -5.5q6 3 7 3t14 -2q-3 10 -4 36.5t-0.5 57t1 58t0.5 40.5l-9 5q-9 -2 -13 -3.5t-6 -1.5t-3.5 1.5t-4.5 3.5q-8 0 -15 -1.5t-15 -3.5l-10 14q2 23 0.5 44.5t-1.5 44.5q0 24 7.5 39.5t36.5 13.5
l9 5l28 -12l13 7q6 -5 12 -5.5t11 1.5t8.5 5.5l5.5 5.5q8 -6 18 -10.5t20 -6.5q8 3 17.5 3t19 -0.5t18 0t15.5 4.5q16 -3 25 -3t16.5 0.5t16.5 2t25 1.5zM313 203q-2 13 -2.5 13.5t-5.5 -1.5v-12h8z" />
    <glyph glyph-name="Iacute" unicode="&#xcd;" horiz-adv-x="365" 
d="M328 823q-8 -1 -9 -1.5t-8 -8.5h9zM328 915q5 5 10 9.5t10 6.5q12 5 25 -7q1 0 4.5 -2.5t4.5 -7.5q8 -8 16 -20t8 -17q-6 -6 -12 -13t-14 -15q-24 -23 -54 -48q-2 -2 -4.5 -1.5t-4.5 -1.5q-15 -13 -26.5 -25t-25.5 -23q-20 -17 -36.5 -29.5t-21.5 -17.5q-5 -3 -11 -1
t-8 4q-3 3 -6.5 12t1.5 14q13 16 27.5 36t25.5 30q10 9 22.5 31t24.5 37q14 10 25 25t20 24zM194 275l-7 -5q7 -7 8 -7h9zM229 400q8 9 8 10t-7 6zM228 542v1h-8v-10h5.5t2.5 7v2zM353 628q-1 -15 -2 -31t-6 -30q3 -8 4.5 -19.5t0 -22.5t-6.5 -20t-15 -12l-38 8l-7 -12
l1 -192q3 -2 4.5 -2.5t4 0t9 2.5t20.5 7q6 -2 9 -2.5t4.5 -1.5t4 -2.5t7.5 -5.5l1 -129q0 -17 -5 -25.5t-14 -12t-20.5 -3t-24.5 1.5q-9 -4 -15.5 -3.5t-12.5 2t-12 1t-13 -7.5q-9 8 -20 8h-22q-4 -5 -7 -5t-7 1t-8.5 0t-10.5 -7q-12 2 -25.5 5.5t-27.5 5.5t-27 0.5
t-25 -10.5l-20 9q-2 11 -6.5 21.5t-4.5 21.5v121q1 5 6 10t13.5 7t18.5 1.5t21 -5.5q6 3 7 3t14 -2q-3 10 -4 36.5t-0.5 57t1 58t0.5 40.5l-9 5q-9 -2 -13 -3.5t-6 -1.5t-3.5 1.5t-4.5 3.5q-8 0 -15 -1.5t-15 -3.5l-10 14q2 23 0.5 44.5t-1.5 44.5q0 24 7.5 39.5t36.5 13.5
l9 5l28 -12l13 7q6 -5 12 -5.5t11 1.5t8.5 5.5l5.5 5.5q8 -6 18 -10.5t20 -6.5q8 3 17.5 3t19 -0.5t18 0t15.5 4.5q16 -3 25 -3t16.5 0.5t16.5 2t25 1.5zM313 203q-2 13 -2.5 13.5t-5.5 -1.5v-12h8z" />
    <glyph glyph-name="Icircumflex" unicode="&#xce;" horiz-adv-x="365" 
d="M158 802q-5 -3 -5 -3.5t-2 -6.5q5 0 6 2t1 7v1zM33 713q11 14 17.5 22.5t14 18t17.5 23.5t28 39q14 20 25.5 35t19.5 26q5 2 8 2.5t8 0.5h38q6 0 8 -2q11 -14 23.5 -26.5t19.5 -22.5q2 -3 5 -8.5t5.5 -12t5 -12.5t4.5 -8q13 -12 34 -34.5t34 -42.5l-13 -1
q-9 -1 -20.5 1.5t-17.5 6.5q-5 4 -6 8.5t-11 12.5q-12 10 -18 11t-15 8q-2 2 -10.5 11.5t-9.5 10.5q-5 4 -11 9t-11.5 9t-9.5 7t-5 3q-11 0 -19.5 -10.5t-20.5 -16.5q-6 -3 -12.5 -5t-12.5 -6q-5 -2 -11 -9.5t-11 -10.5q-3 -2 -12 -10.5t-14 -6.5q-3 -2 -1.5 -4t-2.5 -4
t-9.5 -8.5t-9.5 -8.5q-8 2 -13.5 3.5t-7.5 1.5zM194 275l-7 -5q7 -7 8 -7h9zM229 400q8 9 8 10t-7 6zM228 542v1h-8v-10h5.5t2.5 7v2zM353 628q-1 -15 -2 -31t-6 -30q3 -8 4.5 -19.5t0 -22.5t-6.5 -20t-15 -12l-38 8l-7 -12l1 -192q3 -2 4.5 -2.5t4 0t9 2.5t20.5 7
q6 -2 9 -2.5t4.5 -1.5t4 -2.5t7.5 -5.5l1 -129q0 -17 -5 -25.5t-14 -12t-20.5 -3t-24.5 1.5q-9 -4 -15.5 -3.5t-12.5 2t-12 1t-13 -7.5q-9 8 -20 8h-22q-4 -5 -7 -5t-7 1t-8.5 0t-10.5 -7q-12 2 -25.5 5.5t-27.5 5.5t-27 0.5t-25 -10.5l-20 9q-2 11 -6.5 21.5t-4.5 21.5v121
q1 5 6 10t13.5 7t18.5 1.5t21 -5.5q6 3 7 3t14 -2q-3 10 -4 36.5t-0.5 57t1 58t0.5 40.5l-9 5q-9 -2 -13 -3.5t-6 -1.5t-3.5 1.5t-4.5 3.5q-8 0 -15 -1.5t-15 -3.5l-10 14q2 23 0.5 44.5t-1.5 44.5q0 24 7.5 39.5t36.5 13.5l9 5l28 -12l13 7q6 -5 12 -5.5t11 1.5t8.5 5.5
l5.5 5.5q8 -6 18 -10.5t20 -6.5q8 3 17.5 3t19 -0.5t18 0t15.5 4.5q16 -3 25 -3t16.5 0.5t16.5 2t25 1.5zM313 203q-2 13 -2.5 13.5t-5.5 -1.5v-12h8z" />
    <glyph glyph-name="Idieresis" unicode="&#xcf;" horiz-adv-x="365" 
d="M307 760q0 -11 -4.5 -21.5t-12 -19.5t-17.5 -14.5t-21 -5.5q-12 0 -20.5 6.5t-14 16.5t-9 20.5t-7.5 18.5q2 21 18.5 38.5t37.5 17.5l30 -14zM181 760q0 -10 -4 -20.5t-11 -19.5t-17 -14.5t-20 -5.5q-11 0 -21 6t-17.5 15t-12 20t-4.5 22q0 10 5 20t13 18.5t18 13t21 4.5
q13 -4 24 -11q9 -7 16.5 -18t9.5 -30zM194 275l-7 -5q7 -7 8 -7h9zM229 400q8 9 8 10t-7 6zM228 542v1h-8v-10h5.5t2.5 7v2zM353 628q-1 -15 -2 -31t-6 -30q3 -8 4.5 -19.5t0 -22.5t-6.5 -20t-15 -12l-38 8l-7 -12l1 -192q3 -2 4.5 -2.5t4 0t9 2.5t20.5 7q6 -2 9 -2.5
t4.5 -1.5t4 -2.5t7.5 -5.5l1 -129q0 -17 -5 -25.5t-14 -12t-20.5 -3t-24.5 1.5q-9 -4 -15.5 -3.5t-12.5 2t-12 1t-13 -7.5q-9 8 -20 8h-22q-4 -5 -7 -5t-7 1t-8.5 0t-10.5 -7q-12 2 -25.5 5.5t-27.5 5.5t-27 0.5t-25 -10.5l-20 9q-2 11 -6.5 21.5t-4.5 21.5v121q1 5 6 10
t13.5 7t18.5 1.5t21 -5.5q6 3 7 3t14 -2q-3 10 -4 36.5t-0.5 57t1 58t0.5 40.5l-9 5q-9 -2 -13 -3.5t-6 -1.5t-3.5 1.5t-4.5 3.5q-8 0 -15 -1.5t-15 -3.5l-10 14q2 23 0.5 44.5t-1.5 44.5q0 24 7.5 39.5t36.5 13.5l9 5l28 -12l13 7q6 -5 12 -5.5t11 1.5t8.5 5.5l5.5 5.5
q8 -6 18 -10.5t20 -6.5q8 3 17.5 3t19 -0.5t18 0t15.5 4.5q16 -3 25 -3t16.5 0.5t16.5 2t25 1.5zM313 203q-2 13 -2.5 13.5t-5.5 -1.5v-12h8z" />
    <glyph glyph-name="Eth" unicode="&#xd0;" 
 />
    <glyph glyph-name="Ntilde" unicode="&#xd1;" horiz-adv-x="541" 
d="M415 682q5 6 8 6.5t3.5 0t-1.5 -1t-6 3.5zM174 725q4 6 15 13t24.5 12.5t27 9t23.5 3.5q16 0 30.5 -4t30.5 -6q21 -8 39.5 -20t42.5 -14q6 -1 18 -1t19 1l5.5 3t12 7.5t11 9.5t3.5 9q4 3 9 6.5t11 3.5q9 0 6.5 -10t-9.5 -22.5t-15 -24t-8 -15.5q-2 -11 -10.5 -19t-20 -13
t-22.5 -6t-18 1q-2 1 -3.5 0t-4 -2.5t-7.5 -3t-15 -1.5q-21 0 -41.5 6t-40 13t-36.5 12.5t-29 5.5q-15 0 -33 -5t-23 -16q-2 -5 -5 -13.5t-12 -7.5q-9 0 -9.5 7t3 15t8 16t5.5 10q4 12 6.5 20.5t11.5 19.5zM153 477q-5 4 -5.5 10t-2.5 11q1 -10 0.5 -14.5t-0.5 -6t1.5 -1
t6.5 0.5zM545 559q-10 -8 -16.5 -12.5t-10.5 -10t-5.5 -13.5t-1.5 -23q0 -87 2.5 -173t2.5 -173v-18.5t-2 -25t-6.5 -22.5t-13.5 -10q-19 12 -46.5 39.5t-59 63t-65 76t-64.5 79t-58 72t-45 54.5l-8 -2q0 -22 -0.5 -60.5t-0.5 -79t1.5 -77t6.5 -54.5q6 -21 10.5 -30t9 -13.5
t10.5 -9t14 -16.5l32 -6q5 -18 1 -27t-27 -9q-14 0 -27 6t-27 6q-11 0 -16 -2t-16 -7q-17 5 -36.5 5t-36.5 -6l-12 10.5t-5.5 6t-1.5 6.5v12l21 11q7 -5 18 -3t21.5 9t18 16.5t7.5 19.5l-7 348q-5 7 -11.5 15t-14.5 14.5t-17 10.5t-19 3l-19 20q2 11 8.5 19.5t18.5 9.5
q17 -9 31.5 -10t32.5 1q4 -3 5 -3t13 4q9 -4 27.5 -22t41.5 -42.5t48 -53.5t48 -56t40.5 -49t25.5 -33q12 -3 26.5 -21t29.5 -38.5t29 -37.5t24 -17q3 0 3.5 19.5t-0.5 48.5t-3 63.5t-4 66t-3.5 55.5t-2.5 32q-1 6 -5.5 13t-10.5 13t-12.5 8.5t-12.5 -0.5l-30 4l-16 26l9 14
l24 9q11 -5 22.5 -8t23.5 -3t24 1t23 6q9 -3 12.5 -5t7.5 -1.5t11.5 3t22.5 8.5l22 -16q1 -17 -2.5 -21t-18.5 -11z" />
    <glyph glyph-name="Ograve" unicode="&#xd2;" horiz-adv-x="280" 
d="M223 343q5 2 5 2.5t-5 5.5v-8zM228 372q-5 -4 -5 -4.5v-7.5q8 1 8.5 1t-3.5 11zM101 174q6 2 8 2t1 1.5t-4 4.5t-5 11v-19zM173 235q0 8 -0.5 38t-1 62.5t-2 58.5t-4.5 27q-1 26 2.5 52.5t3.5 52.5v18.5t-3 23t-9.5 15.5t-18.5 -3q1 -147 0.5 -292.5t4.5 -291.5l14 -8
q7 0 7.5 0.5t6.5 10.5q-1 60 -0.5 118.5t0.5 117.5zM247 144q0 -22 -6 -43q4 -7 4 -32t-3 -53t-9 -49.5t-16 -21.5q-14 0 -24 1t-18.5 0.5t-17.5 -3t-21 -9.5q-5 3 -7.5 4t-4.5 1.5t-4.5 -0.5t-8.5 -3q-18 12 -26 17t-11.5 8t-4 4.5t-2.5 6.5l-5 238q1 1 1 8.5t-1 17.5
t-1.5 19t-0.5 12q0 29 2.5 57.5t2.5 57.5q0 38 -5 75.5t-5 75.5q0 32 8 53.5t28 47.5q8 -2 15 -2h15q16 0 31 -0.5t31 2.5l4 -3l4 4q21 -4 34.5 -21t15.5 -35q5 -79 4.5 -158t0.5 -158zM96 757q-3 -8 -3 -14q2 8 6 12zM56 793v-8l5 2zM63 827q8 -8 19.5 -21.5t24.5 -29.5
q5 -7 11.5 -15.5t11.5 -10.5q2 -2 1.5 -4t1.5 -4q8 -11 16 -21t16 -19q2 -4 0 -9.5t-4 -7.5q-1 -2 -5.5 -3t-6.5 1q-5 3 -21.5 17.5t-37.5 34.5q-11 11 -25.5 21.5t-22.5 21.5q-8 7 -15 13t-13 11q0 2 4 7.5t5 10.5q5 2 9 6l5 5q10 9 15 5.5t11 -9.5z" />
    <glyph glyph-name="Oacute" unicode="&#xd3;" horiz-adv-x="280" 
d="M252 761q-6 0 -6.5 -0.5t-5.5 -6.5h6zM252 827q8 9 14 12q8 3 18 -5q0 -1 3 -2.5t3 -4.5q6 -6 11.5 -14.5t5.5 -12.5q-4 -4 -8.5 -9t-9.5 -10q-9 -8 -18.5 -17t-19.5 -18q-2 -2 -3.5 -1t-3.5 -1q-11 -9 -19.5 -17.5t-17.5 -16.5q-14 -13 -26 -22l-16 -12q-2 -2 -6.5 -0.5
t-6.5 3.5t-4 8t1 10q8 11 18.5 25t18.5 22q8 7 16.5 22t17.5 26q10 7 17 18t15 17zM223 343q5 2 5 2.5t-5 5.5v-8zM228 372q-5 -4 -5 -4.5v-7.5q8 1 8.5 1t-3.5 11zM101 174q6 2 8 2t1 1.5t-4 4.5t-5 11v-19zM173 235q0 8 -0.5 38t-1 62.5t-2 58.5t-4.5 27q-1 26 2.5 52.5
t3.5 52.5v18.5t-3 23t-9.5 15.5t-18.5 -3q1 -147 0.5 -292.5t4.5 -291.5l14 -8q7 0 7.5 0.5t6.5 10.5q-1 60 -0.5 118.5t0.5 117.5zM247 144q0 -22 -6 -43q4 -7 4 -32t-3 -53t-9 -49.5t-16 -21.5q-14 0 -24 1t-18.5 0.5t-17.5 -3t-21 -9.5q-5 3 -7.5 4t-4.5 1.5t-4.5 -0.5
t-8.5 -3q-18 12 -26 17t-11.5 8t-4 4.5t-2.5 6.5l-5 238q1 1 1 8.5t-1 17.5t-1.5 19t-0.5 12q0 29 2.5 57.5t2.5 57.5q0 38 -5 75.5t-5 75.5q0 32 8 53.5t28 47.5q8 -2 15 -2h15q16 0 31 -0.5t31 2.5l4 -3l4 4q21 -4 34.5 -21t15.5 -35q5 -79 4.5 -158t0.5 -158z" />
    <glyph glyph-name="Ocircumflex" unicode="&#xd4;" horiz-adv-x="280" 
d="M133 747l-3 -2l-2 -5q5 0 5 6v1zM42 684q8 10 13 15.5t10.5 12.5t13 17t20.5 28q10 14 18 24.5t14 18.5q6 3 11 3h29q4 0 6 -2q7 -9 16.5 -18t14.5 -16q3 -5 7 -16t7 -14q9 -8 24.5 -24.5t24.5 -30.5l-9 -1q-7 0 -15 1.5t-13 4.5q-4 2 -4.5 5.5t-7.5 9.5q-8 8 -12.5 8.5
t-11.5 5.5q-2 1 -8 8t-7 7q-7 6 -16 13t-10 7q-8 0 -14.5 -7t-15.5 -12q-4 -2 -8.5 -3.5t-9.5 -4.5q-3 -2 -7.5 -7t-8.5 -7q-2 -2 -8.5 -8t-9.5 -4q-2 -2 -1.5 -3t-1.5 -3q-3 -2 -7.5 -6.5t-6.5 -5.5q-6 1 -10.5 2.5t-5.5 1.5zM223 343q5 2 5 2.5t-5 5.5v-8zM228 372
q-5 -4 -5 -4.5v-7.5q8 1 8.5 1t-3.5 11zM101 174q6 2 8 2t1 1.5t-4 4.5t-5 11v-19zM173 235q0 8 -0.5 38t-1 62.5t-2 58.5t-4.5 27q-1 26 2.5 52.5t3.5 52.5v18.5t-3 23t-9.5 15.5t-18.5 -3q1 -147 0.5 -292.5t4.5 -291.5l14 -8q7 0 7.5 0.5t6.5 10.5q-1 60 -0.5 118.5
t0.5 117.5zM247 144q0 -22 -6 -43q4 -7 4 -32t-3 -53t-9 -49.5t-16 -21.5q-14 0 -24 1t-18.5 0.5t-17.5 -3t-21 -9.5q-5 3 -7.5 4t-4.5 1.5t-4.5 -0.5t-8.5 -3q-18 12 -26 17t-11.5 8t-4 4.5t-2.5 6.5l-5 238q1 1 1 8.5t-1 17.5t-1.5 19t-0.5 12q0 29 2.5 57.5t2.5 57.5
q0 38 -5 75.5t-5 75.5q0 32 8 53.5t28 47.5q8 -2 15 -2h15q16 0 31 -0.5t31 2.5l4 -3l4 4q21 -4 34.5 -21t15.5 -35q5 -79 4.5 -158t0.5 -158z" />
    <glyph glyph-name="Otilde" unicode="&#xd5;" horiz-adv-x="280" 
d="M223 695q3 4 5 4.5t2.5 0t-1 -0.5t-4.5 2zM55 725q3 4 11 8.5t17 8.5t18.5 6.5t16.5 2.5q11 0 21 -2.5t21 -3.5q15 -6 27.5 -14.5t29.5 -9.5q5 -1 13 -1t13 1l4 2t8 5t7.5 6.5t2.5 6.5q3 2 6 4.5t8 2.5q6 0 4.5 -7t-6.5 -15.5t-10.5 -16.5t-5.5 -11q-1 -8 -7 -13.5
t-14 -9t-16 -4.5t-12 1t-5.5 -1.5t-15.5 -3.5t-28.5 4.5t-28 9t-25 8.5t-20.5 4q-11 0 -23 -3.5t-16 -11.5q-2 -3 -3.5 -9t-8.5 -5q-6 0 -6.5 4.5t2 10.5t5.5 11.5t4 7.5q3 8 4.5 13.5t7.5 13.5zM223 343q5 2 5 2.5t-5 5.5v-8zM228 372q-5 -4 -5 -4.5v-7.5q8 1 8.5 1
t-3.5 11zM101 174q6 2 8 2t1 1.5t-4 4.5t-5 11v-19zM173 235q0 8 -0.5 38t-1 62.5t-2 58.5t-4.5 27q-1 26 2.5 52.5t3.5 52.5v18.5t-3 23t-9.5 15.5t-18.5 -3q1 -147 0.5 -292.5t4.5 -291.5l14 -8q7 0 7.5 0.5t6.5 10.5q-1 60 -0.5 118.5t0.5 117.5zM247 144q0 -22 -6 -43
q4 -7 4 -32t-3 -53t-9 -49.5t-16 -21.5q-14 0 -24 1t-18.5 0.5t-17.5 -3t-21 -9.5q-5 3 -7.5 4t-4.5 1.5t-4.5 -0.5t-8.5 -3q-18 12 -26 17t-11.5 8t-4 4.5t-2.5 6.5l-5 238q1 1 1 8.5t-1 17.5t-1.5 19t-0.5 12q0 29 2.5 57.5t2.5 57.5q0 38 -5 75.5t-5 75.5q0 32 8 53.5
t28 47.5q8 -2 15 -2h15q16 0 31 -0.5t31 2.5l4 -3l4 4q21 -4 34.5 -21t15.5 -35q5 -79 4.5 -158t0.5 -158z" />
    <glyph glyph-name="Odieresis" unicode="&#xd6;" horiz-adv-x="280" 
d="M239 716q0 -15 -11.5 -29.5t-27.5 -14.5q-9 0 -14.5 5t-9.5 11.5t-7 14t-6 13.5q2 15 14 27.5t27 12.5l21 -10zM149 716q1 -15 -10.5 -29t-25.5 -14q-16 0 -27.5 14.5t-11.5 29.5t12 28.5t28 12.5q9 -3 17 -8q7 -5 12 -13t6 -21zM223 343q5 2 5 2.5t-5 5.5v-8zM228 372
q-5 -4 -5 -4.5v-7.5q8 1 8.5 1t-3.5 11zM101 174q6 2 8 2t1 1.5t-4 4.5t-5 11v-19zM173 235q0 8 -0.5 38t-1 62.5t-2 58.5t-4.5 27q-1 26 2.5 52.5t3.5 52.5v18.5t-3 23t-9.5 15.5t-18.5 -3q1 -147 0.5 -292.5t4.5 -291.5l14 -8q7 0 7.5 0.5t6.5 10.5q-1 60 -0.5 118.5
t0.5 117.5zM247 144q0 -22 -6 -43q4 -7 4 -32t-3 -53t-9 -49.5t-16 -21.5q-14 0 -24 1t-18.5 0.5t-17.5 -3t-21 -9.5q-5 3 -7.5 4t-4.5 1.5t-4.5 -0.5t-8.5 -3q-18 12 -26 17t-11.5 8t-4 4.5t-2.5 6.5l-5 238q1 1 1 8.5t-1 17.5t-1.5 19t-0.5 12q0 29 2.5 57.5t2.5 57.5
q0 38 -5 75.5t-5 75.5q0 32 8 53.5t28 47.5q8 -2 15 -2h15q16 0 31 -0.5t31 2.5l4 -3l4 4q21 -4 34.5 -21t15.5 -35q5 -79 4.5 -158t0.5 -158z" />
    <glyph glyph-name="multiply" unicode="&#xd7;" 
 />
    <glyph glyph-name="Oslash" unicode="&#xd8;" horiz-adv-x="309" 
d="M25 -16q-8 -16 -16.5 -31t-16.5 -32l-5 -10l-8.5 -17t-9 -16t-6.5 -7q-5 -5 -13 -6t-14 -2q-5 7 -8.5 13.5t-2.5 14.5q9 11 18 23t11 27q7 5 10 16t7 19q2 4 4.5 7.5t4.5 8.5q4 9 6 12t2 3.5t-0.5 2t-0.5 7.5q3 3 5.5 6t5.5 6q0 1 2 5t4 9t4.5 9.5t3.5 6.5
q17 35 30.5 63.5t20.5 42.5l-1 45q1 1 1 8.5t-1 17.5t-1.5 19t-0.5 12q0 29 2.5 57.5t2.5 57.5q0 38 -5 75.5t-5 75.5q0 32 8 53.5t28 47.5q8 -2 15 -2h15q16 0 31 -0.5t31 2.5l4 -3l4 4q21 -4 34.5 -21t15.5 -35l3 -54q7 14 17.5 27.5t17.5 21.5q14 8 22.5 7t16.5 -18
q-5 -6 -10.5 -14.5t-11.5 -18.5q-4 -7 -4 -8t-1 -8q-2 -2 -5.5 -6t-6.5 -9q-9 -17 -17 -34t-14 -28l-2 -4q1 -43 0.5 -85t-0.5 -85l1 -119q0 -22 -6 -43q4 -7 4 -32t-3 -53t-9 -49.5t-16 -21.5q-14 0 -24 1t-18.5 0.5t-17.5 -3t-21 -9.5q-5 3 -7.5 4t-4.5 1.5t-4.5 -0.5
t-8.5 -3q-18 12 -26 17t-11.5 8t-4 4.5t-2.5 6.5l-2 93q-5 -9 -15.5 -31.5t-24.5 -49.5zM170 379q-1 18 -2 29.5t-3 12.5q-1 26 2.5 52.5t3.5 52.5v18.5t-3 23t-9.5 15.5t-18.5 -3q1 -66 0.5 -130.5t0.5 -130.5q8 14 14.5 30t14.5 30zM173 293q-8 -16 -16 -31.5t-16 -31.5
q0 -59 1 -117t3 -117l14 -8q3 0 4 -0.5t3 0.5q1 1 2.5 3t4.5 8q-1 60 -0.5 118.5t0.5 117.5v58zM223 343q5 2 5 2.5t-5 5.5v-8zM228 372q-5 -4 -5 -4.5v-7.5q8 1 8.5 1t-3.5 11z" />
    <glyph glyph-name="Ugrave" unicode="&#xd9;" horiz-adv-x="276" 
d="M101 691q-2 -4 -2 -7t-1 -7q2 3 3 6.5t3 5.5zM61 727v-8l5 2zM68 762q8 -8 20 -22t24 -30q5 -7 12 -15.5t12 -10.5q2 -2 1.5 -4t1.5 -4q8 -11 16 -21l16 -20q2 -3 0 -9t-4 -8t-6 -3t-6 1q-5 4 -22 18.5t-38 34.5q-11 11 -26 21.5t-23 21.5q-8 8 -15 14t-13 11q0 2 4 7.5
t6 10.5q5 2 9 6l5 5q9 9 14.5 5.5t11.5 -9.5zM78 -11q11 -3 10 1t-8 8zM91 24q-1 4 -1.5 4t-6.5 1h-3q-8 0 -6.5 -3.5t2.5 -10.5zM86 71q-3 -2 -4.5 2.5t-2 10.5t0 12t1.5 8l-1 35l-11 -10q2 -10 1.5 -16t-2.5 -17q5 -6 3.5 -15t6.5 -14l-4 -14q8 -5 8 -5.5t5 -0.5l3 -8
q3 5 2.5 6t-9.5 13zM88 169q-4 -3 -4.5 -3t-6.5 5l-9 -10q8 -8 9 -8.5t11 3.5v13zM91 198q-9 0 -9.5 -0.5t-5.5 -6.5l2 -9l11 13l2 -3v6zM79 215l-1 6l-7 2v-9zM83 252q-4 -5 -4 -4.5t-1 7.5l-5.5 -5.5t-7.5 -0.5q0 -12 15 -17v8.5t3 7.5v4zM83 273q0 2 -1 4.5t-1 4.5l-6 3
t-2 -6q0 -8 5 -9.5t5 3.5zM77 296q-8 5 -8.5 5t-1.5 -8q2 -3 3 -2.5t7 5.5zM79 314l-1 8l-4 2l-2 -8zM71 354l5 -4q4 3 4 3.5t-4 4.5zM87 387q-7 0 -7.5 -0.5t-3.5 -5.5l9 -9q-2 5 -1.5 5.5t5.5 4.5zM71 417l-4 -7l8 -6l2 11zM75 446q0 2 -1 5t-1 5l-7 -3l1 -11q7 -3 7 -3.5
t1 -0.5v8zM93 489q-7 2 -8 1.5t-9 -7.5q3 -1 6 -4t5.5 -3.5t4 2t1.5 11.5zM249 530q-5 -13 -6.5 -26t-1.5 -27q0 -6 1 -19.5t2 -27.5t1 -26t-1 -15q-3 -98 -3 -196q0 -50 2.5 -98.5t2.5 -97.5q0 -29 -5 -52.5t-17 -40.5t-33 -26.5t-53 -9.5q-9 0 -20.5 4.5t-23 11
t-22.5 13.5t-18 12q-21 74 -24.5 157.5t-1.5 160.5l3 4q-3 4 -4 22.5t-1 44t1 55t1.5 57t1.5 49.5t1 32q0 16 -6 32.5t-15 29.5l9 13q10 -3 14.5 -4t6.5 -1.5t3 0t3 2.5q15 -3 36 -5.5t34 8.5l16 -8q9 3 9.5 3t5.5 -3l1 -11q-16 1 -19 -12t-3 -24q0 -5 0.5 -10t-0.5 -10
q4 -15 5.5 -44t1.5 -62t-0.5 -64t-0.5 -50l-3 -3q12 -85 10 -170t-2 -170q0 -14 9.5 -26t23.5 -12q18 0 28 15t14.5 35t5.5 41.5t1 33.5q0 22 -1.5 43t-2.5 43l-2.5 2.5t1.5 4.5q0 28 -1.5 55t-1.5 55q0 48 4 94.5t4 94.5q0 15 -0.5 34t-3.5 38t-10 35.5t-20 25.5
q-5 -2 -5.5 1.5t-0.5 8.5q0 8 10 10t16 3l7 -5q11 4 23.5 4t24.5 2q10 -5 10.5 -5.5t4.5 -7.5z" />
    <glyph glyph-name="Uacute" unicode="&#xda;" horiz-adv-x="276" 
d="M78 -11q11 -3 10 1t-8 8zM91 24q-1 4 -1.5 4t-6.5 1h-3q-8 0 -6.5 -3.5t2.5 -10.5zM86 71q-3 -2 -4.5 2.5t-2 10.5t0 12t1.5 8l-1 35l-11 -10q2 -10 1.5 -16t-2.5 -17q5 -6 3.5 -15t6.5 -14l-4 -14q8 -5 8 -5.5t5 -0.5l3 -8q3 5 2.5 6t-9.5 13zM88 169q-4 -3 -4.5 -3
t-6.5 5l-9 -10q8 -8 9 -8.5t11 3.5v13zM91 198q-9 0 -9.5 -0.5t-5.5 -6.5l2 -9l11 13l2 -3v6zM79 215l-1 6l-7 2v-9zM83 252q-4 -5 -4 -4.5t-1 7.5l-5.5 -5.5t-7.5 -0.5q0 -12 15 -17v8.5t3 7.5v4zM83 273q0 2 -1 4.5t-1 4.5l-6 3t-2 -6q0 -8 5 -9.5t5 3.5zM77 296
q-8 5 -8.5 5t-1.5 -8q2 -3 3 -2.5t7 5.5zM79 314l-1 8l-4 2l-2 -8zM71 354l5 -4q4 3 4 3.5t-4 4.5zM87 387q-7 0 -7.5 -0.5t-3.5 -5.5l9 -9q-2 5 -1.5 5.5t5.5 4.5zM71 417l-4 -7l8 -6l2 11zM75 446q0 2 -1 5t-1 5l-7 -3l1 -11q7 -3 7 -3.5t1 -0.5v8zM93 489q-7 2 -8 1.5
t-9 -7.5q3 -1 6 -4t5.5 -3.5t4 2t1.5 11.5zM249 530q-5 -13 -6.5 -26t-1.5 -27q0 -6 1 -19.5t2 -27.5t1 -26t-1 -15q-3 -98 -3 -196q0 -50 2.5 -98.5t2.5 -97.5q0 -29 -5 -52.5t-17 -40.5t-33 -26.5t-53 -9.5q-9 0 -20.5 4.5t-23 11t-22.5 13.5t-18 12q-21 74 -24.5 157.5
t-1.5 160.5l3 4q-3 4 -4 22.5t-1 44t1 55t1.5 57t1.5 49.5t1 32q0 16 -6 32.5t-15 29.5l9 13q10 -3 14.5 -4t6.5 -1.5t3 0t3 2.5q15 -3 36 -5.5t34 8.5l16 -8q9 3 9.5 3t5.5 -3l1 -11q-16 1 -19 -12t-3 -24q0 -5 0.5 -10t-0.5 -10q4 -15 5.5 -44t1.5 -62t-0.5 -64t-0.5 -50
l-3 -3q12 -85 10 -170t-2 -170q0 -14 9.5 -26t23.5 -12q18 0 28 15t14.5 35t5.5 41.5t1 33.5q0 22 -1.5 43t-2.5 43l-2.5 2.5t1.5 4.5q0 28 -1.5 55t-1.5 55q0 48 4 94.5t4 94.5q0 15 -0.5 34t-3.5 38t-10 35.5t-20 25.5q-5 -2 -5.5 1.5t-0.5 8.5q0 8 10 10t16 3l7 -5
q11 4 23.5 4t24.5 2q10 -5 10.5 -5.5t4.5 -7.5zM255 700q-5 0 -5.5 -0.5l-5.5 -5.5h6zM255 763q3 2 6.5 5.5t7.5 4.5q4 2 7.5 1.5t8.5 -5.5q1 -1 3.5 -2.5t3.5 -4.5q5 -5 10 -13.5t6 -11.5q-5 -4 -9 -9t-9 -10q-8 -8 -17 -16t-19 -16q-2 -2 -3 -1.5t-3 -0.5
q-11 -9 -18.5 -17t-16.5 -16q-14 -11 -25 -19.5t-14 -11.5q-3 -2 -7 -1t-6 3t-4 8t1 9q8 11 17.5 24.5t17.5 20.5q7 6 15.5 20.5t16.5 24.5q9 7 16.5 17t13.5 17z" />
    <glyph glyph-name="Ucircumflex" unicode="&#xdb;" horiz-adv-x="276" 
d="M78 -11q11 -3 10 1t-8 8zM91 24q-1 4 -1.5 4t-6.5 1h-3q-8 0 -6.5 -3.5t2.5 -10.5zM86 71q-3 -2 -4.5 2.5t-2 10.5t0 12t1.5 8l-1 35l-11 -10q2 -10 1.5 -16t-2.5 -17q5 -6 3.5 -15t6.5 -14l-4 -14q8 -5 8 -5.5t5 -0.5l3 -8q3 5 2.5 6t-9.5 13zM88 169q-4 -3 -4.5 -3
t-6.5 5l-9 -10q8 -8 9 -8.5t11 3.5v13zM91 198q-9 0 -9.5 -0.5t-5.5 -6.5l2 -9l11 13l2 -3v6zM79 215l-1 6l-7 2v-9zM83 252q-4 -5 -4 -4.5t-1 7.5l-5.5 -5.5t-7.5 -0.5q0 -12 15 -17v8.5t3 7.5v4zM83 273q0 2 -1 4.5t-1 4.5l-6 3t-2 -6q0 -8 5 -9.5t5 3.5zM77 296
q-8 5 -8.5 5t-1.5 -8q2 -3 3 -2.5t7 5.5zM79 314l-1 8l-4 2l-2 -8zM71 354l5 -4q4 3 4 3.5t-4 4.5zM87 387q-7 0 -7.5 -0.5t-3.5 -5.5l9 -9q-2 5 -1.5 5.5t5.5 4.5zM71 417l-4 -7l8 -6l2 11zM75 446q0 2 -1 5t-1 5l-7 -3l1 -11q7 -3 7 -3.5t1 -0.5v8zM93 489q-7 2 -8 1.5
t-9 -7.5q3 -1 6 -4t5.5 -3.5t4 2t1.5 11.5zM249 530q-5 -13 -6.5 -26t-1.5 -27q0 -6 1 -19.5t2 -27.5t1 -26t-1 -15q-3 -98 -3 -196q0 -50 2.5 -98.5t2.5 -97.5q0 -29 -5 -52.5t-17 -40.5t-33 -26.5t-53 -9.5q-9 0 -20.5 4.5t-23 11t-22.5 13.5t-18 12q-21 74 -24.5 157.5
t-1.5 160.5l3 4q-3 4 -4 22.5t-1 44t1 55t1.5 57t1.5 49.5t1 32q0 16 -6 32.5t-15 29.5l9 13q10 -3 14.5 -4t6.5 -1.5t3 0t3 2.5q15 -3 36 -5.5t34 8.5l16 -8q9 3 9.5 3t5.5 -3l1 -11q-16 1 -19 -12t-3 -24q0 -5 0.5 -10t-0.5 -10q4 -15 5.5 -44t1.5 -62t-0.5 -64t-0.5 -50
l-3 -3q12 -85 10 -170t-2 -170q0 -14 9.5 -26t23.5 -12q18 0 28 15t14.5 35t5.5 41.5t1 33.5q0 22 -1.5 43t-2.5 43l-2.5 2.5t1.5 4.5q0 28 -1.5 55t-1.5 55q0 48 4 94.5t4 94.5q0 15 -0.5 34t-3.5 38t-10 35.5t-20 25.5q-5 -2 -5.5 1.5t-0.5 8.5q0 8 10 10t16 3l7 -5
q11 4 23.5 4t24.5 2q10 -5 10.5 -5.5t4.5 -7.5zM121 695q-3 -2 -3 -2.5t-2 -5.5q5 0 5 7v1zM29 630q8 10 13 16t10.5 13t13 17.5t20.5 28.5q11 15 19 26t14 19q3 1 5 2t6 1q2 0 11.5 -0.5t17.5 -0.5q5 0 6 -1q8 -10 17 -19t14 -17q3 -4 7.5 -15.5t7.5 -14.5q9 -9 24.5 -26
t25.5 -31l-10 -1q-7 0 -15 1.5t-13 4.5q-4 3 -4.5 6t-7.5 9q-9 8 -13.5 9t-11.5 6q-1 1 -7 8t-7 8q-8 6 -17 13t-11 7q-8 0 -14 -7.5t-15 -12.5q-5 -2 -9.5 -3.5t-8.5 -3.5t-8.5 -7.5t-8.5 -8.5q-2 -2 -8.5 -7.5t-9.5 -4.5q-2 -2 -1.5 -3t-1.5 -3q-3 -1 -7.5 -6t-7.5 -6
q-6 1 -10 2.5t-5 1.5z" />
    <glyph glyph-name="Udieresis" unicode="&#xdc;" horiz-adv-x="276" 
d="M244 654q0 -15 -12 -29.5t-28 -14.5q-9 0 -14.5 5t-9.5 12t-6.5 14.5t-5.5 13.5q2 15 13.5 27.5t26.5 12.5l21 -10zM154 654q1 -14 -11 -28.5t-26 -14.5q-16 0 -27.5 15t-11.5 30q0 14 12.5 27.5t27.5 12.5q10 -3 18 -8q7 -5 12 -12.5t6 -21.5zM78 -11q11 -3 10 1t-8 8z
M91 24q-1 4 -1.5 4t-6.5 1h-3q-8 0 -6.5 -3.5t2.5 -10.5zM86 71q-3 -2 -4.5 2.5t-2 10.5t0 12t1.5 8l-1 35l-11 -10q2 -10 1.5 -16t-2.5 -17q5 -6 3.5 -15t6.5 -14l-4 -14q8 -5 8 -5.5t5 -0.5l3 -8q3 5 2.5 6t-9.5 13zM88 169q-4 -3 -4.5 -3t-6.5 5l-9 -10q8 -8 9 -8.5
t11 3.5v13zM91 198q-9 0 -9.5 -0.5t-5.5 -6.5l2 -9l11 13l2 -3v6zM79 215l-1 6l-7 2v-9zM83 252q-4 -5 -4 -4.5t-1 7.5l-5.5 -5.5t-7.5 -0.5q0 -12 15 -17v8.5t3 7.5v4zM83 273q0 2 -1 4.5t-1 4.5l-6 3t-2 -6q0 -8 5 -9.5t5 3.5zM77 296q-8 5 -8.5 5t-1.5 -8q2 -3 3 -2.5
t7 5.5zM79 314l-1 8l-4 2l-2 -8zM71 354l5 -4q4 3 4 3.5t-4 4.5zM87 387q-7 0 -7.5 -0.5t-3.5 -5.5l9 -9q-2 5 -1.5 5.5t5.5 4.5zM71 417l-4 -7l8 -6l2 11zM75 446q0 2 -1 5t-1 5l-7 -3l1 -11q7 -3 7 -3.5t1 -0.5v8zM93 489q-7 2 -8 1.5t-9 -7.5q3 -1 6 -4t5.5 -3.5t4 2
t1.5 11.5zM249 530q-5 -13 -6.5 -26t-1.5 -27q0 -6 1 -19.5t2 -27.5t1 -26t-1 -15q-3 -98 -3 -196q0 -50 2.5 -98.5t2.5 -97.5q0 -29 -5 -52.5t-17 -40.5t-33 -26.5t-53 -9.5q-9 0 -20.5 4.5t-23 11t-22.5 13.5t-18 12q-21 74 -24.5 157.5t-1.5 160.5l3 4q-3 4 -4 22.5
t-1 44t1 55t1.5 57t1.5 49.5t1 32q0 16 -6 32.5t-15 29.5l9 13q10 -3 14.5 -4t6.5 -1.5t3 0t3 2.5q15 -3 36 -5.5t34 8.5l16 -8q9 3 9.5 3t5.5 -3l1 -11q-16 1 -19 -12t-3 -24q0 -5 0.5 -10t-0.5 -10q4 -15 5.5 -44t1.5 -62t-0.5 -64t-0.5 -50l-3 -3q12 -85 10 -170t-2 -170
q0 -14 9.5 -26t23.5 -12q18 0 28 15t14.5 35t5.5 41.5t1 33.5q0 22 -1.5 43t-2.5 43l-2.5 2.5t1.5 4.5q0 28 -1.5 55t-1.5 55q0 48 4 94.5t4 94.5q0 15 -0.5 34t-3.5 38t-10 35.5t-20 25.5q-5 -2 -5.5 1.5t-0.5 8.5q0 8 10 10t16 3l7 -5q11 4 23.5 4t24.5 2q10 -5 10.5 -5.5
t4.5 -7.5z" />
    <glyph glyph-name="Yacute" unicode="&#xdd;" 
 />
    <glyph glyph-name="Thorn" unicode="&#xde;" 
 />
    <glyph glyph-name="germandbls" unicode="&#xdf;" horiz-adv-x="381" 
d="M358 86q8 9 8 10t-7 6zM108 462v1h-8v-10h5.5t2.5 7v2zM314 124q-2 7 -2 13.5t-6 11.5q-3 14 -11 38.5t-18.5 50.5t-23 49t-23.5 34q-2 11 -12 18.5t-16 17.5q-1 7 3.5 13.5t10.5 12.5t12.5 11t10.5 10q9 11 15.5 24t8.5 26q2 14 -1 26.5t-1 26.5q-4 5 -8 12.5
t-10.5 14.5t-16 11t-22.5 3q-21 0 -34 -11t-20.5 -27.5t-11 -36t-6.5 -35.5q-2 -5 -7 -9.5t-3 -9.5l6 -26q-2 -8 -1.5 -19.5t1.5 -23t0.5 -20t-5.5 -11.5v-28.5t0.5 -50.5t1.5 -61.5t3 -59.5t6.5 -45t11.5 -18q7 -8 15 -7t16 8q-2 8 6.5 22.5t21 22t27.5 1t27 -39.5
q5 -4 11 -5l12 -2q10 4 15 11.5t8 17.5t4.5 20t4.5 19zM369 146q-3 -8 1 -22t7 -21q-3 -10 -4.5 -21.5t-4.5 -23t-8.5 -20t-15.5 -12.5q-5 -8 -5 -14t-10 -12q-5 -3 -18.5 -4t-24.5 4q-13 0 -22.5 -3.5t-22.5 -2.5q-2 2 -5 8.5t-6 8.5q-5 2 -11 -1t-11 -1q-6 3 -9.5 9
t-8.5 10q-10 0 -18 -11.5t-14 -18.5q-4 -1 -13.5 4.5t-13.5 5.5q-7 -1 -10.5 -7.5t-11.5 -7.5q-6 0 -16.5 5.5t-16.5 4.5q-9 0 -14.5 -6t-14.5 -4q-8 -3 -14 2t-11 7q-8 -4 -12.5 7.5t-4.5 20.5q0 6 9 10.5t19.5 10.5t19 14.5t8.5 21.5q0 14 -0.5 23.5t-0.5 21.5
q-1 29 -4 59t-3 56q7 17 8.5 35.5t0.5 37t-3 36.5t-3 36q0 7 1 23.5t3.5 35.5t6 36t7.5 25q6 13 11.5 25.5t13 22.5t18 17.5t27.5 12.5q2 -5 7 -5.5t11 1t12 3.5t10 3q8 -2 16 1.5t13 5.5q3 0 9.5 -4t11.5 -6q5 -1 10.5 2.5t10.5 1.5q3 -1 11 -7.5t17 -2.5q5 2 11 -5t10 -9
q14 -8 20.5 -16t9.5 -17t4.5 -18t5.5 -19q0 -20 -10 -40.5t-21 -34.5t-20.5 -21t-7.5 -14q-5 -14 -4.5 -21.5t3.5 -12.5t6.5 -9.5t4.5 -13.5q3 -3 6.5 -9t7.5 -13.5t6.5 -14t2.5 -10.5l8 -17t17.5 -40t17.5 -46t8 -36z" />
    <glyph glyph-name="agrave" unicode="&#xe0;" horiz-adv-x="273" 
d="M136 28q-17 3 -27 9.5t-15 16.5t-6.5 23t-1.5 28q0 14 3.5 24t9 19t12.5 18t13 20q-27 -17 -45 -42.5t-18 -58.5q0 -12 7.5 -26t18.5 -23.5t24.5 -13t24.5 5.5zM165 192q-4 4 -7 4q-8 0 -17.5 -13t-17.5 -29.5t-13.5 -32.5t-5.5 -23q0 -13 3 -20t7.5 -11.5t9 -8.5
t6.5 -11q9 0 14.5 1.5t8.5 5.5t5.5 9.5t6.5 11.5q-2 0 -2 16.5v37t1 39.5t1 24zM223 25q-2 11 -9 21t-7 21l-4 320q0 11 -13.5 23.5t-21.5 20.5l-17 -2q5 -5 11.5 -9t12.5 -9q5 -28 9 -55t4 -55q0 -15 -1 -38.5t-6 -37.5l7 -22q-6 -20 -3 -44.5t3 -45.5q0 -13 -1.5 -28
t-9.5 -26q1 -7 11.5 -19t15.5 -16q9 4 19 1zM109 412q-4 0 -11 -5t-13.5 -11.5t-11.5 -13.5t-5 -10q0 -6 5 -7.5t10 -3.5q4 1 10 9.5t11 17.5t7 16.5t-2 7.5zM261 42q1 -18 -16 -30.5t-33 -12.5q-15 0 -26 9t-20 20q-9 -10 -22 -19.5t-27 -9.5q-34 0 -58 25.5t-24 59.5
q0 19 10 42t26.5 44t36 36t39.5 19l15 15q-1 32 0.5 62.5t1.5 62.5q0 13 -6 23.5t-15 19.5q-15 0 -20 -10t-8 -23.5t-8.5 -27.5t-22.5 -23q-24 9 -33 29t-5 44q7 6 23 16t34 19.5t34.5 16.5t25.5 7q33 0 46 -25t16 -59t1.5 -70t2.5 -57q-3 -7 -4 -18.5t-1 -24.5v-25v-19
v-22.5t0.5 -30t2.5 -29t6 -19.5q8 -3 15 -6.5t13 -8.5zM108 533q0 3 -11 13t-24 22t-25 23t-14 15q1 8 0.5 12.5t-0.5 7.5t1 6t5 9q6 9 20.5 10.5t25.5 -3.5q7 -8 11 -13.5t6.5 -9.5t5.5 -8t8 -10l44 -51q8 -11 13 -17.5t7 -10.5q3 -4 2 -7l-2 -17q-1 -5 -2.5 -4t-4.5 -3
l-23 1q-6 7 -12 10t-11 6t-10 7t-10 12zM107 589q-4 4 -6 7t-3.5 6t-4.5 7t-9 11q-9 2 -13.5 6t-9.5 -4q-6 -9 1.5 -12.5t14.5 -11.5q1 -3 8.5 -10t16 -15t15.5 -15t7 -9q8 -13 16.5 -16.5t19.5 -9.5q-3 5 -6 9q-2 4 -4.5 7.5t-2.5 5.5z" />
    <glyph glyph-name="aacute" unicode="&#xe1;" horiz-adv-x="273" 
d="M136 28q-17 3 -27 9.5t-15 16.5t-6.5 23t-1.5 28q0 14 3.5 24t9 19t12.5 18t13 20q-27 -17 -45 -42.5t-18 -58.5q0 -12 7.5 -26t18.5 -23.5t24.5 -13t24.5 5.5zM165 192q-4 4 -7 4q-8 0 -17.5 -13t-17.5 -29.5t-13.5 -32.5t-5.5 -23q0 -13 3 -20t7.5 -11.5t9 -8.5
t6.5 -11q9 0 14.5 1.5t8.5 5.5t5.5 9.5t6.5 11.5q-2 0 -2 16.5v37t1 39.5t1 24zM223 25q-2 11 -9 21t-7 21l-4 320q0 11 -13.5 23.5t-21.5 20.5l-17 -2q5 -5 11.5 -9t12.5 -9q5 -28 9 -55t4 -55q0 -15 -1 -38.5t-6 -37.5l7 -22q-6 -20 -3 -44.5t3 -45.5q0 -13 -1.5 -28
t-9.5 -26q1 -7 11.5 -19t15.5 -16q9 4 19 1zM109 412q-4 0 -11 -5t-13.5 -11.5t-11.5 -13.5t-5 -10q0 -6 5 -7.5t10 -3.5q4 1 10 9.5t11 17.5t7 16.5t-2 7.5zM261 42q1 -18 -16 -30.5t-33 -12.5q-15 0 -26 9t-20 20q-9 -10 -22 -19.5t-27 -9.5q-34 0 -58 25.5t-24 59.5
q0 19 10 42t26.5 44t36 36t39.5 19l15 15q-1 32 0.5 62.5t1.5 62.5q0 13 -6 23.5t-15 19.5q-15 0 -20 -10t-8 -23.5t-8.5 -27.5t-22.5 -23q-24 9 -33 29t-5 44q7 6 23 16t34 19.5t34.5 16.5t25.5 7q33 0 46 -25t16 -59t1.5 -70t2.5 -57q-3 -7 -4 -18.5t-1 -24.5v-25v-19
v-22.5t0.5 -30t2.5 -29t6 -19.5q8 -3 15 -6.5t13 -8.5zM168 545q-1 -2 -3 -5.5t-4 -7.5q-3 -4 -6 -9q11 6 21.5 8.5t18.5 15.5q0 2 6 9.5t13.5 16t13.5 16t8 10.5q7 8 17.5 13t6.5 10q-5 5 -8.5 4t-11.5 -3q-12 -14 -16.5 -21t-13.5 -16zM277 645q4 -6 5 -8.5t1 -4.5v-5
t3 -10l-5 -10q-4 -2 -7.5 -4t-7.5 -4q-3 -2 -12 -10.5t-19 -19t-18.5 -19.5t-8.5 -12q-10 -15 -22 -20t-25 -18l-18 1q-2 3 -3.5 2t-3.5 4l-4 14q-2 4 2 9.5t21 26.5l25 26q14 10 27 29t22 35q11 5 27 5.5t21 -7.5z" />
    <glyph glyph-name="acircumflex" unicode="&#xe2;" horiz-adv-x="273" 
d="M136 28q-17 3 -27 9.5t-15 16.5t-6.5 23t-1.5 28q0 14 3.5 24t9 19t12.5 18t13 20q-27 -17 -45 -42.5t-18 -58.5q0 -12 7.5 -26t18.5 -23.5t24.5 -13t24.5 5.5zM165 192q-4 4 -7 4q-8 0 -17.5 -13t-17.5 -29.5t-13.5 -32.5t-5.5 -23q0 -13 3 -20t7.5 -11.5t9 -8.5
t6.5 -11q9 0 14.5 1.5t8.5 5.5t5.5 9.5t6.5 11.5q-2 0 -2 16.5v37t1 39.5t1 24zM223 25q-2 11 -9 21t-7 21l-4 320q0 11 -13.5 23.5t-21.5 20.5l-17 -2q5 -5 11.5 -9t12.5 -9q5 -28 9 -55t4 -55q0 -15 -1 -38.5t-6 -37.5l7 -22q-6 -20 -3 -44.5t3 -45.5q0 -13 -1.5 -28
t-9.5 -26q1 -7 11.5 -19t15.5 -16q9 4 19 1zM109 412q-4 0 -11 -5t-13.5 -11.5t-11.5 -13.5t-5 -10q0 -6 5 -7.5t10 -3.5q4 1 10 9.5t11 17.5t7 16.5t-2 7.5zM261 42q1 -18 -16 -30.5t-33 -12.5q-15 0 -26 9t-20 20q-9 -10 -22 -19.5t-27 -9.5q-34 0 -58 25.5t-24 59.5
q0 19 10 42t26.5 44t36 36t39.5 19l15 15q-1 32 0.5 62.5t1.5 62.5q0 13 -6 23.5t-15 19.5q-15 0 -20 -10t-8 -23.5t-8.5 -27.5t-22.5 -23q-24 9 -33 29t-5 44q7 6 23 16t34 19.5t34.5 16.5t25.5 7q33 0 46 -25t16 -59t1.5 -70t2.5 -57q-3 -7 -4 -18.5t-1 -24.5v-25v-19
v-22.5t0.5 -30t2.5 -29t6 -19.5q8 -3 15 -6.5t13 -8.5zM86 529q-10 -5 -10 -6t-1 -6q2 2 5.5 6t5.5 6zM114 568q-7 -8 -10.5 -11.5t-4.5 -5.5t-1.5 -3.5t-1.5 -5.5q20 12 20 15.5t-2 10.5zM248 505l-2.5 3t-4 4.5t-2 -0.5t4.5 -11zM178 584q-8 8 -9 8t-6 -6q7 0 15 -2z
M225 537q-5 5 -10.5 8.5t-7.5 11.5l-16 16l-6 -1q4 -11 15 -21.5t19 -18.5q8 -3 8.5 -3t-2.5 8zM250 503q-3 0 -7 -3t-7 -3q-17 21 -34 35t-32 37l-27 2q-10 -11 -23 -27t-20 -24q-11 -8 -14 -14t-11 -11l-22 22q6 20 15.5 32t20.5 21t24 17t27 20l30 1q9 -8 13 -12
l7.5 -7.5t8.5 -7.5t14 -11q27 -21 38.5 -39t-1.5 -28z" />
    <glyph glyph-name="atilde" unicode="&#xe3;" horiz-adv-x="273" 
d="M136 28q-17 3 -27 9.5t-15 16.5t-6.5 23t-1.5 28q0 14 3.5 24t9 19t12.5 18t13 20q-27 -17 -45 -42.5t-18 -58.5q0 -12 7.5 -26t18.5 -23.5t24.5 -13t24.5 5.5zM165 192q-4 4 -7 4q-8 0 -17.5 -13t-17.5 -29.5t-13.5 -32.5t-5.5 -23q0 -13 3 -20t7.5 -11.5t9 -8.5
t6.5 -11q9 0 14.5 1.5t8.5 5.5t5.5 9.5t6.5 11.5q-2 0 -2 16.5v37t1 39.5t1 24zM223 25q-2 11 -9 21t-7 21l-4 320q0 11 -13.5 23.5t-21.5 20.5l-17 -2q5 -5 11.5 -9t12.5 -9q5 -28 9 -55t4 -55q0 -15 -1 -38.5t-6 -37.5l7 -22q-6 -20 -3 -44.5t3 -45.5q0 -13 -1.5 -28
t-9.5 -26q1 -7 11.5 -19t15.5 -16q9 4 19 1zM109 412q-4 0 -11 -5t-13.5 -11.5t-11.5 -13.5t-5 -10q0 -6 5 -7.5t10 -3.5q4 1 10 9.5t11 17.5t7 16.5t-2 7.5zM261 42q1 -18 -16 -30.5t-33 -12.5q-15 0 -26 9t-20 20q-9 -10 -22 -19.5t-27 -9.5q-34 0 -58 25.5t-24 59.5
q0 19 10 42t26.5 44t36 36t39.5 19l15 15q-1 32 0.5 62.5t1.5 62.5q0 13 -6 23.5t-15 19.5q-15 0 -20 -10t-8 -23.5t-8.5 -27.5t-22.5 -23q-24 9 -33 29t-5 44q7 6 23 16t34 19.5t34.5 16.5t25.5 7q33 0 46 -25t16 -59t1.5 -70t2.5 -57q-3 -7 -4 -18.5t-1 -24.5v-25v-19
v-22.5t0.5 -30t2.5 -29t6 -19.5q8 -3 15 -6.5t13 -8.5zM135 546q-4 8 -14 8t-19 -4.5t-16 -9.5l-9 -25q10 8 16 12.5t11 7.5t12 5.5t19 5.5zM232 536q-3 0 -6.5 1t-6.5 1q-7 0 -14.5 -7.5t-12.5 -10.5h2q10 0 21.5 4t16.5 12zM62 519v1v-1zM249 556q0 -15 -1 -23.5t-5 -14.5
t-11.5 -10t-19.5 -10h-2q-7 0 -13.5 3t-13.5 3h-2q0 -1 3 -1h-1q-13 4 -25.5 12t-24.5 8h2h-1h-16t-8 -1.5t-6.5 -5l-10.5 -10.5l-29 -11q0 2 -0.5 6t-2.5 6l1 12v1q0 8 6 19.5t13 16.5q11 8 19 11.5t22 3.5q1 0 2 -0.5t-2 0.5q7 -3 17 -7t21.5 -7.5t22 -6t17.5 -2.5l4 1
q6 3 13 6t14 3q5 2 9 2h9v-4z" />
    <glyph glyph-name="adieresis" unicode="&#xe4;" horiz-adv-x="273" 
d="M136 28q-17 3 -27 9.5t-15 16.5t-6.5 23t-1.5 28q0 14 3.5 24t9 19t12.5 18t13 20q-27 -17 -45 -42.5t-18 -58.5q0 -12 7.5 -26t18.5 -23.5t24.5 -13t24.5 5.5zM165 192q-4 4 -7 4q-8 0 -17.5 -13t-17.5 -29.5t-13.5 -32.5t-5.5 -23q0 -13 3 -20t7.5 -11.5t9 -8.5
t6.5 -11q9 0 14.5 1.5t8.5 5.5t5.5 9.5t6.5 11.5q-2 0 -2 16.5v37t1 39.5t1 24zM223 25q-2 11 -9 21t-7 21l-4 320q0 11 -13.5 23.5t-21.5 20.5l-17 -2q5 -5 11.5 -9t12.5 -9q5 -28 9 -55t4 -55q0 -15 -1 -38.5t-6 -37.5l7 -22q-6 -20 -3 -44.5t3 -45.5q0 -13 -1.5 -28
t-9.5 -26q1 -7 11.5 -19t15.5 -16q9 4 19 1zM109 412q-4 0 -11 -5t-13.5 -11.5t-11.5 -13.5t-5 -10q0 -6 5 -7.5t10 -3.5q4 1 10 9.5t11 17.5t7 16.5t-2 7.5zM261 42q1 -18 -16 -30.5t-33 -12.5q-15 0 -26 9t-20 20q-9 -10 -22 -19.5t-27 -9.5q-34 0 -58 25.5t-24 59.5
q0 19 10 42t26.5 44t36 36t39.5 19l15 15q-1 32 0.5 62.5t1.5 62.5q0 13 -6 23.5t-15 19.5q-15 0 -20 -10t-8 -23.5t-8.5 -27.5t-22.5 -23q-24 9 -33 29t-5 44q7 6 23 16t34 19.5t34.5 16.5t25.5 7q33 0 46 -25t16 -59t1.5 -70t2.5 -57q-3 -7 -4 -18.5t-1 -24.5v-25v-19
v-22.5t0.5 -30t2.5 -29t6 -19.5q8 -3 15 -6.5t13 -8.5zM128 532q0 -1 -1 1.5t-2 5.5q-2 4 -3 8q-8 1 -13 0t-8.5 -4t-2.5 -9q0 -2 0.5 -6t2.5 -7.5t5.5 -5.5t10.5 0q13 4 12 11.5t-1 5.5zM201 546q-14 4 -15.5 0.5t-3.5 -16.5q5 -11 5 -13t10 -3q-1 0 5 1t6 15zM146 532
q1 -13 -9 -25t-23 -12q-14 0 -24.5 12.5t-10.5 26.5q0 13 11 25t25 11q8 -3 15 -7q6 -5 10.5 -12t5.5 -19zM227 532q0 -13 -11 -26t-25 -13q-1 0 -4.5 1.5t-4.5 2.5q-14 7 -15 15.5t-7 19.5q2 13 11.5 25t22.5 12l19 -9z" />
    <glyph glyph-name="aring" unicode="&#xe5;" horiz-adv-x="273" 
d="M136 28q-17 3 -27 9.5t-15 16.5t-6.5 23t-1.5 28q0 14 3.5 24t9 19t12.5 18t13 20q-27 -17 -45 -42.5t-18 -58.5q0 -12 7.5 -26t18.5 -23.5t24.5 -13t24.5 5.5zM165 192q-4 4 -7 4q-8 0 -17.5 -13t-17.5 -29.5t-13.5 -32.5t-5.5 -23q0 -13 3 -20t7.5 -11.5t9 -8.5
t6.5 -11q9 0 14.5 1.5t8.5 5.5t5.5 9.5t6.5 11.5q-2 0 -2 16.5v37t1 39.5t1 24zM223 25q-2 11 -9 21t-7 21l-4 320q0 11 -13.5 23.5t-21.5 20.5l-17 -2q5 -5 11.5 -9t12.5 -9q5 -28 9 -55t4 -55q0 -15 -1 -38.5t-6 -37.5l7 -22q-6 -20 -3 -44.5t3 -45.5q0 -13 -1.5 -28
t-9.5 -26q1 -7 11.5 -19t15.5 -16q9 4 19 1zM109 412q-4 0 -11 -5t-13.5 -11.5t-11.5 -13.5t-5 -10q0 -6 5 -7.5t10 -3.5q4 1 10 9.5t11 17.5t7 16.5t-2 7.5zM261 42q1 -18 -16 -30.5t-33 -12.5q-15 0 -26 9t-20 20q-9 -10 -22 -19.5t-27 -9.5q-34 0 -58 25.5t-24 59.5
q0 19 10 42t26.5 44t36 36t39.5 19l15 15q-1 32 0.5 62.5t1.5 62.5q0 13 -6 23.5t-15 19.5q-15 0 -20 -10t-8 -23.5t-8.5 -27.5t-22.5 -23q-24 9 -33 29t-5 44q7 6 23 16t34 19.5t34.5 16.5t25.5 7q33 0 46 -25t16 -59t1.5 -70t2.5 -57q-3 -7 -4 -18.5t-1 -24.5v-25v-19
v-22.5t0.5 -30t2.5 -29t6 -19.5q8 -3 15 -6.5t13 -8.5zM188 550q-7 11 -10 16.5t-5 7.5t-4.5 3t-8.5 4q-13 0 -24 -8t-13 -22q3 -12 5 -18.5t17 -14.5q7 -3 14.5 -1.5t14 6.5t10.5 12t4 15zM211 550q0 -10 -5 -20.5t-13 -19t-18 -14t-20 -5.5q-22 0 -38 18t-16 39
q0 20 13 38.5t35 17.5l13 3q9 -6 18 -10.5t15.5 -10t11 -14t4.5 -22.5z" />
    <glyph glyph-name="ae" unicode="&#xe6;" horiz-adv-x="580" 
d="M512 227q-2 -4 -1.5 -5.5t0.5 -4.5q1 3 3 3t4 2zM97 272q-5 3 -5 -2t-1 -9q2 3 3 6t3 5zM88 68l6 4l-6 4v-8zM94 105l-5 -5q1 -7 1 -7.5t8 0.5zM296 121q-1 -3 -2 -4.5t-1 -4.5q1 3 4.5 4.5t6.5 3.5zM302 162q-2 -2 -3.5 -4.5t-3.5 -4.5h9zM301 209l3 -5l5 8l1 -13
q7 5 3.5 9t-9.5 7zM300 266v-8l5 2zM305 295q-4 -4 -4 -4.5v-7.5h8zM243 175q-9 9 -14 11.5t-9.5 1.5t-10 -2.5t-15.5 0.5q-15 -8 -29.5 -16t-31.5 -13q-7 -5 -11.5 -12.5t-10.5 -13.5q-5 -14 -0.5 -28.5t1.5 -21.5q4 -6 9.5 -11t10.5 -10q12 4 24.5 5.5t24.5 1.5l8 12
q12 3 14.5 6.5t10.5 11.5q13 13 21 19.5t11.5 12.5t2 15.5t-5.5 30.5zM496 238q-1 18 -5 35.5t-11 34.5l-10 12q-31 8 -51.5 10.5t-35.5 -3.5t-27 -22t-27 -46q2 -6 1 -10t-1.5 -8t1 -8t8.5 -10q9 -3 24.5 -3t31.5 1t29 1t17 -3q12 6 26 8t28 3zM534 181q-9 -1 -18 -0.5
t-17 4.5q-11 -6 -21 -4.5t-22 -0.5q-10 3 -20.5 4t-21.5 -3q-11 4 -21 5t-21 4q-9 -2 -18 -5t-17 -8q-2 -7 -5.5 -13.5t-5.5 -14.5q1 -3 2.5 -11t4 -16t6 -14t7.5 -6q2 -9 10.5 -12.5t12.5 -11.5q11 1 20.5 -4t19.5 -9q8 5 20 5t20 -3q8 14 20 23l24 18l4 12q6 4 8.5 8.5
t4.5 8.5t6 8t12 7h10.5t5.5 -0.5t4.5 -2.5l7.5 -6q3 -17 -11 -39.5t-34 -41.5t-40.5 -29.5t-32.5 -4.5l-10 -2t-10 -4q-18 3 -36.5 2.5t-37.5 1.5q-14 8 -29 14t-29 16q0 -2 -3.5 1t-7.5 7.5t-8 9.5t-5 7q-8 1 -9 1t-15 -3q-3 -9 -6 -13.5t-9 -12.5q-11 -3 -19 -11t-16 -15
t-17.5 -10.5t-22.5 1.5q-3 -2 -10 -4t-15 -3.5t-15.5 -2.5t-11.5 -1q-18 12 -25.5 14.5t-12 5.5t-10.5 11t-21 30q2 12 1.5 25.5t0.5 26.5t6 24t19 17q6 9 18 15t21 11q8 1 8.5 1.5t8.5 10.5q21 1 42 4.5t41 13.5q3 -3 9 -1.5t13.5 4.5t15 6.5t13.5 5.5q1 7 2.5 13t2.5 13
q1 12 -7.5 25t-21 22t-27 13.5t-26.5 0.5l-20 4q-6 -4 -9.5 -5.5t-6 -3t-5 -4.5t-6.5 -11q-1 -7 -0.5 -10t1.5 -5.5t1.5 -4t-0.5 -5.5q5 -16 1 -24t-12.5 -13t-19.5 -8.5t-20 -9.5q-9 6 -16 7t-11.5 3t-7.5 9.5t-5 27.5q3 9 5.5 18.5t6.5 18.5q11 8 20 17.5t21 15.5q0 1 6 4
t13.5 7t14 7.5t9.5 5.5q12 0 23.5 0.5t23.5 -2.5q8 2 20.5 1t25 -4t24 -8t16.5 -12q7 -2 13 -5.5t12 -6.5q5 2 10 5t10 5l4 6q6 2 18.5 8t26 11.5t25.5 8t17 -3.5q5 1 11 2t11 2l14 -7l12 4q2 -7 10 -9t13 3q20 -13 34 -23t23 -22t14.5 -28.5t10.5 -40.5l6 -9q-1 -24 -1 -32
t-1 -9.5t-5 -2t-14 -10.5z" />
    <glyph glyph-name="ccedilla" unicode="&#xe7;" horiz-adv-x="385" 
d="M212 -168q-2 2 -6.5 -3.5t-7.5 -6.5q-7 -2 -13 -3t-14 -1q-1 0 -11 5t-24 7q-8 1 -17.5 -3t-15.5 -3q-3 0 -7 8.5t-4 13.5q0 3 2.5 10t6 15t8 14t7.5 6q20 0 39 -1t38 -1q2 0 8.5 0.5t12.5 1.5q4 0 8.5 3t6.5 6t1.5 5.5t-4.5 2.5q-2 0 -5.5 5.5t-5.5 6.5q-15 5 -23 3.5
t-23 -3.5q-4 0 -10.5 0.5t-16.5 2.5q-11 2 -15 3t4 12q10 13 20 25t19 23q-31 4 -58 17t-46.5 34t-30.5 48.5t-11 60.5q0 15 7 45t19 61t27 54.5t32 23.5l11 -4q11 6 27.5 13.5t28.5 7.5q5 0 10.5 -1t8.5 -6l6 6q24 -2 35 -3t17 -5t13 -11.5t24 -22.5l8 4q-2 5 -5.5 10
t-3.5 10l1 5l10 9q11 -4 16 -4.5t8.5 1t8 3.5t13.5 2q11 0 13 -14q2 -31 1 -61t1 -60l-4 -12q-12 0 -23.5 1.5t-23.5 -1.5q-8 5 -11.5 2t-17.5 -5q-11 8 -12.5 22t-5 28t-15 24.5t-42.5 10.5q-19 -7 -30 -15.5t-16.5 -20t-7 -26t-1.5 -33.5l1 -47q1 -34 16.5 -57.5
t51.5 -23.5q20 0 36 18t23 35l-1 1v3t1 10t3 22l7.5 2.5t9.5 2.5t9 -0.5t6 -5.5q7 1 13 2t13 1q10 -4 11 -4t10 3l9 -12q0 -32 -1.5 -63t0.5 -63q-5 -8 -6.5 -11.5t-4 -5t-7 -1.5h-14.5q-6 2 -8.5 3t-5 1t-6 -1.5t-11.5 -4.5l-8 14q3 9 5 13t2 6.5t-1 4t-4 5.5
q-8 -11 -11.5 -18t-7 -11.5t-9 -8t-18.5 -6.5t-6.5 -5.5t19 -10t25.5 -23.5t13 -46q0 -5 -2.5 -13t-7 -17.5t-11 -19t-15.5 -16.5q-5 -5 -13 -5.5t-14 -2.5q-8 -4 -15 -4t-15 8zM78 124q-3 -9 -2.5 -10t2.5 -9q3 0 3 1t-3 18zM104 81l6 2l-6 7v-9zM75 139q8 5 8.5 6t-4.5 3z
M106 137q-3 0 -3 -0.5v-5.5q3 -2 3.5 -1.5t-0.5 7.5zM77 185q2 6 2 6.5t-4 7.5z" />
    <glyph glyph-name="egrave" unicode="&#xe8;" horiz-adv-x="481" 
d="M156 450q-2 -7 -4 -19q2 5 3.5 9t5.5 8zM99 502v-11l7 3zM109 552q25 -27 63 -74q8 -9 17.5 -21.5t15.5 -15.5q2 -2 2.5 -5.5t2.5 -6.5q11 -15 22.5 -29t22.5 -28q4 -5 1 -13.5t-6 -11.5q-2 -2 -8 -4t-10 1q-7 5 -31 25.5t-53 49.5q-17 17 -37.5 31t-32.5 31
q-11 10 -21 18.5t-18 16.5q0 3 5.5 10.5t7.5 15.5q8 2 13.5 8t6.5 7q14 13 21.5 8t15.5 -13zM114 32q0 -7 2.5 -9t5 -1t3 4t-2.5 6h-8zM81 69q8 0 7.5 0.5t-5.5 7.5zM108 80q-6 10 -6.5 11.5t1.5 12.5q-10 2 -10.5 2t-2.5 11l-9 8l-5 -15q4 -5 7.5 -7.5t5.5 -4.5t3 -6t1 -12
l14 -4zM141 71q-11 -3 -12 -3t-7 3v-10q6 -2 10.5 1.5t8.5 8.5zM82 130q2 4 2.5 4t-3.5 2zM134 105l-3 -4h11zM94 160q-9 0 -10 -0.5t-4 -5.5l9 -8q5 6 5 6.5v7.5zM109 185l-4 -5q5 -3 6 -3t3 4zM360 46q-5 0 -5.5 -1t0.5 -12q5 4 5 4.5v8.5zM373 47q-7 -9 -7 -9.5t5 -3.5
q7 5 7 5.5t-5 7.5zM305 156q-3 12 -2.5 25t2.5 25q-6 5 -14.5 7.5t-16.5 3t-14 1.5t-7 3q-18 0 -36.5 -7t-40.5 -6q-5 -16 -4 -30.5t3 -28.5q9 -4 20.5 -3.5t24 2.5t25 4.5t22.5 2.5q9 0 12.5 -3t20.5 -1zM333 136l3 5l-4 2zM348 150q-2 -5 -1.5 -5.5t7.5 -5.5
q0 10 -0.5 10.5t-5.5 0.5zM364 128q1 2 3 5.5t3 6t-0.5 3.5t-5.5 -1v-14zM457 85q-10 3 -27 5.5t-35 3.5t-35 0t-27 -6l-25 -2l-9 6q-20 -7 -50.5 -6.5t-53.5 2.5l-3 4l-16 -5q6 -16 5 -32.5t-1 -32.5q8 -8 9 -8.5t10 -0.5q12 -6 16 -7t5.5 0t3.5 1.5t10 -3.5q7 1 19 0.5
t23.5 1t20 6t8.5 15.5q0 10 -1.5 12t-2.5 3.5t-0.5 6t5.5 21.5q14 2 29 2.5t29 1.5q3 -5 13.5 -3.5t15.5 3.5l29 -6q12 5 24 5q6 0 10 -4.5t4 -10.5q0 -14 -15 -29.5t-35.5 -30t-41.5 -26t-33 -16.5q-20 -9 -42.5 -10.5t-44.5 -3.5q-1 1 -1 2t-2.5 0.5t-8 -3t-17.5 -6.5
q-8 3 -16.5 6t-17.5 3q-21 16 -38.5 22.5t-32.5 10.5t-27 8t-22.5 14.5t-18.5 30.5t-15 56q-2 0 -2 1.5v18.5q-1 43 15.5 73t44.5 50.5t63 33.5t71 23q1 -1 15.5 -3t32 -4t33.5 -4t20 -2q19 -21 35.5 -29t30.5 -12t26 -8.5t21.5 -17t16.5 -38t11 -71.5z" />
    <glyph glyph-name="eacute" unicode="&#xe9;" horiz-adv-x="481" 
d="M387 462q-8 -1 -9 -1.5t-8 -8.5h9zM387 553q4 4 9 8.5t10 6.5t11 1.5t14 -8.5q2 -1 4 -3q4 -4 5 -6q8 -8 15.5 -20t7.5 -17q-6 -6 -11.5 -13t-13.5 -14q-25 -23 -53 -47q-2 -2 -4.5 -1.5t-4.5 -1.5q-15 -13 -26.5 -24.5t-24.5 -22.5q-20 -17 -36 -29.5t-21 -16.5
q-4 -3 -10 -1t-8 4q-3 3 -6.5 11.5t1.5 13.5q12 16 26 35.5t25 29.5q11 9 23 30t24 36q14 10 24.5 24.5t19.5 24.5zM114 32q0 -7 2.5 -9t5 -1t3 4t-2.5 6h-8zM81 69q8 0 7.5 0.5t-5.5 7.5zM108 80q-6 10 -6.5 11.5t1.5 12.5q-10 2 -10.5 2t-2.5 11l-9 8l-5 -15
q4 -5 7.5 -7.5t5.5 -4.5t3 -6t1 -12l14 -4zM141 71q-11 -3 -12 -3t-7 3v-10q6 -2 10.5 1.5t8.5 8.5zM82 130q2 4 2.5 4t-3.5 2zM134 105l-3 -4h11zM94 160q-9 0 -10 -0.5t-4 -5.5l9 -8q5 6 5 6.5v7.5zM109 185l-4 -5q5 -3 6 -3t3 4zM360 46q-5 0 -5.5 -1t0.5 -12q5 4 5 4.5
v8.5zM373 47q-7 -9 -7 -9.5t5 -3.5q7 5 7 5.5t-5 7.5zM305 156q-3 12 -2.5 25t2.5 25q-6 5 -14.5 7.5t-16.5 3t-14 1.5t-7 3q-18 0 -36.5 -7t-40.5 -6q-5 -16 -4 -30.5t3 -28.5q9 -4 20.5 -3.5t24 2.5t25 4.5t22.5 2.5q9 0 12.5 -3t20.5 -1zM333 136l3 5l-4 2zM348 150
q-2 -5 -1.5 -5.5t7.5 -5.5q0 10 -0.5 10.5t-5.5 0.5zM364 128q1 2 3 5.5t3 6t-0.5 3.5t-5.5 -1v-14zM457 85q-10 3 -27 5.5t-35 3.5t-35 0t-27 -6l-25 -2l-9 6q-20 -7 -50.5 -6.5t-53.5 2.5l-3 4l-16 -5q6 -16 5 -32.5t-1 -32.5q8 -8 9 -8.5t10 -0.5q12 -6 16 -7t5.5 0
t3.5 1.5t10 -3.5q7 1 19 0.5t23.5 1t20 6t8.5 15.5q0 10 -1.5 12t-2.5 3.5t-0.5 6t5.5 21.5q14 2 29 2.5t29 1.5q3 -5 13.5 -3.5t15.5 3.5l29 -6q12 5 24 5q6 0 10 -4.5t4 -10.5q0 -14 -15 -29.5t-35.5 -30t-41.5 -26t-33 -16.5q-20 -9 -42.5 -10.5t-44.5 -3.5q-1 1 -1 2
t-2.5 0.5t-8 -3t-17.5 -6.5q-8 3 -16.5 6t-17.5 3q-21 16 -38.5 22.5t-32.5 10.5t-27 8t-22.5 14.5t-18.5 30.5t-15 56q-2 0 -2 1.5v18.5q-1 43 15.5 73t44.5 50.5t63 33.5t71 23q1 -1 15.5 -3t32 -4t33.5 -4t20 -2q19 -21 35.5 -29t30.5 -12t26 -8.5t21.5 -17t16.5 -38
t11 -71.5z" />
    <glyph glyph-name="ecircumflex" unicode="&#xea;" horiz-adv-x="481" 
d="M213 429q-5 -4 -5.5 -4t-2.5 -8q6 0 7 2.5t1 8.5v1zM71 328q12 16 20 25.5t16.5 20.5t20 26.5t31.5 44.5q16 23 29 39t22 29q8 4 17 4h44q7 0 9 -3q12 -14 26.5 -28.5t22.5 -25.5q2 -3 5 -9.5t6 -14t6 -14t6 -9.5q7 -7 17 -17.5t20.5 -22.5t21 -24.5t17.5 -23.5l-14 -1
q-11 -1 -23.5 2t-19.5 8q-6 4 -7 9t-12 13q-7 6 -11.5 9t-9 4.5t-8.5 3.5t-10 6q-2 2 -11 12.5t-11 12.5q-5 4 -12 9.5t-13 10.5t-11 8t-6 3q-12 0 -21.5 -11.5t-23.5 -18.5q-7 -4 -14.5 -6t-13.5 -6q-5 -4 -12.5 -12t-12.5 -12q-2 -1 -6 -4.5t-8.5 -7t-8.5 -6t-6 -1.5
q-4 -2 -2.5 -4t-2.5 -4q-5 -2 -11 -10t-11 -10q-9 2 -15.5 4t-8.5 2zM114 32q0 -7 2.5 -9t5 -1t3 4t-2.5 6h-8zM81 69q8 0 7.5 0.5t-5.5 7.5zM108 80q-6 10 -6.5 11.5t1.5 12.5q-10 2 -10.5 2t-2.5 11l-9 8l-5 -15q4 -5 7.5 -7.5t5.5 -4.5t3 -6t1 -12l14 -4zM141 71
q-11 -3 -12 -3t-7 3v-10q6 -2 10.5 1.5t8.5 8.5zM82 130q2 4 2.5 4t-3.5 2zM134 105l-3 -4h11zM94 160q-9 0 -10 -0.5t-4 -5.5l9 -8q5 6 5 6.5v7.5zM109 185l-4 -5q5 -3 6 -3t3 4zM360 46q-5 0 -5.5 -1t0.5 -12q5 4 5 4.5v8.5zM373 47q-7 -9 -7 -9.5t5 -3.5q7 5 7 5.5
t-5 7.5zM305 156q-3 12 -2.5 25t2.5 25q-6 5 -14.5 7.5t-16.5 3t-14 1.5t-7 3q-18 0 -36.5 -7t-40.5 -6q-5 -16 -4 -30.5t3 -28.5q9 -4 20.5 -3.5t24 2.5t25 4.5t22.5 2.5q9 0 12.5 -3t20.5 -1zM333 136l3 5l-4 2zM348 150q-2 -5 -1.5 -5.5t7.5 -5.5q0 10 -0.5 10.5
t-5.5 0.5zM364 128q1 2 3 5.5t3 6t-0.5 3.5t-5.5 -1v-14zM457 85q-10 3 -27 5.5t-35 3.5t-35 0t-27 -6l-25 -2l-9 6q-20 -7 -50.5 -6.5t-53.5 2.5l-3 4l-16 -5q6 -16 5 -32.5t-1 -32.5q8 -8 9 -8.5t10 -0.5q12 -6 16 -7t5.5 0t3.5 1.5t10 -3.5q7 1 19 0.5t23.5 1t20 6
t8.5 15.5q0 10 -1.5 12t-2.5 3.5t-0.5 6t5.5 21.5q14 2 29 2.5t29 1.5q3 -5 13.5 -3.5t15.5 3.5l29 -6q12 5 24 5q6 0 10 -4.5t4 -10.5q0 -14 -15 -29.5t-35.5 -30t-41.5 -26t-33 -16.5q-20 -9 -42.5 -10.5t-44.5 -3.5q-1 1 -1 2t-2.5 0.5t-8 -3t-17.5 -6.5q-8 3 -16.5 6
t-17.5 3q-21 16 -38.5 22.5t-32.5 10.5t-27 8t-22.5 14.5t-18.5 30.5t-15 56q-2 0 -2 1.5v18.5q-1 43 15.5 73t44.5 50.5t63 33.5t71 23q1 -1 15.5 -3t32 -4t33.5 -4t20 -2q19 -21 35.5 -29t30.5 -12t26 -8.5t21.5 -17t16.5 -38t11 -71.5z" />
    <glyph glyph-name="edieresis" unicode="&#xeb;" horiz-adv-x="481" 
d="M359 386q0 -10 -4.5 -20.5t-11.5 -19t-17 -14t-20 -5.5q-12 0 -20 6.5t-13 16t-8.5 19.5t-7.5 18q2 20 17.5 37t35.5 17l29 -14zM238 386q0 -10 -4 -20t-10.5 -18.5t-16 -13.5t-19.5 -5q-11 0 -20 5.5t-16.5 14t-11.5 19t-4 20.5t4.5 20t12 17.5t17 12.5t20.5 4
q12 -3 23 -10q9 -6 16 -17.5t9 -28.5zM114 32q0 -7 2.5 -9t5 -1t3 4t-2.5 6h-8zM81 69q8 0 7.5 0.5t-5.5 7.5zM108 80q-6 10 -6.5 11.5t1.5 12.5q-10 2 -10.5 2t-2.5 11l-9 8l-5 -15q4 -5 7.5 -7.5t5.5 -4.5t3 -6t1 -12l14 -4zM141 71q-11 -3 -12 -3t-7 3v-10q6 -2 10.5 1.5
t8.5 8.5zM82 130q2 4 2.5 4t-3.5 2zM134 105l-3 -4h11zM94 160q-9 0 -10 -0.5t-4 -5.5l9 -8q5 6 5 6.5v7.5zM109 185l-4 -5q5 -3 6 -3t3 4zM360 46q-5 0 -5.5 -1t0.5 -12q5 4 5 4.5v8.5zM373 47q-7 -9 -7 -9.5t5 -3.5q7 5 7 5.5t-5 7.5zM305 156q-3 12 -2.5 25t2.5 25
q-6 5 -14.5 7.5t-16.5 3t-14 1.5t-7 3q-18 0 -36.5 -7t-40.5 -6q-5 -16 -4 -30.5t3 -28.5q9 -4 20.5 -3.5t24 2.5t25 4.5t22.5 2.5q9 0 12.5 -3t20.5 -1zM333 136l3 5l-4 2zM348 150q-2 -5 -1.5 -5.5t7.5 -5.5q0 10 -0.5 10.5t-5.5 0.5zM364 128q1 2 3 5.5t3 6t-0.5 3.5
t-5.5 -1v-14zM457 85q-10 3 -27 5.5t-35 3.5t-35 0t-27 -6l-25 -2l-9 6q-20 -7 -50.5 -6.5t-53.5 2.5l-3 4l-16 -5q6 -16 5 -32.5t-1 -32.5q8 -8 9 -8.5t10 -0.5q12 -6 16 -7t5.5 0t3.5 1.5t10 -3.5q7 1 19 0.5t23.5 1t20 6t8.5 15.5q0 10 -1.5 12t-2.5 3.5t-0.5 6t5.5 21.5
q14 2 29 2.5t29 1.5q3 -5 13.5 -3.5t15.5 3.5l29 -6q12 5 24 5q6 0 10 -4.5t4 -10.5q0 -14 -15 -29.5t-35.5 -30t-41.5 -26t-33 -16.5q-20 -9 -42.5 -10.5t-44.5 -3.5q-1 1 -1 2t-2.5 0.5t-8 -3t-17.5 -6.5q-8 3 -16.5 6t-17.5 3q-21 16 -38.5 22.5t-32.5 10.5t-27 8
t-22.5 14.5t-18.5 30.5t-15 56q-2 0 -2 1.5v18.5q-1 43 15.5 73t44.5 50.5t63 33.5t71 23q1 -1 15.5 -3t32 -4t33.5 -4t20 -2q19 -21 35.5 -29t30.5 -12t26 -8.5t21.5 -17t16.5 -38t11 -71.5z" />
    <glyph glyph-name="igrave" unicode="&#xec;" horiz-adv-x="270" 
d="M66 545q-3 -9 -3 -17q2 9 7 14zM17 590v-10l6 2zM25 633q11 -11 25 -27.5t30 -36.5q7 -8 15 -19t14 -13q2 -3 2 -6t2 -5q10 -13 20 -25.5t19 -23.5q3 -5 0.5 -12.5t-4.5 -9.5t-7.5 -3.5t-8.5 1.5q-5 5 -26 22.5t-47 41.5q-14 14 -32 27t-28 27q-10 9 -18.5 16.5
t-16.5 13.5q0 3 5 10t7 13q7 2 11.5 7.5t5.5 5.5q12 11 18.5 7.5t13.5 -11.5zM144 148q-8 7 -13 8t-13 -13l7 -1q7 7 7.5 7t11.5 -1zM125 214q3 5 0.5 16.5t-2.5 19.5l-5 -7q-1 -2 -2.5 -4t-1.5 -4q0 -7 1.5 -13t3.5 -13zM151 221q-8 2 -9 1.5t-3 -9.5zM118 262q12 4 12 4.5
t-14 3.5zM153 238q9 0 6 1t-5 5zM139 252l6 2l-4 4zM117 295l3.5 -3.5t7.5 -4.5q4 5 3.5 5.5t-14.5 2.5zM157 284q9 -4 11.5 0t-14.5 8l3 -8l-7 -12q10 -2 10 -1t-3 13zM129 330q-2 5 -2.5 5t-7.5 -3q1 -5 1.5 -5.5t8.5 3.5zM158 327q0 9 -0.5 9.5t-9.5 0.5l-5 -15
q7 8 9.5 6t5.5 -1zM135 357q11 -4 11.5 -3.5t2.5 5.5zM239 91q-11 4 -16 5.5t-15 -3.5q-1 0 -10.5 0.5t-21 0.5t-21.5 -0.5t-13 -1.5q-9 3 -20 2.5t-22.5 -2t-22.5 -3.5t-18 -2q-12 0 -18 3t-14 11l1 34l11 9q9 1 12.5 1.5t7 0.5t9.5 -1.5l18 -4.5q-1 77 -1.5 113.5t-1 50
t-1.5 12t-2 -0.5q-2 14 -2.5 27t1.5 27q-20 3 -37 -7q-8 1 -12 13t-4 18t3 17.5t12 11.5t15.5 -3t17.5 -1q9 -2 18 -2.5t17 -6.5l31 -1q13 -1 26 2.5t25 8.5l16 -11v-18.5t-5 -17.5q3 -6 4 -17.5t1.5 -24.5t0.5 -25v-19q0 -8 0.5 -19.5t0 -23.5t-2 -22t-4.5 -16q3 -7 0 -17
t2 -17q2 -4 0 -13t-1 -17q10 0 19.5 3t19.5 3q3 0 5 -5t3 -11t1.5 -12t0.5 -9zM103 359l7 12l15 -8q-5 -10 -5 -11.5t-7 -1.5zM115 184l7 6q8 -5 8 -7t-5 -5z" />
    <glyph glyph-name="iacute" unicode="&#xed;" horiz-adv-x="270" 
d="M241 554h-8.5t-5.5 -8h7zM241 634q4 3 8 7t9 6q10 5 21 -6q1 0 4 -2.5t4 -5.5q7 -8 13.5 -18t6.5 -14q-5 -5 -10 -11.5t-11 -12.5q-11 -10 -22.5 -20t-23.5 -21q-2 -2 -4 -1t-4 -1q-13 -11 -23.5 -21.5t-21.5 -20.5q-17 -14 -31 -25t-18 -14t-9 -1.5t-7 3.5
q-3 2 -5.5 9.5t1.5 12.5q11 14 23 31t21 26q9 8 19.5 26t21.5 31q12 8 21 21.5t17 21.5zM144 148q-8 7 -13 8t-13 -13l7 -1q7 7 7.5 7t11.5 -1zM125 214q3 5 0.5 16.5t-2.5 19.5l-5 -7q-1 -2 -2.5 -4t-1.5 -4q0 -7 1.5 -13t3.5 -13zM151 221q-8 2 -9 1.5t-3 -9.5zM118 262
q12 4 12 4.5t-14 3.5zM153 238q9 0 6 1t-5 5zM139 252l6 2l-4 4zM117 295l3.5 -3.5t7.5 -4.5q4 5 3.5 5.5t-14.5 2.5zM157 284q9 -4 11.5 0t-14.5 8l3 -8l-7 -12q10 -2 10 -1t-3 13zM129 330q-2 5 -2.5 5t-7.5 -3q1 -5 1.5 -5.5t8.5 3.5zM158 327q0 9 -0.5 9.5t-9.5 0.5
l-5 -15q7 8 9.5 6t5.5 -1zM135 357q11 -4 11.5 -3.5t2.5 5.5zM239 91q-11 4 -16 5.5t-15 -3.5q-1 0 -10.5 0.5t-21 0.5t-21.5 -0.5t-13 -1.5q-9 3 -20 2.5t-22.5 -2t-22.5 -3.5t-18 -2q-12 0 -18 3t-14 11l1 34l11 9q9 1 12.5 1.5t7 0.5t9.5 -1.5l18 -4.5q-1 77 -1.5 113.5
t-1 50t-1.5 12t-2 -0.5q-2 14 -2.5 27t1.5 27q-20 3 -37 -7q-8 1 -12 13t-4 18t3 17.5t12 11.5t15.5 -3t17.5 -1q9 -2 18 -2.5t17 -6.5l31 -1q13 -1 26 2.5t25 8.5l16 -11v-18.5t-5 -17.5q3 -6 4 -17.5t1.5 -24.5t0.5 -25v-19q0 -8 0.5 -19.5t0 -23.5t-2 -22t-4.5 -16
q3 -7 0 -17t2 -17q2 -4 0 -13t-1 -17q10 0 19.5 3t19.5 3q3 0 5 -5t3 -11t1.5 -12t0.5 -9zM113 350q7 0 7 1.5t5 11.5l-15 8l-7 -12zM125 178q5 3 5 5t-8 7l-7 -6z" />
    <glyph glyph-name="icircumflex" unicode="&#xee;" horiz-adv-x="270" 
d="M144 148q-8 7 -13 8t-13 -13l7 -1q7 7 7.5 7t11.5 -1zM125 214q3 5 0.5 16.5t-2.5 19.5l-5 -7q-1 -2 -2.5 -4t-1.5 -4q0 -7 1.5 -13t3.5 -13zM151 221q-8 2 -9 1.5t-3 -9.5zM118 262q12 4 12 4.5t-14 3.5zM153 238q9 0 6 1t-5 5zM139 252l6 2l-4 4zM117 295l3.5 -3.5
t7.5 -4.5q4 5 3.5 5.5t-14.5 2.5zM157 284q9 -4 11.5 0t-14.5 8l3 -8l-7 -12q10 -2 10 -1t-3 13zM129 330q-2 5 -2.5 5t-7.5 -3q1 -5 1.5 -5.5t8.5 3.5zM158 327q0 9 -0.5 9.5t-9.5 0.5l-5 -15q7 8 9.5 6t5.5 -1zM135 357q11 -4 11.5 -3.5t2.5 5.5zM239 91q-11 4 -16 5.5
t-15 -3.5q-1 0 -10.5 0.5t-21 0.5t-21.5 -0.5t-13 -1.5q-9 3 -20 2.5t-22.5 -2t-22.5 -3.5t-18 -2q-12 0 -18 3t-14 11l1 34l11 9q9 1 12.5 1.5t7 0.5t9.5 -1.5l18 -4.5q-1 77 -1.5 113.5t-1 50t-1.5 12t-2 -0.5q-2 14 -2.5 27t1.5 27q-20 3 -37 -7q-8 1 -12 13t-4 18
t3 17.5t12 11.5t15.5 -3t17.5 -1q9 -2 18 -2.5t17 -6.5l31 -1q13 -1 26 2.5t25 8.5l16 -11v-18.5t-5 -17.5q3 -6 4 -17.5t1.5 -24.5t0.5 -25v-19q0 -8 0.5 -19.5t0 -23.5t-2 -22t-4.5 -16q3 -7 0 -17t2 -17q2 -4 0 -13t-1 -17q10 0 19.5 3t19.5 3q3 0 5 -5t3 -11t1.5 -12
t0.5 -9zM103 359l7 12l15 -8q-5 -10 -5 -11.5t-7 -1.5zM115 184l7 6q8 -5 8 -7t-5 -5zM111 538q-3 -2 -3 -2.5t-2 -5.5q5 0 5 7v1zM19 473q8 10 13 16t10.5 13t13 17.5t20.5 28.5q11 15 19 26t14 19q3 1 5 2t6 1q2 0 11.5 -0.5t17.5 -0.5q5 0 6 -1q8 -10 17 -19t14 -17
q3 -4 7.5 -15.5t7.5 -14.5q9 -9 24.5 -26t25.5 -31l-10 -1q-7 0 -15 1.5t-13 4.5q-4 3 -4.5 6t-7.5 9q-9 8 -13.5 9t-11.5 6q-1 1 -7 8t-7 8q-8 6 -17 13t-11 7q-8 0 -14 -7.5t-15 -12.5q-5 -2 -9.5 -3.5t-8.5 -3.5t-8.5 -7.5t-8.5 -8.5q-2 -2 -8.5 -7.5t-9.5 -4.5
q-2 -2 -1.5 -3t-1.5 -3q-3 -1 -7.5 -6t-7.5 -6q-6 1 -10 2.5t-5 1.5z" />
    <glyph glyph-name="idieresis" unicode="&#xef;" horiz-adv-x="270" 
d="M222 499q0 -16 -12.5 -31t-29.5 -15q-9 0 -15.5 5t-10.5 12.5t-7 15.5t-6 14q2 15 14.5 28.5t28.5 13.5l22 -11zM126 499q1 -15 -11 -30t-27 -15q-17 0 -29.5 15.5t-12.5 31.5q0 15 13 29t30 13q10 -3 18 -8q7 -5 12.5 -13.5t6.5 -22.5zM144 148q-8 7 -13 8t-13 -13l7 -1
q7 7 7.5 7t11.5 -1zM125 214q3 5 0.5 16.5t-2.5 19.5l-5 -7q-1 -2 -2.5 -4t-1.5 -4q0 -7 1.5 -13t3.5 -13zM151 221q-8 2 -9 1.5t-3 -9.5zM118 262q12 4 12 4.5t-14 3.5zM153 238q9 0 6 1t-5 5zM139 252l6 2l-4 4zM117 295l3.5 -3.5t7.5 -4.5q4 5 3.5 5.5t-14.5 2.5z
M157 284q9 -4 11.5 0t-14.5 8l3 -8l-7 -12q10 -2 10 -1t-3 13zM129 330q-2 5 -2.5 5t-7.5 -3q1 -5 1.5 -5.5t8.5 3.5zM158 327q0 9 -0.5 9.5t-9.5 0.5l-5 -15q7 8 9.5 6t5.5 -1zM135 357q11 -4 11.5 -3.5t2.5 5.5zM239 91q-11 4 -16 5.5t-15 -3.5q-1 0 -10.5 0.5t-21 0.5
t-21.5 -0.5t-13 -1.5q-9 3 -20 2.5t-22.5 -2t-22.5 -3.5t-18 -2q-12 0 -18 3t-14 11l1 34l11 9q9 1 12.5 1.5t7 0.5t9.5 -1.5l18 -4.5q-1 77 -1.5 113.5t-1 50t-1.5 12t-2 -0.5q-2 14 -2.5 27t1.5 27q-20 3 -37 -7q-8 1 -12 13t-4 18t3 17.5t12 11.5t15.5 -3t17.5 -1
q9 -2 18 -2.5t17 -6.5l31 -1q13 -1 26 2.5t25 8.5l16 -11v-18.5t-5 -17.5q3 -6 4 -17.5t1.5 -24.5t0.5 -25v-19q0 -8 0.5 -19.5t0 -23.5t-2 -22t-4.5 -16q3 -7 0 -17t2 -17q2 -4 0 -13t-1 -17q10 0 19.5 3t19.5 3q3 0 5 -5t3 -11t1.5 -12t0.5 -9zM103 359l7 12l15 -8
q-5 -10 -5 -11.5t-7 -1.5zM115 184l7 6q8 -5 8 -7t-5 -5z" />
    <glyph glyph-name="eth" unicode="&#xf0;" 
 />
    </font>
</defs>
</svg>
